%TF.GenerationSoftware,KiCad,Pcbnew,8.0.5*%
%TF.CreationDate,2025-08-31T17:26:02+07:00*%
%TF.ProjectId,Buck_Drone_Boit,4275636b-5f44-4726-9f6e-655f426f6974,rev?*%
%TF.SameCoordinates,Original*%
%TF.FileFunction,Legend,Top*%
%TF.FilePolarity,Positive*%
%FSLAX46Y46*%
G04 Gerber Fmt 4.6, Leading zero omitted, Abs format (unit mm)*
G04 Created by KiCad (PCBNEW 8.0.5) date 2025-08-31 17:26:02*
%MOMM*%
%LPD*%
G01*
G04 APERTURE LIST*
%ADD10C,0.300000*%
%ADD11C,0.100000*%
%ADD12C,0.150000*%
%ADD13C,0.200000*%
%ADD14C,0.127000*%
%ADD15C,0.120000*%
G04 APERTURE END LIST*
D10*
G36*
X166713778Y-60095535D02*
G01*
X166810044Y-60191801D01*
X166866917Y-60419291D01*
X166866917Y-60882364D01*
X166810044Y-61109854D01*
X166713778Y-61206121D01*
X166624365Y-61250828D01*
X166409470Y-61250828D01*
X166320057Y-61206121D01*
X166223790Y-61109854D01*
X166166917Y-60882362D01*
X166166917Y-60419293D01*
X166223790Y-60191801D01*
X166320057Y-60095534D01*
X166409470Y-60050828D01*
X166624364Y-60050828D01*
X166713778Y-60095535D01*
G37*
G36*
X157009774Y-60536542D02*
G01*
X156623755Y-60536542D01*
X156534341Y-60491835D01*
X156497336Y-60454830D01*
X156452631Y-60365418D01*
X156452631Y-60221951D01*
X156497336Y-60132540D01*
X156534341Y-60095535D01*
X156623755Y-60050828D01*
X157009774Y-60050828D01*
X157009774Y-60536542D01*
G37*
G36*
X161009774Y-60536542D02*
G01*
X160623755Y-60536542D01*
X160534341Y-60491835D01*
X160497336Y-60454830D01*
X160452631Y-60365418D01*
X160452631Y-60221951D01*
X160497336Y-60132540D01*
X160534341Y-60095535D01*
X160623755Y-60050828D01*
X161009774Y-60050828D01*
X161009774Y-60536542D01*
G37*
G36*
X168833584Y-61717495D02*
G01*
X155985964Y-61717495D01*
X155985964Y-60186542D01*
X156152631Y-60186542D01*
X156152631Y-60400828D01*
X156155513Y-60430092D01*
X156157575Y-60435070D01*
X156157957Y-60440446D01*
X156168467Y-60467910D01*
X156239895Y-60610767D01*
X156247822Y-60623360D01*
X156249338Y-60627020D01*
X156252719Y-60631139D01*
X156255560Y-60635653D01*
X156258553Y-60638249D01*
X156267993Y-60649751D01*
X156339422Y-60721180D01*
X156350926Y-60730621D01*
X156353521Y-60733613D01*
X156358030Y-60736451D01*
X156362153Y-60739835D01*
X156365814Y-60741351D01*
X156378406Y-60749278D01*
X156521264Y-60820706D01*
X156524698Y-60822020D01*
X156179746Y-61314809D01*
X156165325Y-61340435D01*
X156152666Y-61397577D01*
X156162837Y-61455213D01*
X156194290Y-61504570D01*
X156242238Y-61538134D01*
X156299380Y-61550793D01*
X156357016Y-61540622D01*
X156406373Y-61509169D01*
X156425516Y-61486847D01*
X156880729Y-60836542D01*
X157009774Y-60836542D01*
X157009774Y-61400828D01*
X157012656Y-61430092D01*
X157035054Y-61484164D01*
X157076438Y-61525548D01*
X157130510Y-61547946D01*
X157189038Y-61547946D01*
X157243110Y-61525548D01*
X157284494Y-61484164D01*
X157306892Y-61430092D01*
X157309774Y-61400828D01*
X157309774Y-59900828D01*
X157306892Y-59871564D01*
X157655513Y-59871564D01*
X157655513Y-59930092D01*
X157677911Y-59984164D01*
X157719295Y-60025548D01*
X157773367Y-60047946D01*
X157802631Y-60050828D01*
X158366917Y-60050828D01*
X158366917Y-60465114D01*
X158016917Y-60465114D01*
X157987653Y-60467996D01*
X157933581Y-60490394D01*
X157892197Y-60531778D01*
X157869799Y-60585850D01*
X157869799Y-60644378D01*
X157892197Y-60698450D01*
X157933581Y-60739834D01*
X157987653Y-60762232D01*
X158016917Y-60765114D01*
X158366917Y-60765114D01*
X158366917Y-61250828D01*
X157802631Y-61250828D01*
X157773367Y-61253710D01*
X157719295Y-61276108D01*
X157677911Y-61317492D01*
X157655513Y-61371564D01*
X157655513Y-61430092D01*
X157677911Y-61484164D01*
X157719295Y-61525548D01*
X157773367Y-61547946D01*
X157802631Y-61550828D01*
X158516917Y-61550828D01*
X158546181Y-61547946D01*
X158600253Y-61525548D01*
X158641637Y-61484164D01*
X158664035Y-61430092D01*
X158666917Y-61400828D01*
X158666917Y-59900828D01*
X158664035Y-59871564D01*
X158869799Y-59871564D01*
X158869799Y-59930092D01*
X158892197Y-59984164D01*
X158933581Y-60025548D01*
X158987653Y-60047946D01*
X159016917Y-60050828D01*
X159295488Y-60050828D01*
X159295488Y-61400828D01*
X159298370Y-61430092D01*
X159320768Y-61484164D01*
X159362152Y-61525548D01*
X159416224Y-61547946D01*
X159474752Y-61547946D01*
X159528824Y-61525548D01*
X159570208Y-61484164D01*
X159592606Y-61430092D01*
X159595488Y-61400828D01*
X159595488Y-60186542D01*
X160152631Y-60186542D01*
X160152631Y-60400828D01*
X160155513Y-60430092D01*
X160157575Y-60435070D01*
X160157957Y-60440446D01*
X160168467Y-60467910D01*
X160239895Y-60610767D01*
X160247822Y-60623360D01*
X160249338Y-60627020D01*
X160252719Y-60631139D01*
X160255560Y-60635653D01*
X160258553Y-60638249D01*
X160267993Y-60649751D01*
X160339422Y-60721180D01*
X160350926Y-60730621D01*
X160353521Y-60733613D01*
X160358030Y-60736451D01*
X160362153Y-60739835D01*
X160365814Y-60741351D01*
X160378406Y-60749278D01*
X160521264Y-60820706D01*
X160524698Y-60822020D01*
X160179746Y-61314809D01*
X160165325Y-61340435D01*
X160152666Y-61397577D01*
X160162837Y-61455213D01*
X160194290Y-61504570D01*
X160242238Y-61538134D01*
X160299380Y-61550793D01*
X160357016Y-61540622D01*
X160406373Y-61509169D01*
X160425516Y-61486847D01*
X160880729Y-60836542D01*
X161009774Y-60836542D01*
X161009774Y-61400828D01*
X161012656Y-61430092D01*
X161035054Y-61484164D01*
X161076438Y-61525548D01*
X161130510Y-61547946D01*
X161189038Y-61547946D01*
X161243110Y-61525548D01*
X161284494Y-61484164D01*
X161306892Y-61430092D01*
X161309774Y-61400828D01*
X161309774Y-59900828D01*
X161306892Y-59871564D01*
X161655513Y-59871564D01*
X161655513Y-59930092D01*
X161677911Y-59984164D01*
X161719295Y-60025548D01*
X161773367Y-60047946D01*
X161802631Y-60050828D01*
X162366917Y-60050828D01*
X162366917Y-60465114D01*
X162016917Y-60465114D01*
X161987653Y-60467996D01*
X161933581Y-60490394D01*
X161892197Y-60531778D01*
X161869799Y-60585850D01*
X161869799Y-60644378D01*
X161892197Y-60698450D01*
X161933581Y-60739834D01*
X161987653Y-60762232D01*
X162016917Y-60765114D01*
X162366917Y-60765114D01*
X162366917Y-61250828D01*
X161802631Y-61250828D01*
X161773367Y-61253710D01*
X161719295Y-61276108D01*
X161677911Y-61317492D01*
X161655513Y-61371564D01*
X161655513Y-61430092D01*
X161677911Y-61484164D01*
X161719295Y-61525548D01*
X161773367Y-61547946D01*
X161802631Y-61550828D01*
X162516917Y-61550828D01*
X162546181Y-61547946D01*
X162600253Y-61525548D01*
X162641637Y-61484164D01*
X162664035Y-61430092D01*
X162666917Y-61400828D01*
X162666917Y-59919589D01*
X162868094Y-59919589D01*
X162874614Y-59948262D01*
X163374614Y-61448262D01*
X163386602Y-61475113D01*
X163393624Y-61483210D01*
X163398417Y-61492795D01*
X163412623Y-61505116D01*
X163424949Y-61519328D01*
X163434536Y-61524121D01*
X163442631Y-61531142D01*
X163460473Y-61537089D01*
X163477297Y-61545501D01*
X163487987Y-61546260D01*
X163498155Y-61549650D01*
X163516911Y-61548317D01*
X163535677Y-61549651D01*
X163545847Y-61546260D01*
X163556536Y-61545501D01*
X163573357Y-61537090D01*
X163591201Y-61531142D01*
X163599297Y-61524119D01*
X163608883Y-61519327D01*
X163621206Y-61505118D01*
X163635415Y-61492795D01*
X163640207Y-61483209D01*
X163647230Y-61475113D01*
X163659218Y-61448262D01*
X164159219Y-59948262D01*
X164165739Y-59919588D01*
X164164405Y-59900828D01*
X164366917Y-59900828D01*
X164366917Y-61400828D01*
X164367658Y-61408353D01*
X164367283Y-61411305D01*
X164368325Y-61415125D01*
X164369799Y-61430092D01*
X164377434Y-61448524D01*
X164382683Y-61467769D01*
X164388537Y-61475328D01*
X164392197Y-61484164D01*
X164406304Y-61498271D01*
X164418518Y-61514043D01*
X164426820Y-61518787D01*
X164433581Y-61525548D01*
X164452011Y-61533182D01*
X164469334Y-61543081D01*
X164478819Y-61544286D01*
X164487653Y-61547946D01*
X164507603Y-61547946D01*
X164527394Y-61550462D01*
X164536619Y-61547946D01*
X164546181Y-61547946D01*
X164564613Y-61540310D01*
X164583858Y-61535062D01*
X164591417Y-61529207D01*
X164600253Y-61525548D01*
X164614360Y-61511440D01*
X164630132Y-61499227D01*
X164638837Y-61486963D01*
X164641637Y-61484164D01*
X164642775Y-61481416D01*
X164647153Y-61475249D01*
X165224060Y-60465663D01*
X165224060Y-61400828D01*
X165226942Y-61430092D01*
X165249340Y-61484164D01*
X165290724Y-61525548D01*
X165344796Y-61547946D01*
X165403324Y-61547946D01*
X165457396Y-61525548D01*
X165498780Y-61484164D01*
X165521178Y-61430092D01*
X165524060Y-61400828D01*
X165524060Y-60400828D01*
X165866917Y-60400828D01*
X165866917Y-60900828D01*
X165867419Y-60905931D01*
X165867094Y-60908119D01*
X165868713Y-60919070D01*
X165869799Y-60930092D01*
X165870645Y-60932136D01*
X165871396Y-60937209D01*
X165942825Y-61222922D01*
X165952718Y-61250613D01*
X165959357Y-61259573D01*
X165963625Y-61269877D01*
X165982280Y-61292608D01*
X166125137Y-61435466D01*
X166136643Y-61444909D01*
X166139236Y-61447899D01*
X166143741Y-61450735D01*
X166147867Y-61454121D01*
X166151530Y-61455638D01*
X166164121Y-61463564D01*
X166306979Y-61534992D01*
X166334442Y-61545502D01*
X166339817Y-61545883D01*
X166344796Y-61547946D01*
X166374060Y-61550828D01*
X166659774Y-61550828D01*
X166689038Y-61547946D01*
X166694016Y-61545883D01*
X166699392Y-61545502D01*
X166726855Y-61534992D01*
X166869714Y-61463564D01*
X166882304Y-61455638D01*
X166885968Y-61454121D01*
X166890093Y-61450735D01*
X166894599Y-61447899D01*
X166897192Y-61444909D01*
X166908698Y-61435466D01*
X167051555Y-61292608D01*
X167070210Y-61269877D01*
X167074477Y-61259573D01*
X167081117Y-61250613D01*
X167091010Y-61222922D01*
X167162438Y-60937208D01*
X167163187Y-60932136D01*
X167164035Y-60930092D01*
X167165120Y-60919069D01*
X167166740Y-60908119D01*
X167166414Y-60905931D01*
X167166917Y-60900828D01*
X167166917Y-60400828D01*
X167166414Y-60395724D01*
X167166740Y-60393537D01*
X167165120Y-60382586D01*
X167164035Y-60371564D01*
X167163187Y-60369519D01*
X167162438Y-60364448D01*
X167091010Y-60078734D01*
X167081117Y-60051043D01*
X167074478Y-60042083D01*
X167070210Y-60031778D01*
X167055966Y-60014422D01*
X167441228Y-60014422D01*
X167441228Y-60072948D01*
X167463625Y-60127020D01*
X167505011Y-60168406D01*
X167559083Y-60190803D01*
X167617609Y-60190803D01*
X167671681Y-60168406D01*
X167694412Y-60149751D01*
X167740801Y-60103361D01*
X167898403Y-60050828D01*
X167992577Y-60050828D01*
X168150175Y-60103361D01*
X168250782Y-60203968D01*
X168303961Y-60310327D01*
X168366917Y-60562148D01*
X168366917Y-60739507D01*
X168303961Y-60991328D01*
X168250782Y-61097688D01*
X168150176Y-61198294D01*
X167992574Y-61250828D01*
X167898403Y-61250828D01*
X167740800Y-61198294D01*
X167694413Y-61151906D01*
X167671682Y-61133251D01*
X167617610Y-61110853D01*
X167559084Y-61110853D01*
X167505012Y-61133250D01*
X167463626Y-61174635D01*
X167441228Y-61228707D01*
X167441228Y-61287233D01*
X167463625Y-61341305D01*
X167482279Y-61364036D01*
X167553707Y-61435465D01*
X167576438Y-61454120D01*
X167581414Y-61456181D01*
X167585489Y-61459715D01*
X167612340Y-61471703D01*
X167826626Y-61543131D01*
X167841138Y-61546430D01*
X167844796Y-61547946D01*
X167850098Y-61548468D01*
X167855300Y-61549651D01*
X167859254Y-61549369D01*
X167874060Y-61550828D01*
X168016917Y-61550828D01*
X168031722Y-61549369D01*
X168035677Y-61549651D01*
X168040878Y-61548468D01*
X168046181Y-61547946D01*
X168049838Y-61546430D01*
X168064351Y-61543131D01*
X168278637Y-61471703D01*
X168305488Y-61459715D01*
X168309559Y-61456183D01*
X168314539Y-61454121D01*
X168337269Y-61435466D01*
X168480126Y-61292608D01*
X168489564Y-61281106D01*
X168492559Y-61278510D01*
X168495399Y-61273996D01*
X168498781Y-61269877D01*
X168500296Y-61266217D01*
X168508224Y-61253624D01*
X168579653Y-61110768D01*
X168580472Y-61108625D01*
X168581117Y-61107756D01*
X168585501Y-61095484D01*
X168590162Y-61083304D01*
X168590238Y-61082223D01*
X168591010Y-61080065D01*
X168662438Y-60794351D01*
X168663187Y-60789279D01*
X168664035Y-60787235D01*
X168665120Y-60776212D01*
X168666740Y-60765262D01*
X168666414Y-60763074D01*
X168666917Y-60757971D01*
X168666917Y-60543685D01*
X168666414Y-60538581D01*
X168666740Y-60536394D01*
X168665120Y-60525443D01*
X168664035Y-60514421D01*
X168663187Y-60512376D01*
X168662438Y-60507305D01*
X168591010Y-60221591D01*
X168590238Y-60219432D01*
X168590162Y-60218352D01*
X168585501Y-60206171D01*
X168581117Y-60193900D01*
X168580472Y-60193030D01*
X168579653Y-60190888D01*
X168508224Y-60048032D01*
X168500297Y-60035440D01*
X168498781Y-60031778D01*
X168495397Y-60027655D01*
X168492559Y-60023146D01*
X168489566Y-60020550D01*
X168480126Y-60009048D01*
X168337269Y-59866191D01*
X168314538Y-59847536D01*
X168309558Y-59845473D01*
X168305488Y-59841943D01*
X168278637Y-59829954D01*
X168064351Y-59758526D01*
X168049843Y-59755227D01*
X168046181Y-59753710D01*
X168040872Y-59753187D01*
X168035678Y-59752006D01*
X168031728Y-59752286D01*
X168016917Y-59750828D01*
X167874060Y-59750828D01*
X167859248Y-59752286D01*
X167855299Y-59752006D01*
X167850104Y-59753187D01*
X167844796Y-59753710D01*
X167841134Y-59755226D01*
X167826625Y-59758526D01*
X167612340Y-59829955D01*
X167585489Y-59841943D01*
X167581418Y-59845472D01*
X167576438Y-59847536D01*
X167553708Y-59866191D01*
X167482280Y-59937619D01*
X167463625Y-59960350D01*
X167441228Y-60014422D01*
X167055966Y-60014422D01*
X167051555Y-60009048D01*
X166908698Y-59866191D01*
X166897196Y-59856751D01*
X166894600Y-59853758D01*
X166890086Y-59850917D01*
X166885967Y-59847536D01*
X166882307Y-59846020D01*
X166869714Y-59838093D01*
X166726856Y-59766664D01*
X166699393Y-59756154D01*
X166694015Y-59755771D01*
X166689038Y-59753710D01*
X166659774Y-59750828D01*
X166374060Y-59750828D01*
X166344796Y-59753710D01*
X166339815Y-59755773D01*
X166334441Y-59756155D01*
X166306977Y-59766664D01*
X166164121Y-59838093D01*
X166151529Y-59846019D01*
X166147867Y-59847536D01*
X166143744Y-59850919D01*
X166139235Y-59853758D01*
X166136639Y-59856750D01*
X166125137Y-59866191D01*
X165982280Y-60009048D01*
X165963625Y-60031779D01*
X165959357Y-60042082D01*
X165952718Y-60051043D01*
X165942825Y-60078734D01*
X165871396Y-60364447D01*
X165870645Y-60369519D01*
X165869799Y-60371564D01*
X165868713Y-60382585D01*
X165867094Y-60393537D01*
X165867419Y-60395724D01*
X165866917Y-60400828D01*
X165524060Y-60400828D01*
X165524060Y-59900828D01*
X165523318Y-59893301D01*
X165523694Y-59890350D01*
X165522651Y-59886528D01*
X165521178Y-59871564D01*
X165513542Y-59853131D01*
X165508294Y-59833887D01*
X165502439Y-59826327D01*
X165498780Y-59817492D01*
X165484672Y-59803384D01*
X165472459Y-59787613D01*
X165464156Y-59782868D01*
X165457396Y-59776108D01*
X165438965Y-59768473D01*
X165421643Y-59758575D01*
X165412157Y-59757369D01*
X165403324Y-59753710D01*
X165383374Y-59753710D01*
X165363583Y-59751194D01*
X165354358Y-59753710D01*
X165344796Y-59753710D01*
X165326367Y-59761343D01*
X165307119Y-59766593D01*
X165299557Y-59772449D01*
X165290724Y-59776108D01*
X165276618Y-59790213D01*
X165260845Y-59802429D01*
X165252139Y-59814692D01*
X165249340Y-59817492D01*
X165248201Y-59820239D01*
X165243824Y-59826407D01*
X164666917Y-60835994D01*
X164666917Y-59900828D01*
X164664035Y-59871564D01*
X164641637Y-59817492D01*
X164600253Y-59776108D01*
X164546181Y-59753710D01*
X164487653Y-59753710D01*
X164433581Y-59776108D01*
X164392197Y-59817492D01*
X164369799Y-59871564D01*
X164366917Y-59900828D01*
X164164405Y-59900828D01*
X164161589Y-59861208D01*
X164135415Y-59808861D01*
X164091201Y-59770514D01*
X164035677Y-59752005D01*
X163977297Y-59756155D01*
X163924949Y-59782328D01*
X163886602Y-59826543D01*
X163874614Y-59853394D01*
X163516916Y-60926486D01*
X163159218Y-59853394D01*
X163147230Y-59826543D01*
X163108883Y-59782329D01*
X163056536Y-59756155D01*
X162998155Y-59752006D01*
X162942631Y-59770514D01*
X162898417Y-59808861D01*
X162872243Y-59861208D01*
X162868094Y-59919589D01*
X162666917Y-59919589D01*
X162666917Y-59900828D01*
X162664035Y-59871564D01*
X162641637Y-59817492D01*
X162600253Y-59776108D01*
X162546181Y-59753710D01*
X162516917Y-59750828D01*
X161802631Y-59750828D01*
X161773367Y-59753710D01*
X161719295Y-59776108D01*
X161677911Y-59817492D01*
X161655513Y-59871564D01*
X161306892Y-59871564D01*
X161284494Y-59817492D01*
X161243110Y-59776108D01*
X161189038Y-59753710D01*
X161159774Y-59750828D01*
X160588345Y-59750828D01*
X160559081Y-59753710D01*
X160554100Y-59755773D01*
X160548726Y-59756155D01*
X160521262Y-59766664D01*
X160378406Y-59838093D01*
X160365812Y-59846020D01*
X160362153Y-59847536D01*
X160358032Y-59850917D01*
X160353520Y-59853758D01*
X160350923Y-59856751D01*
X160339423Y-59866190D01*
X160267994Y-59937618D01*
X160258554Y-59949120D01*
X160255560Y-59951717D01*
X160252718Y-59956231D01*
X160249339Y-59960349D01*
X160247823Y-59964007D01*
X160239895Y-59976603D01*
X160168467Y-60119460D01*
X160157957Y-60146924D01*
X160157575Y-60152299D01*
X160155513Y-60157278D01*
X160152631Y-60186542D01*
X159595488Y-60186542D01*
X159595488Y-60050828D01*
X159874059Y-60050828D01*
X159903323Y-60047946D01*
X159957395Y-60025548D01*
X159998779Y-59984164D01*
X160021177Y-59930092D01*
X160021177Y-59871564D01*
X159998779Y-59817492D01*
X159957395Y-59776108D01*
X159903323Y-59753710D01*
X159874059Y-59750828D01*
X159016917Y-59750828D01*
X158987653Y-59753710D01*
X158933581Y-59776108D01*
X158892197Y-59817492D01*
X158869799Y-59871564D01*
X158664035Y-59871564D01*
X158641637Y-59817492D01*
X158600253Y-59776108D01*
X158546181Y-59753710D01*
X158516917Y-59750828D01*
X157802631Y-59750828D01*
X157773367Y-59753710D01*
X157719295Y-59776108D01*
X157677911Y-59817492D01*
X157655513Y-59871564D01*
X157306892Y-59871564D01*
X157284494Y-59817492D01*
X157243110Y-59776108D01*
X157189038Y-59753710D01*
X157159774Y-59750828D01*
X156588345Y-59750828D01*
X156559081Y-59753710D01*
X156554100Y-59755773D01*
X156548726Y-59756155D01*
X156521262Y-59766664D01*
X156378406Y-59838093D01*
X156365812Y-59846020D01*
X156362153Y-59847536D01*
X156358032Y-59850917D01*
X156353520Y-59853758D01*
X156350923Y-59856751D01*
X156339423Y-59866190D01*
X156267994Y-59937618D01*
X156258554Y-59949120D01*
X156255560Y-59951717D01*
X156252718Y-59956231D01*
X156249339Y-59960349D01*
X156247823Y-59964007D01*
X156239895Y-59976603D01*
X156168467Y-60119460D01*
X156157957Y-60146924D01*
X156157575Y-60152299D01*
X156155513Y-60157278D01*
X156152631Y-60186542D01*
X155985964Y-60186542D01*
X155985964Y-59584161D01*
X168833584Y-59584161D01*
X168833584Y-61717495D01*
G37*
D11*
X179600000Y-105350000D02*
X143400000Y-105400000D01*
X143400000Y-105400000D02*
X141600000Y-105400000D01*
D12*
X167571507Y-77384548D02*
X167571507Y-77902987D01*
X167571507Y-77902987D02*
X167602003Y-77963980D01*
X167602003Y-77963980D02*
X167632500Y-77994477D01*
X167632500Y-77994477D02*
X167693492Y-78024973D01*
X167693492Y-78024973D02*
X167815478Y-78024973D01*
X167815478Y-78024973D02*
X167876471Y-77994477D01*
X167876471Y-77994477D02*
X167906967Y-77963980D01*
X167906967Y-77963980D02*
X167937464Y-77902987D01*
X167937464Y-77902987D02*
X167937464Y-77384548D01*
X168577888Y-78024973D02*
X168211931Y-78024973D01*
X168394910Y-78024973D02*
X168394910Y-77384548D01*
X168394910Y-77384548D02*
X168333917Y-77476037D01*
X168333917Y-77476037D02*
X168272924Y-77537030D01*
X168272924Y-77537030D02*
X168211931Y-77567527D01*
X152438095Y-63654819D02*
X152438095Y-64464342D01*
X152438095Y-64464342D02*
X152485714Y-64559580D01*
X152485714Y-64559580D02*
X152533333Y-64607200D01*
X152533333Y-64607200D02*
X152628571Y-64654819D01*
X152628571Y-64654819D02*
X152819047Y-64654819D01*
X152819047Y-64654819D02*
X152914285Y-64607200D01*
X152914285Y-64607200D02*
X152961904Y-64559580D01*
X152961904Y-64559580D02*
X153009523Y-64464342D01*
X153009523Y-64464342D02*
X153009523Y-63654819D01*
X153390476Y-63654819D02*
X154009523Y-63654819D01*
X154009523Y-63654819D02*
X153676190Y-64035771D01*
X153676190Y-64035771D02*
X153819047Y-64035771D01*
X153819047Y-64035771D02*
X153914285Y-64083390D01*
X153914285Y-64083390D02*
X153961904Y-64131009D01*
X153961904Y-64131009D02*
X154009523Y-64226247D01*
X154009523Y-64226247D02*
X154009523Y-64464342D01*
X154009523Y-64464342D02*
X153961904Y-64559580D01*
X153961904Y-64559580D02*
X153914285Y-64607200D01*
X153914285Y-64607200D02*
X153819047Y-64654819D01*
X153819047Y-64654819D02*
X153533333Y-64654819D01*
X153533333Y-64654819D02*
X153438095Y-64607200D01*
X153438095Y-64607200D02*
X153390476Y-64559580D01*
X147438095Y-92454819D02*
X147438095Y-93264342D01*
X147438095Y-93264342D02*
X147485714Y-93359580D01*
X147485714Y-93359580D02*
X147533333Y-93407200D01*
X147533333Y-93407200D02*
X147628571Y-93454819D01*
X147628571Y-93454819D02*
X147819047Y-93454819D01*
X147819047Y-93454819D02*
X147914285Y-93407200D01*
X147914285Y-93407200D02*
X147961904Y-93359580D01*
X147961904Y-93359580D02*
X148009523Y-93264342D01*
X148009523Y-93264342D02*
X148009523Y-92454819D01*
X148438095Y-92550057D02*
X148485714Y-92502438D01*
X148485714Y-92502438D02*
X148580952Y-92454819D01*
X148580952Y-92454819D02*
X148819047Y-92454819D01*
X148819047Y-92454819D02*
X148914285Y-92502438D01*
X148914285Y-92502438D02*
X148961904Y-92550057D01*
X148961904Y-92550057D02*
X149009523Y-92645295D01*
X149009523Y-92645295D02*
X149009523Y-92740533D01*
X149009523Y-92740533D02*
X148961904Y-92883390D01*
X148961904Y-92883390D02*
X148390476Y-93454819D01*
X148390476Y-93454819D02*
X149009523Y-93454819D01*
X169054819Y-76255357D02*
X168578628Y-76588690D01*
X169054819Y-76826785D02*
X168054819Y-76826785D01*
X168054819Y-76826785D02*
X168054819Y-76445833D01*
X168054819Y-76445833D02*
X168102438Y-76350595D01*
X168102438Y-76350595D02*
X168150057Y-76302976D01*
X168150057Y-76302976D02*
X168245295Y-76255357D01*
X168245295Y-76255357D02*
X168388152Y-76255357D01*
X168388152Y-76255357D02*
X168483390Y-76302976D01*
X168483390Y-76302976D02*
X168531009Y-76350595D01*
X168531009Y-76350595D02*
X168578628Y-76445833D01*
X168578628Y-76445833D02*
X168578628Y-76826785D01*
X169054819Y-75302976D02*
X169054819Y-75874404D01*
X169054819Y-75588690D02*
X168054819Y-75588690D01*
X168054819Y-75588690D02*
X168197676Y-75683928D01*
X168197676Y-75683928D02*
X168292914Y-75779166D01*
X168292914Y-75779166D02*
X168340533Y-75874404D01*
X169054819Y-74350595D02*
X169054819Y-74922023D01*
X169054819Y-74636309D02*
X168054819Y-74636309D01*
X168054819Y-74636309D02*
X168197676Y-74731547D01*
X168197676Y-74731547D02*
X168292914Y-74826785D01*
X168292914Y-74826785D02*
X168340533Y-74922023D01*
X161454819Y-68042857D02*
X160978628Y-68376190D01*
X161454819Y-68614285D02*
X160454819Y-68614285D01*
X160454819Y-68614285D02*
X160454819Y-68233333D01*
X160454819Y-68233333D02*
X160502438Y-68138095D01*
X160502438Y-68138095D02*
X160550057Y-68090476D01*
X160550057Y-68090476D02*
X160645295Y-68042857D01*
X160645295Y-68042857D02*
X160788152Y-68042857D01*
X160788152Y-68042857D02*
X160883390Y-68090476D01*
X160883390Y-68090476D02*
X160931009Y-68138095D01*
X160931009Y-68138095D02*
X160978628Y-68233333D01*
X160978628Y-68233333D02*
X160978628Y-68614285D01*
X161454819Y-67090476D02*
X161454819Y-67661904D01*
X161454819Y-67376190D02*
X160454819Y-67376190D01*
X160454819Y-67376190D02*
X160597676Y-67471428D01*
X160597676Y-67471428D02*
X160692914Y-67566666D01*
X160692914Y-67566666D02*
X160740533Y-67661904D01*
X160454819Y-66471428D02*
X160454819Y-66376190D01*
X160454819Y-66376190D02*
X160502438Y-66280952D01*
X160502438Y-66280952D02*
X160550057Y-66233333D01*
X160550057Y-66233333D02*
X160645295Y-66185714D01*
X160645295Y-66185714D02*
X160835771Y-66138095D01*
X160835771Y-66138095D02*
X161073866Y-66138095D01*
X161073866Y-66138095D02*
X161264342Y-66185714D01*
X161264342Y-66185714D02*
X161359580Y-66233333D01*
X161359580Y-66233333D02*
X161407200Y-66280952D01*
X161407200Y-66280952D02*
X161454819Y-66376190D01*
X161454819Y-66376190D02*
X161454819Y-66471428D01*
X161454819Y-66471428D02*
X161407200Y-66566666D01*
X161407200Y-66566666D02*
X161359580Y-66614285D01*
X161359580Y-66614285D02*
X161264342Y-66661904D01*
X161264342Y-66661904D02*
X161073866Y-66709523D01*
X161073866Y-66709523D02*
X160835771Y-66709523D01*
X160835771Y-66709523D02*
X160645295Y-66661904D01*
X160645295Y-66661904D02*
X160550057Y-66614285D01*
X160550057Y-66614285D02*
X160502438Y-66566666D01*
X160502438Y-66566666D02*
X160454819Y-66471428D01*
X151633333Y-89654819D02*
X151300000Y-89178628D01*
X151061905Y-89654819D02*
X151061905Y-88654819D01*
X151061905Y-88654819D02*
X151442857Y-88654819D01*
X151442857Y-88654819D02*
X151538095Y-88702438D01*
X151538095Y-88702438D02*
X151585714Y-88750057D01*
X151585714Y-88750057D02*
X151633333Y-88845295D01*
X151633333Y-88845295D02*
X151633333Y-88988152D01*
X151633333Y-88988152D02*
X151585714Y-89083390D01*
X151585714Y-89083390D02*
X151538095Y-89131009D01*
X151538095Y-89131009D02*
X151442857Y-89178628D01*
X151442857Y-89178628D02*
X151061905Y-89178628D01*
X152109524Y-89654819D02*
X152300000Y-89654819D01*
X152300000Y-89654819D02*
X152395238Y-89607200D01*
X152395238Y-89607200D02*
X152442857Y-89559580D01*
X152442857Y-89559580D02*
X152538095Y-89416723D01*
X152538095Y-89416723D02*
X152585714Y-89226247D01*
X152585714Y-89226247D02*
X152585714Y-88845295D01*
X152585714Y-88845295D02*
X152538095Y-88750057D01*
X152538095Y-88750057D02*
X152490476Y-88702438D01*
X152490476Y-88702438D02*
X152395238Y-88654819D01*
X152395238Y-88654819D02*
X152204762Y-88654819D01*
X152204762Y-88654819D02*
X152109524Y-88702438D01*
X152109524Y-88702438D02*
X152061905Y-88750057D01*
X152061905Y-88750057D02*
X152014286Y-88845295D01*
X152014286Y-88845295D02*
X152014286Y-89083390D01*
X152014286Y-89083390D02*
X152061905Y-89178628D01*
X152061905Y-89178628D02*
X152109524Y-89226247D01*
X152109524Y-89226247D02*
X152204762Y-89273866D01*
X152204762Y-89273866D02*
X152395238Y-89273866D01*
X152395238Y-89273866D02*
X152490476Y-89226247D01*
X152490476Y-89226247D02*
X152538095Y-89178628D01*
X152538095Y-89178628D02*
X152585714Y-89083390D01*
X155833333Y-89654819D02*
X155500000Y-89178628D01*
X155261905Y-89654819D02*
X155261905Y-88654819D01*
X155261905Y-88654819D02*
X155642857Y-88654819D01*
X155642857Y-88654819D02*
X155738095Y-88702438D01*
X155738095Y-88702438D02*
X155785714Y-88750057D01*
X155785714Y-88750057D02*
X155833333Y-88845295D01*
X155833333Y-88845295D02*
X155833333Y-88988152D01*
X155833333Y-88988152D02*
X155785714Y-89083390D01*
X155785714Y-89083390D02*
X155738095Y-89131009D01*
X155738095Y-89131009D02*
X155642857Y-89178628D01*
X155642857Y-89178628D02*
X155261905Y-89178628D01*
X156404762Y-89083390D02*
X156309524Y-89035771D01*
X156309524Y-89035771D02*
X156261905Y-88988152D01*
X156261905Y-88988152D02*
X156214286Y-88892914D01*
X156214286Y-88892914D02*
X156214286Y-88845295D01*
X156214286Y-88845295D02*
X156261905Y-88750057D01*
X156261905Y-88750057D02*
X156309524Y-88702438D01*
X156309524Y-88702438D02*
X156404762Y-88654819D01*
X156404762Y-88654819D02*
X156595238Y-88654819D01*
X156595238Y-88654819D02*
X156690476Y-88702438D01*
X156690476Y-88702438D02*
X156738095Y-88750057D01*
X156738095Y-88750057D02*
X156785714Y-88845295D01*
X156785714Y-88845295D02*
X156785714Y-88892914D01*
X156785714Y-88892914D02*
X156738095Y-88988152D01*
X156738095Y-88988152D02*
X156690476Y-89035771D01*
X156690476Y-89035771D02*
X156595238Y-89083390D01*
X156595238Y-89083390D02*
X156404762Y-89083390D01*
X156404762Y-89083390D02*
X156309524Y-89131009D01*
X156309524Y-89131009D02*
X156261905Y-89178628D01*
X156261905Y-89178628D02*
X156214286Y-89273866D01*
X156214286Y-89273866D02*
X156214286Y-89464342D01*
X156214286Y-89464342D02*
X156261905Y-89559580D01*
X156261905Y-89559580D02*
X156309524Y-89607200D01*
X156309524Y-89607200D02*
X156404762Y-89654819D01*
X156404762Y-89654819D02*
X156595238Y-89654819D01*
X156595238Y-89654819D02*
X156690476Y-89607200D01*
X156690476Y-89607200D02*
X156738095Y-89559580D01*
X156738095Y-89559580D02*
X156785714Y-89464342D01*
X156785714Y-89464342D02*
X156785714Y-89273866D01*
X156785714Y-89273866D02*
X156738095Y-89178628D01*
X156738095Y-89178628D02*
X156690476Y-89131009D01*
X156690476Y-89131009D02*
X156595238Y-89083390D01*
X146633333Y-73304819D02*
X146300000Y-72828628D01*
X146061905Y-73304819D02*
X146061905Y-72304819D01*
X146061905Y-72304819D02*
X146442857Y-72304819D01*
X146442857Y-72304819D02*
X146538095Y-72352438D01*
X146538095Y-72352438D02*
X146585714Y-72400057D01*
X146585714Y-72400057D02*
X146633333Y-72495295D01*
X146633333Y-72495295D02*
X146633333Y-72638152D01*
X146633333Y-72638152D02*
X146585714Y-72733390D01*
X146585714Y-72733390D02*
X146538095Y-72781009D01*
X146538095Y-72781009D02*
X146442857Y-72828628D01*
X146442857Y-72828628D02*
X146061905Y-72828628D01*
X146966667Y-72304819D02*
X147633333Y-72304819D01*
X147633333Y-72304819D02*
X147204762Y-73304819D01*
X146233333Y-70854819D02*
X145900000Y-70378628D01*
X145661905Y-70854819D02*
X145661905Y-69854819D01*
X145661905Y-69854819D02*
X146042857Y-69854819D01*
X146042857Y-69854819D02*
X146138095Y-69902438D01*
X146138095Y-69902438D02*
X146185714Y-69950057D01*
X146185714Y-69950057D02*
X146233333Y-70045295D01*
X146233333Y-70045295D02*
X146233333Y-70188152D01*
X146233333Y-70188152D02*
X146185714Y-70283390D01*
X146185714Y-70283390D02*
X146138095Y-70331009D01*
X146138095Y-70331009D02*
X146042857Y-70378628D01*
X146042857Y-70378628D02*
X145661905Y-70378628D01*
X147090476Y-69854819D02*
X146900000Y-69854819D01*
X146900000Y-69854819D02*
X146804762Y-69902438D01*
X146804762Y-69902438D02*
X146757143Y-69950057D01*
X146757143Y-69950057D02*
X146661905Y-70092914D01*
X146661905Y-70092914D02*
X146614286Y-70283390D01*
X146614286Y-70283390D02*
X146614286Y-70664342D01*
X146614286Y-70664342D02*
X146661905Y-70759580D01*
X146661905Y-70759580D02*
X146709524Y-70807200D01*
X146709524Y-70807200D02*
X146804762Y-70854819D01*
X146804762Y-70854819D02*
X146995238Y-70854819D01*
X146995238Y-70854819D02*
X147090476Y-70807200D01*
X147090476Y-70807200D02*
X147138095Y-70759580D01*
X147138095Y-70759580D02*
X147185714Y-70664342D01*
X147185714Y-70664342D02*
X147185714Y-70426247D01*
X147185714Y-70426247D02*
X147138095Y-70331009D01*
X147138095Y-70331009D02*
X147090476Y-70283390D01*
X147090476Y-70283390D02*
X146995238Y-70235771D01*
X146995238Y-70235771D02*
X146804762Y-70235771D01*
X146804762Y-70235771D02*
X146709524Y-70283390D01*
X146709524Y-70283390D02*
X146661905Y-70331009D01*
X146661905Y-70331009D02*
X146614286Y-70426247D01*
X178833333Y-83854819D02*
X178500000Y-83378628D01*
X178261905Y-83854819D02*
X178261905Y-82854819D01*
X178261905Y-82854819D02*
X178642857Y-82854819D01*
X178642857Y-82854819D02*
X178738095Y-82902438D01*
X178738095Y-82902438D02*
X178785714Y-82950057D01*
X178785714Y-82950057D02*
X178833333Y-83045295D01*
X178833333Y-83045295D02*
X178833333Y-83188152D01*
X178833333Y-83188152D02*
X178785714Y-83283390D01*
X178785714Y-83283390D02*
X178738095Y-83331009D01*
X178738095Y-83331009D02*
X178642857Y-83378628D01*
X178642857Y-83378628D02*
X178261905Y-83378628D01*
X179738095Y-82854819D02*
X179261905Y-82854819D01*
X179261905Y-82854819D02*
X179214286Y-83331009D01*
X179214286Y-83331009D02*
X179261905Y-83283390D01*
X179261905Y-83283390D02*
X179357143Y-83235771D01*
X179357143Y-83235771D02*
X179595238Y-83235771D01*
X179595238Y-83235771D02*
X179690476Y-83283390D01*
X179690476Y-83283390D02*
X179738095Y-83331009D01*
X179738095Y-83331009D02*
X179785714Y-83426247D01*
X179785714Y-83426247D02*
X179785714Y-83664342D01*
X179785714Y-83664342D02*
X179738095Y-83759580D01*
X179738095Y-83759580D02*
X179690476Y-83807200D01*
X179690476Y-83807200D02*
X179595238Y-83854819D01*
X179595238Y-83854819D02*
X179357143Y-83854819D01*
X179357143Y-83854819D02*
X179261905Y-83807200D01*
X179261905Y-83807200D02*
X179214286Y-83759580D01*
X178908333Y-82454819D02*
X178575000Y-81978628D01*
X178336905Y-82454819D02*
X178336905Y-81454819D01*
X178336905Y-81454819D02*
X178717857Y-81454819D01*
X178717857Y-81454819D02*
X178813095Y-81502438D01*
X178813095Y-81502438D02*
X178860714Y-81550057D01*
X178860714Y-81550057D02*
X178908333Y-81645295D01*
X178908333Y-81645295D02*
X178908333Y-81788152D01*
X178908333Y-81788152D02*
X178860714Y-81883390D01*
X178860714Y-81883390D02*
X178813095Y-81931009D01*
X178813095Y-81931009D02*
X178717857Y-81978628D01*
X178717857Y-81978628D02*
X178336905Y-81978628D01*
X179765476Y-81788152D02*
X179765476Y-82454819D01*
X179527381Y-81407200D02*
X179289286Y-82121485D01*
X179289286Y-82121485D02*
X179908333Y-82121485D01*
X163595833Y-82254819D02*
X163262500Y-81778628D01*
X163024405Y-82254819D02*
X163024405Y-81254819D01*
X163024405Y-81254819D02*
X163405357Y-81254819D01*
X163405357Y-81254819D02*
X163500595Y-81302438D01*
X163500595Y-81302438D02*
X163548214Y-81350057D01*
X163548214Y-81350057D02*
X163595833Y-81445295D01*
X163595833Y-81445295D02*
X163595833Y-81588152D01*
X163595833Y-81588152D02*
X163548214Y-81683390D01*
X163548214Y-81683390D02*
X163500595Y-81731009D01*
X163500595Y-81731009D02*
X163405357Y-81778628D01*
X163405357Y-81778628D02*
X163024405Y-81778628D01*
X163929167Y-81254819D02*
X164548214Y-81254819D01*
X164548214Y-81254819D02*
X164214881Y-81635771D01*
X164214881Y-81635771D02*
X164357738Y-81635771D01*
X164357738Y-81635771D02*
X164452976Y-81683390D01*
X164452976Y-81683390D02*
X164500595Y-81731009D01*
X164500595Y-81731009D02*
X164548214Y-81826247D01*
X164548214Y-81826247D02*
X164548214Y-82064342D01*
X164548214Y-82064342D02*
X164500595Y-82159580D01*
X164500595Y-82159580D02*
X164452976Y-82207200D01*
X164452976Y-82207200D02*
X164357738Y-82254819D01*
X164357738Y-82254819D02*
X164072024Y-82254819D01*
X164072024Y-82254819D02*
X163976786Y-82207200D01*
X163976786Y-82207200D02*
X163929167Y-82159580D01*
X163595833Y-78054819D02*
X163262500Y-77578628D01*
X163024405Y-78054819D02*
X163024405Y-77054819D01*
X163024405Y-77054819D02*
X163405357Y-77054819D01*
X163405357Y-77054819D02*
X163500595Y-77102438D01*
X163500595Y-77102438D02*
X163548214Y-77150057D01*
X163548214Y-77150057D02*
X163595833Y-77245295D01*
X163595833Y-77245295D02*
X163595833Y-77388152D01*
X163595833Y-77388152D02*
X163548214Y-77483390D01*
X163548214Y-77483390D02*
X163500595Y-77531009D01*
X163500595Y-77531009D02*
X163405357Y-77578628D01*
X163405357Y-77578628D02*
X163024405Y-77578628D01*
X163976786Y-77150057D02*
X164024405Y-77102438D01*
X164024405Y-77102438D02*
X164119643Y-77054819D01*
X164119643Y-77054819D02*
X164357738Y-77054819D01*
X164357738Y-77054819D02*
X164452976Y-77102438D01*
X164452976Y-77102438D02*
X164500595Y-77150057D01*
X164500595Y-77150057D02*
X164548214Y-77245295D01*
X164548214Y-77245295D02*
X164548214Y-77340533D01*
X164548214Y-77340533D02*
X164500595Y-77483390D01*
X164500595Y-77483390D02*
X163929167Y-78054819D01*
X163929167Y-78054819D02*
X164548214Y-78054819D01*
X163595833Y-80054819D02*
X163262500Y-79578628D01*
X163024405Y-80054819D02*
X163024405Y-79054819D01*
X163024405Y-79054819D02*
X163405357Y-79054819D01*
X163405357Y-79054819D02*
X163500595Y-79102438D01*
X163500595Y-79102438D02*
X163548214Y-79150057D01*
X163548214Y-79150057D02*
X163595833Y-79245295D01*
X163595833Y-79245295D02*
X163595833Y-79388152D01*
X163595833Y-79388152D02*
X163548214Y-79483390D01*
X163548214Y-79483390D02*
X163500595Y-79531009D01*
X163500595Y-79531009D02*
X163405357Y-79578628D01*
X163405357Y-79578628D02*
X163024405Y-79578628D01*
X164548214Y-80054819D02*
X163976786Y-80054819D01*
X164262500Y-80054819D02*
X164262500Y-79054819D01*
X164262500Y-79054819D02*
X164167262Y-79197676D01*
X164167262Y-79197676D02*
X164072024Y-79292914D01*
X164072024Y-79292914D02*
X163976786Y-79340533D01*
X166633333Y-98054819D02*
X166157143Y-98054819D01*
X166157143Y-98054819D02*
X166157143Y-97054819D01*
X167490476Y-98054819D02*
X166919048Y-98054819D01*
X167204762Y-98054819D02*
X167204762Y-97054819D01*
X167204762Y-97054819D02*
X167109524Y-97197676D01*
X167109524Y-97197676D02*
X167014286Y-97292914D01*
X167014286Y-97292914D02*
X166919048Y-97340533D01*
X181266666Y-79454819D02*
X181266666Y-80169104D01*
X181266666Y-80169104D02*
X181219047Y-80311961D01*
X181219047Y-80311961D02*
X181123809Y-80407200D01*
X181123809Y-80407200D02*
X180980952Y-80454819D01*
X180980952Y-80454819D02*
X180885714Y-80454819D01*
X181790476Y-80454819D02*
X181980952Y-80454819D01*
X181980952Y-80454819D02*
X182076190Y-80407200D01*
X182076190Y-80407200D02*
X182123809Y-80359580D01*
X182123809Y-80359580D02*
X182219047Y-80216723D01*
X182219047Y-80216723D02*
X182266666Y-80026247D01*
X182266666Y-80026247D02*
X182266666Y-79645295D01*
X182266666Y-79645295D02*
X182219047Y-79550057D01*
X182219047Y-79550057D02*
X182171428Y-79502438D01*
X182171428Y-79502438D02*
X182076190Y-79454819D01*
X182076190Y-79454819D02*
X181885714Y-79454819D01*
X181885714Y-79454819D02*
X181790476Y-79502438D01*
X181790476Y-79502438D02*
X181742857Y-79550057D01*
X181742857Y-79550057D02*
X181695238Y-79645295D01*
X181695238Y-79645295D02*
X181695238Y-79883390D01*
X181695238Y-79883390D02*
X181742857Y-79978628D01*
X181742857Y-79978628D02*
X181790476Y-80026247D01*
X181790476Y-80026247D02*
X181885714Y-80073866D01*
X181885714Y-80073866D02*
X182076190Y-80073866D01*
X182076190Y-80073866D02*
X182171428Y-80026247D01*
X182171428Y-80026247D02*
X182219047Y-79978628D01*
X182219047Y-79978628D02*
X182266666Y-79883390D01*
X144249819Y-57933333D02*
X144964104Y-57933333D01*
X144964104Y-57933333D02*
X145106961Y-57980952D01*
X145106961Y-57980952D02*
X145202200Y-58076190D01*
X145202200Y-58076190D02*
X145249819Y-58219047D01*
X145249819Y-58219047D02*
X145249819Y-58314285D01*
X144678390Y-57314285D02*
X144630771Y-57409523D01*
X144630771Y-57409523D02*
X144583152Y-57457142D01*
X144583152Y-57457142D02*
X144487914Y-57504761D01*
X144487914Y-57504761D02*
X144440295Y-57504761D01*
X144440295Y-57504761D02*
X144345057Y-57457142D01*
X144345057Y-57457142D02*
X144297438Y-57409523D01*
X144297438Y-57409523D02*
X144249819Y-57314285D01*
X144249819Y-57314285D02*
X144249819Y-57123809D01*
X144249819Y-57123809D02*
X144297438Y-57028571D01*
X144297438Y-57028571D02*
X144345057Y-56980952D01*
X144345057Y-56980952D02*
X144440295Y-56933333D01*
X144440295Y-56933333D02*
X144487914Y-56933333D01*
X144487914Y-56933333D02*
X144583152Y-56980952D01*
X144583152Y-56980952D02*
X144630771Y-57028571D01*
X144630771Y-57028571D02*
X144678390Y-57123809D01*
X144678390Y-57123809D02*
X144678390Y-57314285D01*
X144678390Y-57314285D02*
X144726009Y-57409523D01*
X144726009Y-57409523D02*
X144773628Y-57457142D01*
X144773628Y-57457142D02*
X144868866Y-57504761D01*
X144868866Y-57504761D02*
X145059342Y-57504761D01*
X145059342Y-57504761D02*
X145154580Y-57457142D01*
X145154580Y-57457142D02*
X145202200Y-57409523D01*
X145202200Y-57409523D02*
X145249819Y-57314285D01*
X145249819Y-57314285D02*
X145249819Y-57123809D01*
X145249819Y-57123809D02*
X145202200Y-57028571D01*
X145202200Y-57028571D02*
X145154580Y-56980952D01*
X145154580Y-56980952D02*
X145059342Y-56933333D01*
X145059342Y-56933333D02*
X144868866Y-56933333D01*
X144868866Y-56933333D02*
X144773628Y-56980952D01*
X144773628Y-56980952D02*
X144726009Y-57028571D01*
X144726009Y-57028571D02*
X144678390Y-57123809D01*
X151644819Y-57933333D02*
X152359104Y-57933333D01*
X152359104Y-57933333D02*
X152501961Y-57980952D01*
X152501961Y-57980952D02*
X152597200Y-58076190D01*
X152597200Y-58076190D02*
X152644819Y-58219047D01*
X152644819Y-58219047D02*
X152644819Y-58314285D01*
X151644819Y-57552380D02*
X151644819Y-56885714D01*
X151644819Y-56885714D02*
X152644819Y-57314285D01*
X140609819Y-81633333D02*
X141324104Y-81633333D01*
X141324104Y-81633333D02*
X141466961Y-81680952D01*
X141466961Y-81680952D02*
X141562200Y-81776190D01*
X141562200Y-81776190D02*
X141609819Y-81919047D01*
X141609819Y-81919047D02*
X141609819Y-82014285D01*
X140609819Y-80728571D02*
X140609819Y-80919047D01*
X140609819Y-80919047D02*
X140657438Y-81014285D01*
X140657438Y-81014285D02*
X140705057Y-81061904D01*
X140705057Y-81061904D02*
X140847914Y-81157142D01*
X140847914Y-81157142D02*
X141038390Y-81204761D01*
X141038390Y-81204761D02*
X141419342Y-81204761D01*
X141419342Y-81204761D02*
X141514580Y-81157142D01*
X141514580Y-81157142D02*
X141562200Y-81109523D01*
X141562200Y-81109523D02*
X141609819Y-81014285D01*
X141609819Y-81014285D02*
X141609819Y-80823809D01*
X141609819Y-80823809D02*
X141562200Y-80728571D01*
X141562200Y-80728571D02*
X141514580Y-80680952D01*
X141514580Y-80680952D02*
X141419342Y-80633333D01*
X141419342Y-80633333D02*
X141181247Y-80633333D01*
X141181247Y-80633333D02*
X141086009Y-80680952D01*
X141086009Y-80680952D02*
X141038390Y-80728571D01*
X141038390Y-80728571D02*
X140990771Y-80823809D01*
X140990771Y-80823809D02*
X140990771Y-81014285D01*
X140990771Y-81014285D02*
X141038390Y-81109523D01*
X141038390Y-81109523D02*
X141086009Y-81157142D01*
X141086009Y-81157142D02*
X141181247Y-81204761D01*
X144954819Y-94933333D02*
X145669104Y-94933333D01*
X145669104Y-94933333D02*
X145811961Y-94980952D01*
X145811961Y-94980952D02*
X145907200Y-95076190D01*
X145907200Y-95076190D02*
X145954819Y-95219047D01*
X145954819Y-95219047D02*
X145954819Y-95314285D01*
X145288152Y-94028571D02*
X145954819Y-94028571D01*
X144907200Y-94266666D02*
X145621485Y-94504761D01*
X145621485Y-94504761D02*
X145621485Y-93885714D01*
X183154819Y-94733333D02*
X183869104Y-94733333D01*
X183869104Y-94733333D02*
X184011961Y-94780952D01*
X184011961Y-94780952D02*
X184107200Y-94876190D01*
X184107200Y-94876190D02*
X184154819Y-95019047D01*
X184154819Y-95019047D02*
X184154819Y-95114285D01*
X183154819Y-94352380D02*
X183154819Y-93733333D01*
X183154819Y-93733333D02*
X183535771Y-94066666D01*
X183535771Y-94066666D02*
X183535771Y-93923809D01*
X183535771Y-93923809D02*
X183583390Y-93828571D01*
X183583390Y-93828571D02*
X183631009Y-93780952D01*
X183631009Y-93780952D02*
X183726247Y-93733333D01*
X183726247Y-93733333D02*
X183964342Y-93733333D01*
X183964342Y-93733333D02*
X184059580Y-93780952D01*
X184059580Y-93780952D02*
X184107200Y-93828571D01*
X184107200Y-93828571D02*
X184154819Y-93923809D01*
X184154819Y-93923809D02*
X184154819Y-94209523D01*
X184154819Y-94209523D02*
X184107200Y-94304761D01*
X184107200Y-94304761D02*
X184059580Y-94352380D01*
X183454819Y-73133333D02*
X184169104Y-73133333D01*
X184169104Y-73133333D02*
X184311961Y-73180952D01*
X184311961Y-73180952D02*
X184407200Y-73276190D01*
X184407200Y-73276190D02*
X184454819Y-73419047D01*
X184454819Y-73419047D02*
X184454819Y-73514285D01*
X183550057Y-72704761D02*
X183502438Y-72657142D01*
X183502438Y-72657142D02*
X183454819Y-72561904D01*
X183454819Y-72561904D02*
X183454819Y-72323809D01*
X183454819Y-72323809D02*
X183502438Y-72228571D01*
X183502438Y-72228571D02*
X183550057Y-72180952D01*
X183550057Y-72180952D02*
X183645295Y-72133333D01*
X183645295Y-72133333D02*
X183740533Y-72133333D01*
X183740533Y-72133333D02*
X183883390Y-72180952D01*
X183883390Y-72180952D02*
X184454819Y-72752380D01*
X184454819Y-72752380D02*
X184454819Y-72133333D01*
X145054819Y-68933333D02*
X145769104Y-68933333D01*
X145769104Y-68933333D02*
X145911961Y-68980952D01*
X145911961Y-68980952D02*
X146007200Y-69076190D01*
X146007200Y-69076190D02*
X146054819Y-69219047D01*
X146054819Y-69219047D02*
X146054819Y-69314285D01*
X146054819Y-67933333D02*
X146054819Y-68504761D01*
X146054819Y-68219047D02*
X145054819Y-68219047D01*
X145054819Y-68219047D02*
X145197676Y-68314285D01*
X145197676Y-68314285D02*
X145292914Y-68409523D01*
X145292914Y-68409523D02*
X145340533Y-68504761D01*
X170731009Y-76408333D02*
X170731009Y-76741666D01*
X171254819Y-76741666D02*
X170254819Y-76741666D01*
X170254819Y-76741666D02*
X170254819Y-76265476D01*
X170731009Y-75551190D02*
X170778628Y-75408333D01*
X170778628Y-75408333D02*
X170826247Y-75360714D01*
X170826247Y-75360714D02*
X170921485Y-75313095D01*
X170921485Y-75313095D02*
X171064342Y-75313095D01*
X171064342Y-75313095D02*
X171159580Y-75360714D01*
X171159580Y-75360714D02*
X171207200Y-75408333D01*
X171207200Y-75408333D02*
X171254819Y-75503571D01*
X171254819Y-75503571D02*
X171254819Y-75884523D01*
X171254819Y-75884523D02*
X170254819Y-75884523D01*
X170254819Y-75884523D02*
X170254819Y-75551190D01*
X170254819Y-75551190D02*
X170302438Y-75455952D01*
X170302438Y-75455952D02*
X170350057Y-75408333D01*
X170350057Y-75408333D02*
X170445295Y-75360714D01*
X170445295Y-75360714D02*
X170540533Y-75360714D01*
X170540533Y-75360714D02*
X170635771Y-75408333D01*
X170635771Y-75408333D02*
X170683390Y-75455952D01*
X170683390Y-75455952D02*
X170731009Y-75551190D01*
X170731009Y-75551190D02*
X170731009Y-75884523D01*
X171254819Y-74360714D02*
X171254819Y-74932142D01*
X171254819Y-74646428D02*
X170254819Y-74646428D01*
X170254819Y-74646428D02*
X170397676Y-74741666D01*
X170397676Y-74741666D02*
X170492914Y-74836904D01*
X170492914Y-74836904D02*
X170540533Y-74932142D01*
X166454819Y-69913094D02*
X165454819Y-69913094D01*
X165454819Y-69913094D02*
X165454819Y-69674999D01*
X165454819Y-69674999D02*
X165502438Y-69532142D01*
X165502438Y-69532142D02*
X165597676Y-69436904D01*
X165597676Y-69436904D02*
X165692914Y-69389285D01*
X165692914Y-69389285D02*
X165883390Y-69341666D01*
X165883390Y-69341666D02*
X166026247Y-69341666D01*
X166026247Y-69341666D02*
X166216723Y-69389285D01*
X166216723Y-69389285D02*
X166311961Y-69436904D01*
X166311961Y-69436904D02*
X166407200Y-69532142D01*
X166407200Y-69532142D02*
X166454819Y-69674999D01*
X166454819Y-69674999D02*
X166454819Y-69913094D01*
X165454819Y-68436904D02*
X165454819Y-68913094D01*
X165454819Y-68913094D02*
X165931009Y-68960713D01*
X165931009Y-68960713D02*
X165883390Y-68913094D01*
X165883390Y-68913094D02*
X165835771Y-68817856D01*
X165835771Y-68817856D02*
X165835771Y-68579761D01*
X165835771Y-68579761D02*
X165883390Y-68484523D01*
X165883390Y-68484523D02*
X165931009Y-68436904D01*
X165931009Y-68436904D02*
X166026247Y-68389285D01*
X166026247Y-68389285D02*
X166264342Y-68389285D01*
X166264342Y-68389285D02*
X166359580Y-68436904D01*
X166359580Y-68436904D02*
X166407200Y-68484523D01*
X166407200Y-68484523D02*
X166454819Y-68579761D01*
X166454819Y-68579761D02*
X166454819Y-68817856D01*
X166454819Y-68817856D02*
X166407200Y-68913094D01*
X166407200Y-68913094D02*
X166359580Y-68960713D01*
X162654819Y-67738094D02*
X161654819Y-67738094D01*
X161654819Y-67738094D02*
X161654819Y-67499999D01*
X161654819Y-67499999D02*
X161702438Y-67357142D01*
X161702438Y-67357142D02*
X161797676Y-67261904D01*
X161797676Y-67261904D02*
X161892914Y-67214285D01*
X161892914Y-67214285D02*
X162083390Y-67166666D01*
X162083390Y-67166666D02*
X162226247Y-67166666D01*
X162226247Y-67166666D02*
X162416723Y-67214285D01*
X162416723Y-67214285D02*
X162511961Y-67261904D01*
X162511961Y-67261904D02*
X162607200Y-67357142D01*
X162607200Y-67357142D02*
X162654819Y-67499999D01*
X162654819Y-67499999D02*
X162654819Y-67738094D01*
X161988152Y-66309523D02*
X162654819Y-66309523D01*
X161607200Y-66547618D02*
X162321485Y-66785713D01*
X162321485Y-66785713D02*
X162321485Y-66166666D01*
X152861905Y-102854819D02*
X152861905Y-101854819D01*
X152861905Y-101854819D02*
X153100000Y-101854819D01*
X153100000Y-101854819D02*
X153242857Y-101902438D01*
X153242857Y-101902438D02*
X153338095Y-101997676D01*
X153338095Y-101997676D02*
X153385714Y-102092914D01*
X153385714Y-102092914D02*
X153433333Y-102283390D01*
X153433333Y-102283390D02*
X153433333Y-102426247D01*
X153433333Y-102426247D02*
X153385714Y-102616723D01*
X153385714Y-102616723D02*
X153338095Y-102711961D01*
X153338095Y-102711961D02*
X153242857Y-102807200D01*
X153242857Y-102807200D02*
X153100000Y-102854819D01*
X153100000Y-102854819D02*
X152861905Y-102854819D01*
X153766667Y-101854819D02*
X154385714Y-101854819D01*
X154385714Y-101854819D02*
X154052381Y-102235771D01*
X154052381Y-102235771D02*
X154195238Y-102235771D01*
X154195238Y-102235771D02*
X154290476Y-102283390D01*
X154290476Y-102283390D02*
X154338095Y-102331009D01*
X154338095Y-102331009D02*
X154385714Y-102426247D01*
X154385714Y-102426247D02*
X154385714Y-102664342D01*
X154385714Y-102664342D02*
X154338095Y-102759580D01*
X154338095Y-102759580D02*
X154290476Y-102807200D01*
X154290476Y-102807200D02*
X154195238Y-102854819D01*
X154195238Y-102854819D02*
X153909524Y-102854819D01*
X153909524Y-102854819D02*
X153814286Y-102807200D01*
X153814286Y-102807200D02*
X153766667Y-102759580D01*
X156046905Y-73219819D02*
X156046905Y-72219819D01*
X156046905Y-72219819D02*
X156285000Y-72219819D01*
X156285000Y-72219819D02*
X156427857Y-72267438D01*
X156427857Y-72267438D02*
X156523095Y-72362676D01*
X156523095Y-72362676D02*
X156570714Y-72457914D01*
X156570714Y-72457914D02*
X156618333Y-72648390D01*
X156618333Y-72648390D02*
X156618333Y-72791247D01*
X156618333Y-72791247D02*
X156570714Y-72981723D01*
X156570714Y-72981723D02*
X156523095Y-73076961D01*
X156523095Y-73076961D02*
X156427857Y-73172200D01*
X156427857Y-73172200D02*
X156285000Y-73219819D01*
X156285000Y-73219819D02*
X156046905Y-73219819D01*
X156999286Y-72315057D02*
X157046905Y-72267438D01*
X157046905Y-72267438D02*
X157142143Y-72219819D01*
X157142143Y-72219819D02*
X157380238Y-72219819D01*
X157380238Y-72219819D02*
X157475476Y-72267438D01*
X157475476Y-72267438D02*
X157523095Y-72315057D01*
X157523095Y-72315057D02*
X157570714Y-72410295D01*
X157570714Y-72410295D02*
X157570714Y-72505533D01*
X157570714Y-72505533D02*
X157523095Y-72648390D01*
X157523095Y-72648390D02*
X156951667Y-73219819D01*
X156951667Y-73219819D02*
X157570714Y-73219819D01*
X156446905Y-71054819D02*
X156446905Y-70054819D01*
X156446905Y-70054819D02*
X156685000Y-70054819D01*
X156685000Y-70054819D02*
X156827857Y-70102438D01*
X156827857Y-70102438D02*
X156923095Y-70197676D01*
X156923095Y-70197676D02*
X156970714Y-70292914D01*
X156970714Y-70292914D02*
X157018333Y-70483390D01*
X157018333Y-70483390D02*
X157018333Y-70626247D01*
X157018333Y-70626247D02*
X156970714Y-70816723D01*
X156970714Y-70816723D02*
X156923095Y-70911961D01*
X156923095Y-70911961D02*
X156827857Y-71007200D01*
X156827857Y-71007200D02*
X156685000Y-71054819D01*
X156685000Y-71054819D02*
X156446905Y-71054819D01*
X157970714Y-71054819D02*
X157399286Y-71054819D01*
X157685000Y-71054819D02*
X157685000Y-70054819D01*
X157685000Y-70054819D02*
X157589762Y-70197676D01*
X157589762Y-70197676D02*
X157494524Y-70292914D01*
X157494524Y-70292914D02*
X157399286Y-70340533D01*
X158559580Y-68042857D02*
X158607200Y-68090476D01*
X158607200Y-68090476D02*
X158654819Y-68233333D01*
X158654819Y-68233333D02*
X158654819Y-68328571D01*
X158654819Y-68328571D02*
X158607200Y-68471428D01*
X158607200Y-68471428D02*
X158511961Y-68566666D01*
X158511961Y-68566666D02*
X158416723Y-68614285D01*
X158416723Y-68614285D02*
X158226247Y-68661904D01*
X158226247Y-68661904D02*
X158083390Y-68661904D01*
X158083390Y-68661904D02*
X157892914Y-68614285D01*
X157892914Y-68614285D02*
X157797676Y-68566666D01*
X157797676Y-68566666D02*
X157702438Y-68471428D01*
X157702438Y-68471428D02*
X157654819Y-68328571D01*
X157654819Y-68328571D02*
X157654819Y-68233333D01*
X157654819Y-68233333D02*
X157702438Y-68090476D01*
X157702438Y-68090476D02*
X157750057Y-68042857D01*
X158654819Y-67090476D02*
X158654819Y-67661904D01*
X158654819Y-67376190D02*
X157654819Y-67376190D01*
X157654819Y-67376190D02*
X157797676Y-67471428D01*
X157797676Y-67471428D02*
X157892914Y-67566666D01*
X157892914Y-67566666D02*
X157940533Y-67661904D01*
X157654819Y-66185714D02*
X157654819Y-66661904D01*
X157654819Y-66661904D02*
X158131009Y-66709523D01*
X158131009Y-66709523D02*
X158083390Y-66661904D01*
X158083390Y-66661904D02*
X158035771Y-66566666D01*
X158035771Y-66566666D02*
X158035771Y-66328571D01*
X158035771Y-66328571D02*
X158083390Y-66233333D01*
X158083390Y-66233333D02*
X158131009Y-66185714D01*
X158131009Y-66185714D02*
X158226247Y-66138095D01*
X158226247Y-66138095D02*
X158464342Y-66138095D01*
X158464342Y-66138095D02*
X158559580Y-66185714D01*
X158559580Y-66185714D02*
X158607200Y-66233333D01*
X158607200Y-66233333D02*
X158654819Y-66328571D01*
X158654819Y-66328571D02*
X158654819Y-66566666D01*
X158654819Y-66566666D02*
X158607200Y-66661904D01*
X158607200Y-66661904D02*
X158559580Y-66709523D01*
X159959580Y-68042857D02*
X160007200Y-68090476D01*
X160007200Y-68090476D02*
X160054819Y-68233333D01*
X160054819Y-68233333D02*
X160054819Y-68328571D01*
X160054819Y-68328571D02*
X160007200Y-68471428D01*
X160007200Y-68471428D02*
X159911961Y-68566666D01*
X159911961Y-68566666D02*
X159816723Y-68614285D01*
X159816723Y-68614285D02*
X159626247Y-68661904D01*
X159626247Y-68661904D02*
X159483390Y-68661904D01*
X159483390Y-68661904D02*
X159292914Y-68614285D01*
X159292914Y-68614285D02*
X159197676Y-68566666D01*
X159197676Y-68566666D02*
X159102438Y-68471428D01*
X159102438Y-68471428D02*
X159054819Y-68328571D01*
X159054819Y-68328571D02*
X159054819Y-68233333D01*
X159054819Y-68233333D02*
X159102438Y-68090476D01*
X159102438Y-68090476D02*
X159150057Y-68042857D01*
X160054819Y-67090476D02*
X160054819Y-67661904D01*
X160054819Y-67376190D02*
X159054819Y-67376190D01*
X159054819Y-67376190D02*
X159197676Y-67471428D01*
X159197676Y-67471428D02*
X159292914Y-67566666D01*
X159292914Y-67566666D02*
X159340533Y-67661904D01*
X159388152Y-66233333D02*
X160054819Y-66233333D01*
X159007200Y-66471428D02*
X159721485Y-66709523D01*
X159721485Y-66709523D02*
X159721485Y-66090476D01*
X146359580Y-66405357D02*
X146407200Y-66452976D01*
X146407200Y-66452976D02*
X146454819Y-66595833D01*
X146454819Y-66595833D02*
X146454819Y-66691071D01*
X146454819Y-66691071D02*
X146407200Y-66833928D01*
X146407200Y-66833928D02*
X146311961Y-66929166D01*
X146311961Y-66929166D02*
X146216723Y-66976785D01*
X146216723Y-66976785D02*
X146026247Y-67024404D01*
X146026247Y-67024404D02*
X145883390Y-67024404D01*
X145883390Y-67024404D02*
X145692914Y-66976785D01*
X145692914Y-66976785D02*
X145597676Y-66929166D01*
X145597676Y-66929166D02*
X145502438Y-66833928D01*
X145502438Y-66833928D02*
X145454819Y-66691071D01*
X145454819Y-66691071D02*
X145454819Y-66595833D01*
X145454819Y-66595833D02*
X145502438Y-66452976D01*
X145502438Y-66452976D02*
X145550057Y-66405357D01*
X146454819Y-65452976D02*
X146454819Y-66024404D01*
X146454819Y-65738690D02*
X145454819Y-65738690D01*
X145454819Y-65738690D02*
X145597676Y-65833928D01*
X145597676Y-65833928D02*
X145692914Y-65929166D01*
X145692914Y-65929166D02*
X145740533Y-66024404D01*
X145454819Y-65119642D02*
X145454819Y-64500595D01*
X145454819Y-64500595D02*
X145835771Y-64833928D01*
X145835771Y-64833928D02*
X145835771Y-64691071D01*
X145835771Y-64691071D02*
X145883390Y-64595833D01*
X145883390Y-64595833D02*
X145931009Y-64548214D01*
X145931009Y-64548214D02*
X146026247Y-64500595D01*
X146026247Y-64500595D02*
X146264342Y-64500595D01*
X146264342Y-64500595D02*
X146359580Y-64548214D01*
X146359580Y-64548214D02*
X146407200Y-64595833D01*
X146407200Y-64595833D02*
X146454819Y-64691071D01*
X146454819Y-64691071D02*
X146454819Y-64976785D01*
X146454819Y-64976785D02*
X146407200Y-65072023D01*
X146407200Y-65072023D02*
X146359580Y-65119642D01*
X148359580Y-66442857D02*
X148407200Y-66490476D01*
X148407200Y-66490476D02*
X148454819Y-66633333D01*
X148454819Y-66633333D02*
X148454819Y-66728571D01*
X148454819Y-66728571D02*
X148407200Y-66871428D01*
X148407200Y-66871428D02*
X148311961Y-66966666D01*
X148311961Y-66966666D02*
X148216723Y-67014285D01*
X148216723Y-67014285D02*
X148026247Y-67061904D01*
X148026247Y-67061904D02*
X147883390Y-67061904D01*
X147883390Y-67061904D02*
X147692914Y-67014285D01*
X147692914Y-67014285D02*
X147597676Y-66966666D01*
X147597676Y-66966666D02*
X147502438Y-66871428D01*
X147502438Y-66871428D02*
X147454819Y-66728571D01*
X147454819Y-66728571D02*
X147454819Y-66633333D01*
X147454819Y-66633333D02*
X147502438Y-66490476D01*
X147502438Y-66490476D02*
X147550057Y-66442857D01*
X148454819Y-65490476D02*
X148454819Y-66061904D01*
X148454819Y-65776190D02*
X147454819Y-65776190D01*
X147454819Y-65776190D02*
X147597676Y-65871428D01*
X147597676Y-65871428D02*
X147692914Y-65966666D01*
X147692914Y-65966666D02*
X147740533Y-66061904D01*
X147550057Y-65109523D02*
X147502438Y-65061904D01*
X147502438Y-65061904D02*
X147454819Y-64966666D01*
X147454819Y-64966666D02*
X147454819Y-64728571D01*
X147454819Y-64728571D02*
X147502438Y-64633333D01*
X147502438Y-64633333D02*
X147550057Y-64585714D01*
X147550057Y-64585714D02*
X147645295Y-64538095D01*
X147645295Y-64538095D02*
X147740533Y-64538095D01*
X147740533Y-64538095D02*
X147883390Y-64585714D01*
X147883390Y-64585714D02*
X148454819Y-65157142D01*
X148454819Y-65157142D02*
X148454819Y-64538095D01*
X179159580Y-97442857D02*
X179207200Y-97490476D01*
X179207200Y-97490476D02*
X179254819Y-97633333D01*
X179254819Y-97633333D02*
X179254819Y-97728571D01*
X179254819Y-97728571D02*
X179207200Y-97871428D01*
X179207200Y-97871428D02*
X179111961Y-97966666D01*
X179111961Y-97966666D02*
X179016723Y-98014285D01*
X179016723Y-98014285D02*
X178826247Y-98061904D01*
X178826247Y-98061904D02*
X178683390Y-98061904D01*
X178683390Y-98061904D02*
X178492914Y-98014285D01*
X178492914Y-98014285D02*
X178397676Y-97966666D01*
X178397676Y-97966666D02*
X178302438Y-97871428D01*
X178302438Y-97871428D02*
X178254819Y-97728571D01*
X178254819Y-97728571D02*
X178254819Y-97633333D01*
X178254819Y-97633333D02*
X178302438Y-97490476D01*
X178302438Y-97490476D02*
X178350057Y-97442857D01*
X179254819Y-96490476D02*
X179254819Y-97061904D01*
X179254819Y-96776190D02*
X178254819Y-96776190D01*
X178254819Y-96776190D02*
X178397676Y-96871428D01*
X178397676Y-96871428D02*
X178492914Y-96966666D01*
X178492914Y-96966666D02*
X178540533Y-97061904D01*
X179254819Y-95538095D02*
X179254819Y-96109523D01*
X179254819Y-95823809D02*
X178254819Y-95823809D01*
X178254819Y-95823809D02*
X178397676Y-95919047D01*
X178397676Y-95919047D02*
X178492914Y-96014285D01*
X178492914Y-96014285D02*
X178540533Y-96109523D01*
X149439580Y-100242857D02*
X149487200Y-100290476D01*
X149487200Y-100290476D02*
X149534819Y-100433333D01*
X149534819Y-100433333D02*
X149534819Y-100528571D01*
X149534819Y-100528571D02*
X149487200Y-100671428D01*
X149487200Y-100671428D02*
X149391961Y-100766666D01*
X149391961Y-100766666D02*
X149296723Y-100814285D01*
X149296723Y-100814285D02*
X149106247Y-100861904D01*
X149106247Y-100861904D02*
X148963390Y-100861904D01*
X148963390Y-100861904D02*
X148772914Y-100814285D01*
X148772914Y-100814285D02*
X148677676Y-100766666D01*
X148677676Y-100766666D02*
X148582438Y-100671428D01*
X148582438Y-100671428D02*
X148534819Y-100528571D01*
X148534819Y-100528571D02*
X148534819Y-100433333D01*
X148534819Y-100433333D02*
X148582438Y-100290476D01*
X148582438Y-100290476D02*
X148630057Y-100242857D01*
X149534819Y-99290476D02*
X149534819Y-99861904D01*
X149534819Y-99576190D02*
X148534819Y-99576190D01*
X148534819Y-99576190D02*
X148677676Y-99671428D01*
X148677676Y-99671428D02*
X148772914Y-99766666D01*
X148772914Y-99766666D02*
X148820533Y-99861904D01*
X148534819Y-98671428D02*
X148534819Y-98576190D01*
X148534819Y-98576190D02*
X148582438Y-98480952D01*
X148582438Y-98480952D02*
X148630057Y-98433333D01*
X148630057Y-98433333D02*
X148725295Y-98385714D01*
X148725295Y-98385714D02*
X148915771Y-98338095D01*
X148915771Y-98338095D02*
X149153866Y-98338095D01*
X149153866Y-98338095D02*
X149344342Y-98385714D01*
X149344342Y-98385714D02*
X149439580Y-98433333D01*
X149439580Y-98433333D02*
X149487200Y-98480952D01*
X149487200Y-98480952D02*
X149534819Y-98576190D01*
X149534819Y-98576190D02*
X149534819Y-98671428D01*
X149534819Y-98671428D02*
X149487200Y-98766666D01*
X149487200Y-98766666D02*
X149439580Y-98814285D01*
X149439580Y-98814285D02*
X149344342Y-98861904D01*
X149344342Y-98861904D02*
X149153866Y-98909523D01*
X149153866Y-98909523D02*
X148915771Y-98909523D01*
X148915771Y-98909523D02*
X148725295Y-98861904D01*
X148725295Y-98861904D02*
X148630057Y-98814285D01*
X148630057Y-98814285D02*
X148582438Y-98766666D01*
X148582438Y-98766666D02*
X148534819Y-98671428D01*
X165769580Y-90929166D02*
X165817200Y-90976785D01*
X165817200Y-90976785D02*
X165864819Y-91119642D01*
X165864819Y-91119642D02*
X165864819Y-91214880D01*
X165864819Y-91214880D02*
X165817200Y-91357737D01*
X165817200Y-91357737D02*
X165721961Y-91452975D01*
X165721961Y-91452975D02*
X165626723Y-91500594D01*
X165626723Y-91500594D02*
X165436247Y-91548213D01*
X165436247Y-91548213D02*
X165293390Y-91548213D01*
X165293390Y-91548213D02*
X165102914Y-91500594D01*
X165102914Y-91500594D02*
X165007676Y-91452975D01*
X165007676Y-91452975D02*
X164912438Y-91357737D01*
X164912438Y-91357737D02*
X164864819Y-91214880D01*
X164864819Y-91214880D02*
X164864819Y-91119642D01*
X164864819Y-91119642D02*
X164912438Y-90976785D01*
X164912438Y-90976785D02*
X164960057Y-90929166D01*
X165864819Y-90452975D02*
X165864819Y-90262499D01*
X165864819Y-90262499D02*
X165817200Y-90167261D01*
X165817200Y-90167261D02*
X165769580Y-90119642D01*
X165769580Y-90119642D02*
X165626723Y-90024404D01*
X165626723Y-90024404D02*
X165436247Y-89976785D01*
X165436247Y-89976785D02*
X165055295Y-89976785D01*
X165055295Y-89976785D02*
X164960057Y-90024404D01*
X164960057Y-90024404D02*
X164912438Y-90072023D01*
X164912438Y-90072023D02*
X164864819Y-90167261D01*
X164864819Y-90167261D02*
X164864819Y-90357737D01*
X164864819Y-90357737D02*
X164912438Y-90452975D01*
X164912438Y-90452975D02*
X164960057Y-90500594D01*
X164960057Y-90500594D02*
X165055295Y-90548213D01*
X165055295Y-90548213D02*
X165293390Y-90548213D01*
X165293390Y-90548213D02*
X165388628Y-90500594D01*
X165388628Y-90500594D02*
X165436247Y-90452975D01*
X165436247Y-90452975D02*
X165483866Y-90357737D01*
X165483866Y-90357737D02*
X165483866Y-90167261D01*
X165483866Y-90167261D02*
X165436247Y-90072023D01*
X165436247Y-90072023D02*
X165388628Y-90024404D01*
X165388628Y-90024404D02*
X165293390Y-89976785D01*
X168159580Y-90729166D02*
X168207200Y-90776785D01*
X168207200Y-90776785D02*
X168254819Y-90919642D01*
X168254819Y-90919642D02*
X168254819Y-91014880D01*
X168254819Y-91014880D02*
X168207200Y-91157737D01*
X168207200Y-91157737D02*
X168111961Y-91252975D01*
X168111961Y-91252975D02*
X168016723Y-91300594D01*
X168016723Y-91300594D02*
X167826247Y-91348213D01*
X167826247Y-91348213D02*
X167683390Y-91348213D01*
X167683390Y-91348213D02*
X167492914Y-91300594D01*
X167492914Y-91300594D02*
X167397676Y-91252975D01*
X167397676Y-91252975D02*
X167302438Y-91157737D01*
X167302438Y-91157737D02*
X167254819Y-91014880D01*
X167254819Y-91014880D02*
X167254819Y-90919642D01*
X167254819Y-90919642D02*
X167302438Y-90776785D01*
X167302438Y-90776785D02*
X167350057Y-90729166D01*
X167683390Y-90157737D02*
X167635771Y-90252975D01*
X167635771Y-90252975D02*
X167588152Y-90300594D01*
X167588152Y-90300594D02*
X167492914Y-90348213D01*
X167492914Y-90348213D02*
X167445295Y-90348213D01*
X167445295Y-90348213D02*
X167350057Y-90300594D01*
X167350057Y-90300594D02*
X167302438Y-90252975D01*
X167302438Y-90252975D02*
X167254819Y-90157737D01*
X167254819Y-90157737D02*
X167254819Y-89967261D01*
X167254819Y-89967261D02*
X167302438Y-89872023D01*
X167302438Y-89872023D02*
X167350057Y-89824404D01*
X167350057Y-89824404D02*
X167445295Y-89776785D01*
X167445295Y-89776785D02*
X167492914Y-89776785D01*
X167492914Y-89776785D02*
X167588152Y-89824404D01*
X167588152Y-89824404D02*
X167635771Y-89872023D01*
X167635771Y-89872023D02*
X167683390Y-89967261D01*
X167683390Y-89967261D02*
X167683390Y-90157737D01*
X167683390Y-90157737D02*
X167731009Y-90252975D01*
X167731009Y-90252975D02*
X167778628Y-90300594D01*
X167778628Y-90300594D02*
X167873866Y-90348213D01*
X167873866Y-90348213D02*
X168064342Y-90348213D01*
X168064342Y-90348213D02*
X168159580Y-90300594D01*
X168159580Y-90300594D02*
X168207200Y-90252975D01*
X168207200Y-90252975D02*
X168254819Y-90157737D01*
X168254819Y-90157737D02*
X168254819Y-89967261D01*
X168254819Y-89967261D02*
X168207200Y-89872023D01*
X168207200Y-89872023D02*
X168159580Y-89824404D01*
X168159580Y-89824404D02*
X168064342Y-89776785D01*
X168064342Y-89776785D02*
X167873866Y-89776785D01*
X167873866Y-89776785D02*
X167778628Y-89824404D01*
X167778628Y-89824404D02*
X167731009Y-89872023D01*
X167731009Y-89872023D02*
X167683390Y-89967261D01*
X170369580Y-90929166D02*
X170417200Y-90976785D01*
X170417200Y-90976785D02*
X170464819Y-91119642D01*
X170464819Y-91119642D02*
X170464819Y-91214880D01*
X170464819Y-91214880D02*
X170417200Y-91357737D01*
X170417200Y-91357737D02*
X170321961Y-91452975D01*
X170321961Y-91452975D02*
X170226723Y-91500594D01*
X170226723Y-91500594D02*
X170036247Y-91548213D01*
X170036247Y-91548213D02*
X169893390Y-91548213D01*
X169893390Y-91548213D02*
X169702914Y-91500594D01*
X169702914Y-91500594D02*
X169607676Y-91452975D01*
X169607676Y-91452975D02*
X169512438Y-91357737D01*
X169512438Y-91357737D02*
X169464819Y-91214880D01*
X169464819Y-91214880D02*
X169464819Y-91119642D01*
X169464819Y-91119642D02*
X169512438Y-90976785D01*
X169512438Y-90976785D02*
X169560057Y-90929166D01*
X169464819Y-90595832D02*
X169464819Y-89929166D01*
X169464819Y-89929166D02*
X170464819Y-90357737D01*
X172559580Y-90929166D02*
X172607200Y-90976785D01*
X172607200Y-90976785D02*
X172654819Y-91119642D01*
X172654819Y-91119642D02*
X172654819Y-91214880D01*
X172654819Y-91214880D02*
X172607200Y-91357737D01*
X172607200Y-91357737D02*
X172511961Y-91452975D01*
X172511961Y-91452975D02*
X172416723Y-91500594D01*
X172416723Y-91500594D02*
X172226247Y-91548213D01*
X172226247Y-91548213D02*
X172083390Y-91548213D01*
X172083390Y-91548213D02*
X171892914Y-91500594D01*
X171892914Y-91500594D02*
X171797676Y-91452975D01*
X171797676Y-91452975D02*
X171702438Y-91357737D01*
X171702438Y-91357737D02*
X171654819Y-91214880D01*
X171654819Y-91214880D02*
X171654819Y-91119642D01*
X171654819Y-91119642D02*
X171702438Y-90976785D01*
X171702438Y-90976785D02*
X171750057Y-90929166D01*
X171654819Y-90072023D02*
X171654819Y-90262499D01*
X171654819Y-90262499D02*
X171702438Y-90357737D01*
X171702438Y-90357737D02*
X171750057Y-90405356D01*
X171750057Y-90405356D02*
X171892914Y-90500594D01*
X171892914Y-90500594D02*
X172083390Y-90548213D01*
X172083390Y-90548213D02*
X172464342Y-90548213D01*
X172464342Y-90548213D02*
X172559580Y-90500594D01*
X172559580Y-90500594D02*
X172607200Y-90452975D01*
X172607200Y-90452975D02*
X172654819Y-90357737D01*
X172654819Y-90357737D02*
X172654819Y-90167261D01*
X172654819Y-90167261D02*
X172607200Y-90072023D01*
X172607200Y-90072023D02*
X172559580Y-90024404D01*
X172559580Y-90024404D02*
X172464342Y-89976785D01*
X172464342Y-89976785D02*
X172226247Y-89976785D01*
X172226247Y-89976785D02*
X172131009Y-90024404D01*
X172131009Y-90024404D02*
X172083390Y-90072023D01*
X172083390Y-90072023D02*
X172035771Y-90167261D01*
X172035771Y-90167261D02*
X172035771Y-90357737D01*
X172035771Y-90357737D02*
X172083390Y-90452975D01*
X172083390Y-90452975D02*
X172131009Y-90500594D01*
X172131009Y-90500594D02*
X172226247Y-90548213D01*
X157433333Y-80559580D02*
X157385714Y-80607200D01*
X157385714Y-80607200D02*
X157242857Y-80654819D01*
X157242857Y-80654819D02*
X157147619Y-80654819D01*
X157147619Y-80654819D02*
X157004762Y-80607200D01*
X157004762Y-80607200D02*
X156909524Y-80511961D01*
X156909524Y-80511961D02*
X156861905Y-80416723D01*
X156861905Y-80416723D02*
X156814286Y-80226247D01*
X156814286Y-80226247D02*
X156814286Y-80083390D01*
X156814286Y-80083390D02*
X156861905Y-79892914D01*
X156861905Y-79892914D02*
X156909524Y-79797676D01*
X156909524Y-79797676D02*
X157004762Y-79702438D01*
X157004762Y-79702438D02*
X157147619Y-79654819D01*
X157147619Y-79654819D02*
X157242857Y-79654819D01*
X157242857Y-79654819D02*
X157385714Y-79702438D01*
X157385714Y-79702438D02*
X157433333Y-79750057D01*
X158338095Y-79654819D02*
X157861905Y-79654819D01*
X157861905Y-79654819D02*
X157814286Y-80131009D01*
X157814286Y-80131009D02*
X157861905Y-80083390D01*
X157861905Y-80083390D02*
X157957143Y-80035771D01*
X157957143Y-80035771D02*
X158195238Y-80035771D01*
X158195238Y-80035771D02*
X158290476Y-80083390D01*
X158290476Y-80083390D02*
X158338095Y-80131009D01*
X158338095Y-80131009D02*
X158385714Y-80226247D01*
X158385714Y-80226247D02*
X158385714Y-80464342D01*
X158385714Y-80464342D02*
X158338095Y-80559580D01*
X158338095Y-80559580D02*
X158290476Y-80607200D01*
X158290476Y-80607200D02*
X158195238Y-80654819D01*
X158195238Y-80654819D02*
X157957143Y-80654819D01*
X157957143Y-80654819D02*
X157861905Y-80607200D01*
X157861905Y-80607200D02*
X157814286Y-80559580D01*
X157633333Y-82359580D02*
X157585714Y-82407200D01*
X157585714Y-82407200D02*
X157442857Y-82454819D01*
X157442857Y-82454819D02*
X157347619Y-82454819D01*
X157347619Y-82454819D02*
X157204762Y-82407200D01*
X157204762Y-82407200D02*
X157109524Y-82311961D01*
X157109524Y-82311961D02*
X157061905Y-82216723D01*
X157061905Y-82216723D02*
X157014286Y-82026247D01*
X157014286Y-82026247D02*
X157014286Y-81883390D01*
X157014286Y-81883390D02*
X157061905Y-81692914D01*
X157061905Y-81692914D02*
X157109524Y-81597676D01*
X157109524Y-81597676D02*
X157204762Y-81502438D01*
X157204762Y-81502438D02*
X157347619Y-81454819D01*
X157347619Y-81454819D02*
X157442857Y-81454819D01*
X157442857Y-81454819D02*
X157585714Y-81502438D01*
X157585714Y-81502438D02*
X157633333Y-81550057D01*
X158490476Y-81788152D02*
X158490476Y-82454819D01*
X158252381Y-81407200D02*
X158014286Y-82121485D01*
X158014286Y-82121485D02*
X158633333Y-82121485D01*
X176708333Y-83759580D02*
X176660714Y-83807200D01*
X176660714Y-83807200D02*
X176517857Y-83854819D01*
X176517857Y-83854819D02*
X176422619Y-83854819D01*
X176422619Y-83854819D02*
X176279762Y-83807200D01*
X176279762Y-83807200D02*
X176184524Y-83711961D01*
X176184524Y-83711961D02*
X176136905Y-83616723D01*
X176136905Y-83616723D02*
X176089286Y-83426247D01*
X176089286Y-83426247D02*
X176089286Y-83283390D01*
X176089286Y-83283390D02*
X176136905Y-83092914D01*
X176136905Y-83092914D02*
X176184524Y-82997676D01*
X176184524Y-82997676D02*
X176279762Y-82902438D01*
X176279762Y-82902438D02*
X176422619Y-82854819D01*
X176422619Y-82854819D02*
X176517857Y-82854819D01*
X176517857Y-82854819D02*
X176660714Y-82902438D01*
X176660714Y-82902438D02*
X176708333Y-82950057D01*
X177041667Y-82854819D02*
X177660714Y-82854819D01*
X177660714Y-82854819D02*
X177327381Y-83235771D01*
X177327381Y-83235771D02*
X177470238Y-83235771D01*
X177470238Y-83235771D02*
X177565476Y-83283390D01*
X177565476Y-83283390D02*
X177613095Y-83331009D01*
X177613095Y-83331009D02*
X177660714Y-83426247D01*
X177660714Y-83426247D02*
X177660714Y-83664342D01*
X177660714Y-83664342D02*
X177613095Y-83759580D01*
X177613095Y-83759580D02*
X177565476Y-83807200D01*
X177565476Y-83807200D02*
X177470238Y-83854819D01*
X177470238Y-83854819D02*
X177184524Y-83854819D01*
X177184524Y-83854819D02*
X177089286Y-83807200D01*
X177089286Y-83807200D02*
X177041667Y-83759580D01*
X176708333Y-82359580D02*
X176660714Y-82407200D01*
X176660714Y-82407200D02*
X176517857Y-82454819D01*
X176517857Y-82454819D02*
X176422619Y-82454819D01*
X176422619Y-82454819D02*
X176279762Y-82407200D01*
X176279762Y-82407200D02*
X176184524Y-82311961D01*
X176184524Y-82311961D02*
X176136905Y-82216723D01*
X176136905Y-82216723D02*
X176089286Y-82026247D01*
X176089286Y-82026247D02*
X176089286Y-81883390D01*
X176089286Y-81883390D02*
X176136905Y-81692914D01*
X176136905Y-81692914D02*
X176184524Y-81597676D01*
X176184524Y-81597676D02*
X176279762Y-81502438D01*
X176279762Y-81502438D02*
X176422619Y-81454819D01*
X176422619Y-81454819D02*
X176517857Y-81454819D01*
X176517857Y-81454819D02*
X176660714Y-81502438D01*
X176660714Y-81502438D02*
X176708333Y-81550057D01*
X177089286Y-81550057D02*
X177136905Y-81502438D01*
X177136905Y-81502438D02*
X177232143Y-81454819D01*
X177232143Y-81454819D02*
X177470238Y-81454819D01*
X177470238Y-81454819D02*
X177565476Y-81502438D01*
X177565476Y-81502438D02*
X177613095Y-81550057D01*
X177613095Y-81550057D02*
X177660714Y-81645295D01*
X177660714Y-81645295D02*
X177660714Y-81740533D01*
X177660714Y-81740533D02*
X177613095Y-81883390D01*
X177613095Y-81883390D02*
X177041667Y-82454819D01*
X177041667Y-82454819D02*
X177660714Y-82454819D01*
X163795833Y-84359580D02*
X163748214Y-84407200D01*
X163748214Y-84407200D02*
X163605357Y-84454819D01*
X163605357Y-84454819D02*
X163510119Y-84454819D01*
X163510119Y-84454819D02*
X163367262Y-84407200D01*
X163367262Y-84407200D02*
X163272024Y-84311961D01*
X163272024Y-84311961D02*
X163224405Y-84216723D01*
X163224405Y-84216723D02*
X163176786Y-84026247D01*
X163176786Y-84026247D02*
X163176786Y-83883390D01*
X163176786Y-83883390D02*
X163224405Y-83692914D01*
X163224405Y-83692914D02*
X163272024Y-83597676D01*
X163272024Y-83597676D02*
X163367262Y-83502438D01*
X163367262Y-83502438D02*
X163510119Y-83454819D01*
X163510119Y-83454819D02*
X163605357Y-83454819D01*
X163605357Y-83454819D02*
X163748214Y-83502438D01*
X163748214Y-83502438D02*
X163795833Y-83550057D01*
X164748214Y-84454819D02*
X164176786Y-84454819D01*
X164462500Y-84454819D02*
X164462500Y-83454819D01*
X164462500Y-83454819D02*
X164367262Y-83597676D01*
X164367262Y-83597676D02*
X164272024Y-83692914D01*
X164272024Y-83692914D02*
X164176786Y-83740533D01*
D13*
%TO.C,U1*%
X165725000Y-78990000D02*
G75*
G02*
X165525000Y-78990000I-100000J0D01*
G01*
X165525000Y-78990000D02*
G75*
G02*
X165725000Y-78990000I100000J0D01*
G01*
D14*
X167775000Y-78445000D02*
X171675000Y-78445000D01*
X167775000Y-83345000D02*
X171675000Y-83345000D01*
D15*
%TO.C,U3*%
X149790000Y-66050000D02*
X149790000Y-62290000D01*
X156610000Y-66050000D02*
X156610000Y-62290000D01*
X149790000Y-62290000D02*
X151050000Y-62290000D01*
X156610000Y-62290000D02*
X155350000Y-62290000D01*
X149890000Y-67330000D02*
X149560000Y-67570000D01*
X149560000Y-67090000D01*
X149890000Y-67330000D01*
G36*
X149890000Y-67330000D02*
G01*
X149560000Y-67570000D01*
X149560000Y-67090000D01*
X149890000Y-67330000D01*
G37*
D12*
%TO.C,U2*%
X156075000Y-97375000D02*
X151925000Y-97375000D01*
X156075000Y-92225000D02*
X151925000Y-92225000D01*
D15*
X156740000Y-97630000D02*
X156260000Y-97630000D01*
X156500000Y-97300000D01*
X156740000Y-97630000D01*
G36*
X156740000Y-97630000D02*
G01*
X156260000Y-97630000D01*
X156500000Y-97300000D01*
X156740000Y-97630000D01*
G37*
%TO.C,R11*%
X167865000Y-72236252D02*
X167865000Y-71713748D01*
X169335000Y-72236252D02*
X169335000Y-71713748D01*
%TO.C,R10*%
X163735000Y-63738748D02*
X163735000Y-64261252D01*
X162265000Y-63738748D02*
X162265000Y-64261252D01*
%TO.C,R9*%
X152427064Y-91585000D02*
X151972936Y-91585000D01*
X152427064Y-90115000D02*
X151972936Y-90115000D01*
%TO.C,R8*%
X156427064Y-91535000D02*
X155972936Y-91535000D01*
X156427064Y-90065000D02*
X155972936Y-90065000D01*
%TO.C,R7*%
X149772936Y-72065000D02*
X150227064Y-72065000D01*
X149772936Y-73535000D02*
X150227064Y-73535000D01*
%TO.C,R6*%
X149772936Y-69865000D02*
X150227064Y-69865000D01*
X149772936Y-71335000D02*
X150227064Y-71335000D01*
%TO.C,R5*%
X177572936Y-84265000D02*
X178027064Y-84265000D01*
X177572936Y-85735000D02*
X178027064Y-85735000D01*
%TO.C,R4*%
X178102064Y-80935000D02*
X177647936Y-80935000D01*
X178102064Y-79465000D02*
X177647936Y-79465000D01*
%TO.C,R3*%
X160735436Y-81065000D02*
X161189564Y-81065000D01*
X160735436Y-82535000D02*
X161189564Y-82535000D01*
%TO.C,R2*%
X161189564Y-78135000D02*
X160735436Y-78135000D01*
X161189564Y-76665000D02*
X160735436Y-76665000D01*
%TO.C,R1*%
X161189564Y-80335000D02*
X160735436Y-80335000D01*
X161189564Y-78865000D02*
X160735436Y-78865000D01*
%TO.C,L1*%
X160200000Y-96000000D02*
X163800000Y-92400000D01*
X163800000Y-92400000D02*
X169800000Y-92400000D01*
X163800000Y-104800000D02*
X160200000Y-101200000D01*
X169800000Y-92400000D02*
X173400000Y-96000000D01*
X169800000Y-104800000D02*
X163800000Y-104800000D01*
X173400000Y-101200000D02*
X169800000Y-104800000D01*
D13*
%TO.C,J9*%
X180612500Y-72052500D02*
G75*
G02*
X180412500Y-72052500I-100000J0D01*
G01*
X180412500Y-72052500D02*
G75*
G02*
X180612500Y-72052500I100000J0D01*
G01*
X183562500Y-69422500D02*
X181512500Y-69422500D01*
X183562500Y-69422500D02*
X183562500Y-68002500D01*
X179512500Y-69422500D02*
X179012500Y-69422500D01*
X175012500Y-69422500D02*
X174512500Y-69422500D01*
X183562500Y-64602500D02*
X183562500Y-57302500D01*
X170462500Y-69422500D02*
X172512500Y-69422500D01*
X170462500Y-69422500D02*
X170462500Y-68002500D01*
X170462500Y-64602500D02*
X170462500Y-57302500D01*
D15*
%TO.C,J8*%
X145795000Y-58930000D02*
X145795000Y-57600000D01*
X147125000Y-58930000D02*
X145795000Y-58930000D01*
X148395000Y-58930000D02*
X150995000Y-58930000D01*
X148395000Y-58930000D02*
X148395000Y-56270000D01*
X150995000Y-58930000D02*
X150995000Y-56270000D01*
X148395000Y-56270000D02*
X150995000Y-56270000D01*
%TO.C,J7*%
X153190000Y-58930000D02*
X153190000Y-57600000D01*
X154520000Y-58930000D02*
X153190000Y-58930000D01*
X155790000Y-58930000D02*
X168550000Y-58930000D01*
X155790000Y-58930000D02*
X155790000Y-56270000D01*
X168550000Y-58930000D02*
X168550000Y-56270000D01*
X155790000Y-56270000D02*
X168550000Y-56270000D01*
%TO.C,J6*%
X148315000Y-85700000D02*
X149055000Y-85700000D01*
X149055000Y-85700000D02*
X149055000Y-85200000D01*
X140395000Y-85460000D02*
X148815000Y-85460000D01*
X140395000Y-85460000D02*
X140395000Y-75340000D01*
X142454000Y-85460000D02*
X142454000Y-75340000D01*
X146755000Y-85460000D02*
X146755000Y-75340000D01*
X148255000Y-85460000D02*
X148255000Y-75340000D01*
X148815000Y-85460000D02*
X148815000Y-75340000D01*
X140455000Y-83900000D02*
X141455000Y-83900000D01*
X140455000Y-83900000D02*
X140455000Y-81900000D01*
X141455000Y-83900000D02*
X141455000Y-81900000D01*
X140455000Y-81900000D02*
X141455000Y-81900000D01*
X145778000Y-79127000D02*
X145824000Y-79174000D01*
X145994000Y-78934000D02*
X146029000Y-78969000D01*
X140455000Y-78900000D02*
X141455000Y-78900000D01*
X140455000Y-78900000D02*
X140455000Y-76900000D01*
X141455000Y-78900000D02*
X141455000Y-76900000D01*
X140455000Y-76900000D02*
X141455000Y-76900000D01*
X143480000Y-76830000D02*
X143516000Y-76865000D01*
X143686000Y-76625000D02*
X143732000Y-76672000D01*
X140395000Y-75340000D02*
X148815000Y-75340000D01*
X145438042Y-84435427D02*
G75*
G02*
X144071000Y-84435000I-683041J1535420D01*
G01*
X143219573Y-83583042D02*
G75*
G02*
X143220000Y-82216000I1535420J683041D01*
G01*
X146435253Y-82871195D02*
G75*
G02*
X146290000Y-83584000I-1680254J-28806D01*
G01*
X146289756Y-82216682D02*
G75*
G02*
X146435000Y-82900000I-1534756J-683318D01*
G01*
X144071958Y-81364573D02*
G75*
G02*
X145439000Y-81365000I683042J-1535427D01*
G01*
X146435000Y-77900000D02*
G75*
G02*
X143075000Y-77900000I-1680000J0D01*
G01*
X143075000Y-77900000D02*
G75*
G02*
X146435000Y-77900000I1680000J0D01*
G01*
%TO.C,J5*%
X188360000Y-85300000D02*
X189100000Y-85300000D01*
X189100000Y-85300000D02*
X189100000Y-84800000D01*
X180440000Y-85060000D02*
X188860000Y-85060000D01*
X180440000Y-85060000D02*
X180440000Y-74940000D01*
X182499000Y-85060000D02*
X182499000Y-74940000D01*
X186800000Y-85060000D02*
X186800000Y-74940000D01*
X188300000Y-85060000D02*
X188300000Y-74940000D01*
X188860000Y-85060000D02*
X188860000Y-74940000D01*
X180500000Y-83500000D02*
X181500000Y-83500000D01*
X180500000Y-83500000D02*
X180500000Y-81500000D01*
X181500000Y-83500000D02*
X181500000Y-81500000D01*
X180500000Y-81500000D02*
X181500000Y-81500000D01*
X185823000Y-78727000D02*
X185869000Y-78774000D01*
X186039000Y-78534000D02*
X186074000Y-78569000D01*
X180500000Y-78500000D02*
X181500000Y-78500000D01*
X180500000Y-78500000D02*
X180500000Y-76500000D01*
X181500000Y-78500000D02*
X181500000Y-76500000D01*
X180500000Y-76500000D02*
X181500000Y-76500000D01*
X183525000Y-76430000D02*
X183561000Y-76465000D01*
X183731000Y-76225000D02*
X183777000Y-76272000D01*
X180440000Y-74940000D02*
X188860000Y-74940000D01*
X185483042Y-84035427D02*
G75*
G02*
X184116000Y-84035000I-683041J1535420D01*
G01*
X183264573Y-83183042D02*
G75*
G02*
X183265000Y-81816000I1535420J683041D01*
G01*
X186480253Y-82471195D02*
G75*
G02*
X186335000Y-83184000I-1680254J-28806D01*
G01*
X186334756Y-81816682D02*
G75*
G02*
X186480000Y-82500000I-1534756J-683318D01*
G01*
X184116958Y-80964573D02*
G75*
G02*
X185484000Y-80965000I683042J-1535427D01*
G01*
X186480000Y-77500000D02*
G75*
G02*
X183120000Y-77500000I-1680000J0D01*
G01*
X183120000Y-77500000D02*
G75*
G02*
X186480000Y-77500000I1680000J0D01*
G01*
%TO.C,J4*%
X142590000Y-90440000D02*
X140090000Y-90440000D01*
X140090000Y-90440000D02*
X140090000Y-92940000D01*
X144410000Y-90740000D02*
X140390000Y-90740000D01*
X142700000Y-90740000D02*
X142700000Y-91240000D01*
X141890000Y-90740000D02*
X141890000Y-91740000D01*
X140390000Y-90740000D02*
X140390000Y-98460000D01*
X143910000Y-91240000D02*
X143910000Y-97960000D01*
X142700000Y-91240000D02*
X143910000Y-91240000D01*
X141890000Y-91740000D02*
X140390000Y-91740000D01*
X141890000Y-97460000D02*
X140390000Y-97460000D01*
X143910000Y-97960000D02*
X142700000Y-97960000D01*
X142700000Y-97960000D02*
X142700000Y-98460000D01*
X144410000Y-98460000D02*
X144410000Y-90740000D01*
X141890000Y-98460000D02*
X141890000Y-97460000D01*
X140390000Y-98460000D02*
X144410000Y-98460000D01*
%TO.C,J3*%
X186610000Y-98560000D02*
X189110000Y-98560000D01*
X189110000Y-98560000D02*
X189110000Y-96060000D01*
X184790000Y-98260000D02*
X188810000Y-98260000D01*
X186500000Y-98260000D02*
X186500000Y-97760000D01*
X187310000Y-98260000D02*
X187310000Y-97260000D01*
X188810000Y-98260000D02*
X188810000Y-90540000D01*
X185290000Y-97760000D02*
X185290000Y-91040000D01*
X186500000Y-97760000D02*
X185290000Y-97760000D01*
X187310000Y-97260000D02*
X188810000Y-97260000D01*
X187310000Y-91540000D02*
X188810000Y-91540000D01*
X185290000Y-91040000D02*
X186500000Y-91040000D01*
X186500000Y-91040000D02*
X186500000Y-90540000D01*
X184790000Y-90540000D02*
X184790000Y-98260000D01*
X187310000Y-90540000D02*
X187310000Y-91540000D01*
X188810000Y-90540000D02*
X184790000Y-90540000D01*
%TO.C,J2*%
X186910000Y-73910000D02*
X189410000Y-73910000D01*
X189410000Y-73910000D02*
X189410000Y-71410000D01*
X185090000Y-73610000D02*
X189110000Y-73610000D01*
X186800000Y-73610000D02*
X186800000Y-73110000D01*
X187610000Y-73610000D02*
X187610000Y-72610000D01*
X189110000Y-73610000D02*
X189110000Y-65890000D01*
X185590000Y-73110000D02*
X185590000Y-66390000D01*
X186800000Y-73110000D02*
X185590000Y-73110000D01*
X187610000Y-72610000D02*
X189110000Y-72610000D01*
X187610000Y-66890000D02*
X189110000Y-66890000D01*
X185590000Y-66390000D02*
X186800000Y-66390000D01*
X186800000Y-66390000D02*
X186800000Y-65890000D01*
X185090000Y-65890000D02*
X185090000Y-73610000D01*
X187610000Y-65890000D02*
X187610000Y-66890000D01*
X189110000Y-65890000D02*
X185090000Y-65890000D01*
%TO.C,J1*%
X142310000Y-72560000D02*
X144810000Y-72560000D01*
X144810000Y-72560000D02*
X144810000Y-70060000D01*
X140490000Y-72260000D02*
X144510000Y-72260000D01*
X142200000Y-72260000D02*
X142200000Y-71760000D01*
X143010000Y-72260000D02*
X143010000Y-71260000D01*
X144510000Y-72260000D02*
X144510000Y-64540000D01*
X140990000Y-71760000D02*
X140990000Y-65040000D01*
X142200000Y-71760000D02*
X140990000Y-71760000D01*
X143010000Y-71260000D02*
X144510000Y-71260000D01*
X143010000Y-65540000D02*
X144510000Y-65540000D01*
X140990000Y-65040000D02*
X142200000Y-65040000D01*
X142200000Y-65040000D02*
X142200000Y-64540000D01*
X140490000Y-64540000D02*
X140490000Y-72260000D01*
X143010000Y-64540000D02*
X143010000Y-65540000D01*
X144510000Y-64540000D02*
X140490000Y-64540000D01*
%TO.C,FB1*%
X171760000Y-70115000D02*
X169840000Y-70115000D01*
X169840000Y-70115000D02*
X169840000Y-72975000D01*
X171760000Y-72975000D02*
X171760000Y-70115000D01*
%TO.C,D5*%
X167160000Y-70140000D02*
X165240000Y-70140000D01*
X165240000Y-70140000D02*
X165240000Y-73000000D01*
X167160000Y-73000000D02*
X167160000Y-70140000D01*
%TO.C,D4*%
X166160000Y-62140000D02*
X164240000Y-62140000D01*
X164240000Y-62140000D02*
X164240000Y-65000000D01*
X166160000Y-65000000D02*
X166160000Y-62140000D01*
%TO.C,D3*%
X150290000Y-98150000D02*
X150290000Y-101450000D01*
X150290000Y-98150000D02*
X155800000Y-98150000D01*
X150290000Y-101450000D02*
X155800000Y-101450000D01*
%TO.C,D2*%
X152140000Y-71840000D02*
X152140000Y-73760000D01*
X152140000Y-73760000D02*
X155000000Y-73760000D01*
X155000000Y-71840000D02*
X152140000Y-71840000D01*
%TO.C,D1*%
X152140000Y-69635000D02*
X152140000Y-71555000D01*
X152140000Y-71555000D02*
X155000000Y-71555000D01*
X155000000Y-69635000D02*
X152140000Y-69635000D01*
%TO.C,C15*%
X158972500Y-63738748D02*
X158972500Y-64261252D01*
X157502500Y-63738748D02*
X157502500Y-64261252D01*
%TO.C,C14*%
X161335000Y-63738748D02*
X161335000Y-64261252D01*
X159865000Y-63738748D02*
X159865000Y-64261252D01*
%TO.C,C13*%
X146535000Y-61938748D02*
X146535000Y-62461252D01*
X145065000Y-61938748D02*
X145065000Y-62461252D01*
%TO.C,C12*%
X148735000Y-61938748D02*
X148735000Y-62461252D01*
X147265000Y-61938748D02*
X147265000Y-62461252D01*
%TO.C,C11*%
X181960000Y-92265000D02*
X175640000Y-92265000D01*
X175640000Y-92265000D02*
X175640000Y-100450000D01*
X181960000Y-100450000D02*
X181960000Y-92265000D01*
%TO.C,C10*%
X148135000Y-99338748D02*
X148135000Y-99861252D01*
X146665000Y-99338748D02*
X146665000Y-99861252D01*
%TO.C,C9*%
X166335000Y-87301248D02*
X166335000Y-87823752D01*
X164865000Y-87301248D02*
X164865000Y-87823752D01*
%TO.C,C8*%
X168535000Y-87301248D02*
X168535000Y-87823752D01*
X167065000Y-87301248D02*
X167065000Y-87823752D01*
%TO.C,C7*%
X170735000Y-87301248D02*
X170735000Y-87823752D01*
X169265000Y-87301248D02*
X169265000Y-87823752D01*
%TO.C,C6*%
X172935000Y-87301248D02*
X172935000Y-87823752D01*
X171465000Y-87301248D02*
X171465000Y-87823752D01*
%TO.C,C5*%
X157625000Y-79285000D02*
X157000000Y-79285000D01*
X157312500Y-79597500D02*
X157312500Y-78972500D01*
X156760000Y-79295563D02*
X156760000Y-78660000D01*
X156760000Y-79295563D02*
X155695563Y-80360000D01*
X156760000Y-75904437D02*
X156760000Y-76540000D01*
X156760000Y-75904437D02*
X155695563Y-74840000D01*
X155695563Y-80360000D02*
X151240000Y-80360000D01*
X155695563Y-74840000D02*
X151240000Y-74840000D01*
X151240000Y-80360000D02*
X151240000Y-78660000D01*
X151240000Y-74840000D02*
X151240000Y-76540000D01*
%TO.C,C4*%
X157825000Y-85885000D02*
X157200000Y-85885000D01*
X157512500Y-86197500D02*
X157512500Y-85572500D01*
X156960000Y-85895563D02*
X156960000Y-85260000D01*
X156960000Y-85895563D02*
X155895563Y-86960000D01*
X156960000Y-82504437D02*
X156960000Y-83140000D01*
X156960000Y-82504437D02*
X155895563Y-81440000D01*
X155895563Y-86960000D02*
X151440000Y-86960000D01*
X155895563Y-81440000D02*
X151440000Y-81440000D01*
X151440000Y-86960000D02*
X151440000Y-85260000D01*
X151440000Y-81440000D02*
X151440000Y-83140000D01*
%TO.C,C3*%
X177576248Y-77265000D02*
X178098752Y-77265000D01*
X177576248Y-78735000D02*
X178098752Y-78735000D01*
%TO.C,C2*%
X177576248Y-75065000D02*
X178098752Y-75065000D01*
X177576248Y-76535000D02*
X178098752Y-76535000D01*
%TO.C,C1*%
X160701248Y-83265000D02*
X161223752Y-83265000D01*
X160701248Y-84735000D02*
X161223752Y-84735000D01*
%TD*%
M02*
