%TF.GenerationSoftware,KiCad,Pcbnew,8.0.5*%
%TF.CreationDate,2025-08-31T17:26:02+07:00*%
%TF.ProjectId,Buck_Drone_Boit,4275636b-5f44-4726-9f6e-655f426f6974,rev?*%
%TF.SameCoordinates,Original*%
%TF.FileFunction,Paste,Top*%
%TF.FilePolarity,Positive*%
%FSLAX46Y46*%
G04 Gerber Fmt 4.6, Leading zero omitted, Abs format (unit mm)*
G04 Created by KiCad (PCBNEW 8.0.5) date 2025-08-31 17:26:02*
%MOMM*%
%LPD*%
G01*
G04 APERTURE LIST*
G04 Aperture macros list*
%AMRoundRect*
0 Rectangle with rounded corners*
0 $1 Rounding radius*
0 $2 $3 $4 $5 $6 $7 $8 $9 X,Y pos of 4 corners*
0 Add a 4 corners polygon primitive as box body*
4,1,4,$2,$3,$4,$5,$6,$7,$8,$9,$2,$3,0*
0 Add four circle primitives for the rounded corners*
1,1,$1+$1,$2,$3*
1,1,$1+$1,$4,$5*
1,1,$1+$1,$6,$7*
1,1,$1+$1,$8,$9*
0 Add four rect primitives between the rounded corners*
20,1,$1+$1,$2,$3,$4,$5,0*
20,1,$1+$1,$4,$5,$6,$7,0*
20,1,$1+$1,$6,$7,$8,$9,0*
20,1,$1+$1,$8,$9,$2,$3,0*%
G04 Aperture macros list end*
%ADD10R,1.970000X0.570000*%
%ADD11RoundRect,0.375000X0.375000X-0.625000X0.375000X0.625000X-0.375000X0.625000X-0.375000X-0.625000X0*%
%ADD12RoundRect,0.500000X1.400000X-0.500000X1.400000X0.500000X-1.400000X0.500000X-1.400000X-0.500000X0*%
%ADD13R,1.550000X0.600000*%
%ADD14R,2.600000X3.100000*%
%ADD15RoundRect,0.250000X0.475000X-0.337500X0.475000X0.337500X-0.475000X0.337500X-0.475000X-0.337500X0*%
%ADD16RoundRect,0.250000X-0.475000X0.337500X-0.475000X-0.337500X0.475000X-0.337500X0.475000X0.337500X0*%
%ADD17RoundRect,0.250000X0.350000X0.450000X-0.350000X0.450000X-0.350000X-0.450000X0.350000X-0.450000X0*%
%ADD18RoundRect,0.250000X-0.350000X-0.450000X0.350000X-0.450000X0.350000X0.450000X-0.350000X0.450000X0*%
%ADD19R,2.900000X4.500000*%
%ADD20R,1.300000X3.000000*%
%ADD21RoundRect,0.250000X-0.450000X0.325000X-0.450000X-0.325000X0.450000X-0.325000X0.450000X0.325000X0*%
%ADD22RoundRect,0.250000X-1.000000X-0.650000X1.000000X-0.650000X1.000000X0.650000X-1.000000X0.650000X0*%
%ADD23RoundRect,0.250000X-0.325000X-0.450000X0.325000X-0.450000X0.325000X0.450000X-0.325000X0.450000X0*%
%ADD24RoundRect,0.250001X-1.399999X0.837499X-1.399999X-0.837499X1.399999X-0.837499X1.399999X0.837499X0*%
%ADD25RoundRect,0.250000X-0.475000X0.250000X-0.475000X-0.250000X0.475000X-0.250000X0.475000X0.250000X0*%
%ADD26RoundRect,0.250000X1.250000X0.550000X-1.250000X0.550000X-1.250000X-0.550000X1.250000X-0.550000X0*%
%ADD27RoundRect,0.250000X-0.337500X-0.475000X0.337500X-0.475000X0.337500X0.475000X-0.337500X0.475000X0*%
G04 APERTURE END LIST*
D10*
%TO.C,U1*%
X167250000Y-78990000D03*
X167250000Y-80260000D03*
X167250000Y-81530000D03*
X167250000Y-82800000D03*
X172200000Y-82800000D03*
X172200000Y-81530000D03*
X172200000Y-80260000D03*
X172200000Y-78990000D03*
%TD*%
D11*
%TO.C,U3*%
X150900000Y-67350000D03*
X153200000Y-67350000D03*
D12*
X153200000Y-61050000D03*
D11*
X155500000Y-67350000D03*
%TD*%
D13*
%TO.C,U2*%
X156700000Y-96705000D03*
X156700000Y-95435000D03*
X156700000Y-94165000D03*
X156700000Y-92895000D03*
X151300000Y-92895000D03*
X151300000Y-94165000D03*
X151300000Y-95435000D03*
X151300000Y-96705000D03*
D14*
X154000000Y-94800000D03*
%TD*%
D15*
%TO.C,R11*%
X168600000Y-73012500D03*
X168600000Y-70937500D03*
%TD*%
D16*
%TO.C,R10*%
X163000000Y-62962500D03*
X163000000Y-65037500D03*
%TD*%
D17*
%TO.C,R9*%
X153200000Y-90850000D03*
X151200000Y-90850000D03*
%TD*%
%TO.C,R8*%
X157200000Y-90800000D03*
X155200000Y-90800000D03*
%TD*%
D18*
%TO.C,R7*%
X149000000Y-72800000D03*
X151000000Y-72800000D03*
%TD*%
%TO.C,R6*%
X149000000Y-70600000D03*
X151000000Y-70600000D03*
%TD*%
%TO.C,R5*%
X176800000Y-85000000D03*
X178800000Y-85000000D03*
%TD*%
D17*
%TO.C,R4*%
X178875000Y-80200000D03*
X176875000Y-80200000D03*
%TD*%
D18*
%TO.C,R3*%
X159962500Y-81800000D03*
X161962500Y-81800000D03*
%TD*%
D17*
%TO.C,R2*%
X161962500Y-77400000D03*
X159962500Y-77400000D03*
%TD*%
%TO.C,R1*%
X161962500Y-79600000D03*
X159962500Y-79600000D03*
%TD*%
D19*
%TO.C,L1*%
X161550000Y-98600000D03*
X172050000Y-98600000D03*
%TD*%
D20*
%TO.C,J9*%
X180512500Y-70002500D03*
X178012500Y-70002500D03*
X176012500Y-70002500D03*
X173512500Y-70002500D03*
%TD*%
D21*
%TO.C,FB1*%
X170800000Y-70950000D03*
X170800000Y-73000000D03*
%TD*%
%TO.C,D5*%
X166200000Y-70975000D03*
X166200000Y-73025000D03*
%TD*%
%TO.C,D4*%
X165200000Y-62975000D03*
X165200000Y-65025000D03*
%TD*%
D22*
%TO.C,D3*%
X151800000Y-99800000D03*
X155800000Y-99800000D03*
%TD*%
D23*
%TO.C,D2*%
X152975000Y-72800000D03*
X155025000Y-72800000D03*
%TD*%
%TO.C,D1*%
X152975000Y-70595000D03*
X155025000Y-70595000D03*
%TD*%
D16*
%TO.C,C15*%
X158237500Y-62962500D03*
X158237500Y-65037500D03*
%TD*%
%TO.C,C14*%
X160600000Y-62962500D03*
X160600000Y-65037500D03*
%TD*%
%TO.C,C13*%
X145800000Y-61162500D03*
X145800000Y-63237500D03*
%TD*%
%TO.C,C12*%
X148000000Y-61162500D03*
X148000000Y-63237500D03*
%TD*%
D24*
%TO.C,C11*%
X178800000Y-93612500D03*
X178800000Y-99987500D03*
%TD*%
D25*
%TO.C,C10*%
X147400000Y-98650000D03*
X147400000Y-100550000D03*
%TD*%
D16*
%TO.C,C9*%
X165600000Y-86525000D03*
X165600000Y-88600000D03*
%TD*%
%TO.C,C8*%
X167800000Y-86525000D03*
X167800000Y-88600000D03*
%TD*%
%TO.C,C7*%
X170000000Y-86525000D03*
X170000000Y-88600000D03*
%TD*%
%TO.C,C6*%
X172200000Y-86525000D03*
X172200000Y-88600000D03*
%TD*%
D26*
%TO.C,C5*%
X156200000Y-77600000D03*
X151800000Y-77600000D03*
%TD*%
%TO.C,C4*%
X156400000Y-84200000D03*
X152000000Y-84200000D03*
%TD*%
D27*
%TO.C,C3*%
X176800000Y-78000000D03*
X178875000Y-78000000D03*
%TD*%
%TO.C,C2*%
X176800000Y-75800000D03*
X178875000Y-75800000D03*
%TD*%
%TO.C,C1*%
X159925000Y-84000000D03*
X162000000Y-84000000D03*
%TD*%
M02*
