%TF.GenerationSoftware,KiCad,Pcbnew,8.0.5*%
%TF.CreationDate,2025-08-31T17:26:02+07:00*%
%TF.ProjectId,Buck_Drone_Boit,4275636b-5f44-4726-9f6e-655f426f6974,rev?*%
%TF.SameCoordinates,Original*%
%TF.FileFunction,Copper,L1,Top*%
%TF.FilePolarity,Positive*%
%FSLAX46Y46*%
G04 Gerber Fmt 4.6, Leading zero omitted, Abs format (unit mm)*
G04 Created by KiCad (PCBNEW 8.0.5) date 2025-08-31 17:26:02*
%MOMM*%
%LPD*%
G01*
G04 APERTURE LIST*
G04 Aperture macros list*
%AMRoundRect*
0 Rectangle with rounded corners*
0 $1 Rounding radius*
0 $2 $3 $4 $5 $6 $7 $8 $9 X,Y pos of 4 corners*
0 Add a 4 corners polygon primitive as box body*
4,1,4,$2,$3,$4,$5,$6,$7,$8,$9,$2,$3,0*
0 Add four circle primitives for the rounded corners*
1,1,$1+$1,$2,$3*
1,1,$1+$1,$4,$5*
1,1,$1+$1,$6,$7*
1,1,$1+$1,$8,$9*
0 Add four rect primitives between the rounded corners*
20,1,$1+$1,$2,$3,$4,$5,0*
20,1,$1+$1,$4,$5,$6,$7,0*
20,1,$1+$1,$6,$7,$8,$9,0*
20,1,$1+$1,$8,$9,$2,$3,0*%
G04 Aperture macros list end*
%TA.AperFunction,SMDPad,CuDef*%
%ADD10R,1.970000X0.570000*%
%TD*%
%TA.AperFunction,SMDPad,CuDef*%
%ADD11RoundRect,0.375000X0.375000X-0.625000X0.375000X0.625000X-0.375000X0.625000X-0.375000X-0.625000X0*%
%TD*%
%TA.AperFunction,SMDPad,CuDef*%
%ADD12RoundRect,0.500000X1.400000X-0.500000X1.400000X0.500000X-1.400000X0.500000X-1.400000X-0.500000X0*%
%TD*%
%TA.AperFunction,SMDPad,CuDef*%
%ADD13R,1.550000X0.600000*%
%TD*%
%TA.AperFunction,ComponentPad*%
%ADD14C,0.600000*%
%TD*%
%TA.AperFunction,SMDPad,CuDef*%
%ADD15R,2.600000X3.100000*%
%TD*%
%TA.AperFunction,SMDPad,CuDef*%
%ADD16R,2.950000X4.500000*%
%TD*%
%TA.AperFunction,SMDPad,CuDef*%
%ADD17RoundRect,0.250000X0.475000X-0.337500X0.475000X0.337500X-0.475000X0.337500X-0.475000X-0.337500X0*%
%TD*%
%TA.AperFunction,SMDPad,CuDef*%
%ADD18RoundRect,0.250000X-0.475000X0.337500X-0.475000X-0.337500X0.475000X-0.337500X0.475000X0.337500X0*%
%TD*%
%TA.AperFunction,SMDPad,CuDef*%
%ADD19RoundRect,0.250000X0.350000X0.450000X-0.350000X0.450000X-0.350000X-0.450000X0.350000X-0.450000X0*%
%TD*%
%TA.AperFunction,SMDPad,CuDef*%
%ADD20RoundRect,0.250000X-0.350000X-0.450000X0.350000X-0.450000X0.350000X0.450000X-0.350000X0.450000X0*%
%TD*%
%TA.AperFunction,SMDPad,CuDef*%
%ADD21R,2.900000X4.500000*%
%TD*%
%TA.AperFunction,SMDPad,CuDef*%
%ADD22R,1.300000X3.000000*%
%TD*%
%TA.AperFunction,ComponentPad*%
%ADD23O,1.000000X2.700000*%
%TD*%
%TA.AperFunction,ComponentPad*%
%ADD24R,1.700000X1.700000*%
%TD*%
%TA.AperFunction,ComponentPad*%
%ADD25O,1.700000X1.700000*%
%TD*%
%TA.AperFunction,ComponentPad*%
%ADD26R,2.600000X2.600000*%
%TD*%
%TA.AperFunction,ComponentPad*%
%ADD27C,2.600000*%
%TD*%
%TA.AperFunction,ComponentPad*%
%ADD28RoundRect,0.250000X-0.750000X0.600000X-0.750000X-0.600000X0.750000X-0.600000X0.750000X0.600000X0*%
%TD*%
%TA.AperFunction,ComponentPad*%
%ADD29O,2.000000X1.700000*%
%TD*%
%TA.AperFunction,ComponentPad*%
%ADD30RoundRect,0.250000X0.750000X-0.600000X0.750000X0.600000X-0.750000X0.600000X-0.750000X-0.600000X0*%
%TD*%
%TA.AperFunction,ComponentPad*%
%ADD31C,3.800000*%
%TD*%
%TA.AperFunction,SMDPad,CuDef*%
%ADD32RoundRect,0.250000X-0.450000X0.325000X-0.450000X-0.325000X0.450000X-0.325000X0.450000X0.325000X0*%
%TD*%
%TA.AperFunction,SMDPad,CuDef*%
%ADD33RoundRect,0.250000X-1.000000X-0.650000X1.000000X-0.650000X1.000000X0.650000X-1.000000X0.650000X0*%
%TD*%
%TA.AperFunction,SMDPad,CuDef*%
%ADD34RoundRect,0.250000X-0.325000X-0.450000X0.325000X-0.450000X0.325000X0.450000X-0.325000X0.450000X0*%
%TD*%
%TA.AperFunction,SMDPad,CuDef*%
%ADD35RoundRect,0.250001X-1.399999X0.837499X-1.399999X-0.837499X1.399999X-0.837499X1.399999X0.837499X0*%
%TD*%
%TA.AperFunction,SMDPad,CuDef*%
%ADD36RoundRect,0.250000X-0.475000X0.250000X-0.475000X-0.250000X0.475000X-0.250000X0.475000X0.250000X0*%
%TD*%
%TA.AperFunction,SMDPad,CuDef*%
%ADD37RoundRect,0.250000X1.250000X0.550000X-1.250000X0.550000X-1.250000X-0.550000X1.250000X-0.550000X0*%
%TD*%
%TA.AperFunction,SMDPad,CuDef*%
%ADD38RoundRect,0.250000X-0.337500X-0.475000X0.337500X-0.475000X0.337500X0.475000X-0.337500X0.475000X0*%
%TD*%
%TA.AperFunction,ViaPad*%
%ADD39C,0.600000*%
%TD*%
%TA.AperFunction,ViaPad*%
%ADD40C,1.016000*%
%TD*%
%TA.AperFunction,ViaPad*%
%ADD41C,0.762000*%
%TD*%
%TA.AperFunction,ViaPad*%
%ADD42C,1.000000*%
%TD*%
%TA.AperFunction,Conductor*%
%ADD43C,0.200000*%
%TD*%
%TA.AperFunction,Conductor*%
%ADD44C,0.381000*%
%TD*%
%TA.AperFunction,Conductor*%
%ADD45C,1.016000*%
%TD*%
%TA.AperFunction,Conductor*%
%ADD46C,0.508000*%
%TD*%
%TA.AperFunction,Conductor*%
%ADD47C,1.500000*%
%TD*%
%TA.AperFunction,Conductor*%
%ADD48C,0.635000*%
%TD*%
G04 APERTURE END LIST*
D10*
%TO.P,U1,1*%
%TO.N,/PA0*%
X167250000Y-78990000D03*
%TO.P,U1,2,-*%
%TO.N,Net-(U1A--)*%
X167250000Y-80260000D03*
%TO.P,U1,3,+*%
%TO.N,Net-(U1A-+)*%
X167250000Y-81530000D03*
%TO.P,U1,4,V-*%
%TO.N,GND*%
X167250000Y-82800000D03*
%TO.P,U1,5,+*%
%TO.N,unconnected-(U1B-+-Pad5)*%
X172200000Y-82800000D03*
%TO.P,U1,6,-*%
%TO.N,unconnected-(U1B---Pad6)*%
X172200000Y-81530000D03*
%TO.P,U1,7*%
%TO.N,unconnected-(U1-Pad7)*%
X172200000Y-80260000D03*
%TO.P,U1,8,V+*%
%TO.N,5V*%
X172200000Y-78990000D03*
%TD*%
D11*
%TO.P,U3,1,GND*%
%TO.N,GND*%
X150900000Y-67350000D03*
%TO.P,U3,2,VO*%
%TO.N,3V3*%
X153200000Y-67350000D03*
D12*
X153200000Y-61050000D03*
D11*
%TO.P,U3,3,VI*%
%TO.N,5V*%
X155500000Y-67350000D03*
%TD*%
D13*
%TO.P,U2,1,BOOT*%
%TO.N,Net-(U2-BOOT)*%
X156700000Y-96705000D03*
%TO.P,U2,2,NC*%
%TO.N,unconnected-(U2-NC-Pad2)*%
X156700000Y-95435000D03*
%TO.P,U2,3,NC*%
%TO.N,unconnected-(U2-NC-Pad3)*%
X156700000Y-94165000D03*
%TO.P,U2,4,VSENSE*%
%TO.N,Net-(U2-VSENSE)*%
X156700000Y-92895000D03*
%TO.P,U2,5,EN*%
%TO.N,unconnected-(U2-EN-Pad5)*%
X151300000Y-92895000D03*
%TO.P,U2,6,GND*%
%TO.N,GND*%
X151300000Y-94165000D03*
%TO.P,U2,7,VIN*%
%TO.N,24V*%
X151300000Y-95435000D03*
%TO.P,U2,8,PH*%
%TO.N,Net-(D3-K)*%
X151300000Y-96705000D03*
D14*
%TO.P,U2,9,GNDPAD*%
%TO.N,GND*%
X154600000Y-96600000D03*
X154600000Y-95400000D03*
X154600000Y-94100000D03*
X154600000Y-93000000D03*
D15*
X154000000Y-94800000D03*
D16*
X154000000Y-94800000D03*
D14*
X153400000Y-96600000D03*
X153400000Y-95400000D03*
X153400000Y-94100000D03*
X153400000Y-93000000D03*
%TD*%
D17*
%TO.P,R11,1*%
%TO.N,Net-(D5-A)*%
X168600000Y-73012500D03*
%TO.P,R11,2*%
%TO.N,Net-(FB1-Pad1)*%
X168600000Y-70937500D03*
%TD*%
D18*
%TO.P,R10,1*%
%TO.N,3V3*%
X163000000Y-62962500D03*
%TO.P,R10,2*%
%TO.N,Net-(D4-A)*%
X163000000Y-65037500D03*
%TD*%
D19*
%TO.P,R9,1*%
%TO.N,Net-(U2-VSENSE)*%
X153200000Y-90850000D03*
%TO.P,R9,2*%
%TO.N,GND*%
X151200000Y-90850000D03*
%TD*%
%TO.P,R8,1*%
%TO.N,5V*%
X157200000Y-90800000D03*
%TO.P,R8,2*%
%TO.N,Net-(U2-VSENSE)*%
X155200000Y-90800000D03*
%TD*%
D20*
%TO.P,R7,1*%
%TO.N,Net-(D2-K)*%
X149000000Y-72800000D03*
%TO.P,R7,2*%
%TO.N,GND*%
X151000000Y-72800000D03*
%TD*%
%TO.P,R6,1*%
%TO.N,Net-(D1-K)*%
X149000000Y-70600000D03*
%TO.P,R6,2*%
%TO.N,GND*%
X151000000Y-70600000D03*
%TD*%
%TO.P,R5,1*%
%TO.N,/PA0*%
X176800000Y-85000000D03*
%TO.P,R5,2*%
%TO.N,GND*%
X178800000Y-85000000D03*
%TD*%
D19*
%TO.P,R4,1*%
%TO.N,/PA0*%
X178875000Y-80200000D03*
%TO.P,R4,2*%
%TO.N,Net-(U1A--)*%
X176875000Y-80200000D03*
%TD*%
D20*
%TO.P,R3,1*%
%TO.N,GND*%
X159962500Y-81800000D03*
%TO.P,R3,2*%
%TO.N,Net-(U1A-+)*%
X161962500Y-81800000D03*
%TD*%
D19*
%TO.P,R2,1*%
%TO.N,Net-(U1A--)*%
X161962500Y-77400000D03*
%TO.P,R2,2*%
%TO.N,GND*%
X159962500Y-77400000D03*
%TD*%
%TO.P,R1,1*%
%TO.N,Net-(U1A-+)*%
X161962500Y-79600000D03*
%TO.P,R1,2*%
%TO.N,24V*%
X159962500Y-79600000D03*
%TD*%
D21*
%TO.P,L1,1,1*%
%TO.N,Net-(D3-K)*%
X161550000Y-98600000D03*
%TO.P,L1,2,2*%
%TO.N,5V*%
X172050000Y-98600000D03*
%TD*%
D22*
%TO.P,J9,1,VCC*%
%TO.N,5V*%
X180512500Y-70002500D03*
%TO.P,J9,2,D-*%
%TO.N,unconnected-(J9-D--Pad2)*%
X178012500Y-70002500D03*
%TO.P,J9,3,D+*%
%TO.N,unconnected-(J9-D+-Pad3)*%
X176012500Y-70002500D03*
%TO.P,J9,4,GND*%
%TO.N,GND*%
X173512500Y-70002500D03*
D23*
%TO.P,J9,SH1,SHIELD*%
%TO.N,unconnected-(J9-SHIELD-PadSH1)_1*%
X183412500Y-66302500D03*
%TO.P,J9,SH2,SHIELD*%
%TO.N,unconnected-(J9-SHIELD-PadSH1)*%
X170612500Y-66302500D03*
%TD*%
D24*
%TO.P,J8,1,Pin_1*%
%TO.N,/PA0*%
X147125000Y-57600000D03*
D25*
%TO.P,J8,2,Pin_2*%
%TO.N,GND*%
X149665000Y-57600000D03*
%TD*%
D24*
%TO.P,J7,1,Pin_1*%
%TO.N,5V*%
X154520000Y-57600000D03*
D25*
%TO.P,J7,2,Pin_2*%
%TO.N,3V3*%
X157060000Y-57600000D03*
%TO.P,J7,3,Pin_3*%
%TO.N,unconnected-(J7-Pin_3-Pad3)*%
X159600000Y-57600000D03*
%TO.P,J7,4,Pin_4*%
%TO.N,unconnected-(J7-Pin_4-Pad4)*%
X162140000Y-57600000D03*
%TO.P,J7,5,Pin_5*%
%TO.N,GND*%
X164680000Y-57600000D03*
%TO.P,J7,6,Pin_6*%
X167220000Y-57600000D03*
%TD*%
D26*
%TO.P,J6,1,+*%
%TO.N,24V*%
X144755000Y-82900000D03*
D27*
%TO.P,J6,2,-*%
%TO.N,GND_IN*%
X144755000Y-77900000D03*
%TD*%
D26*
%TO.P,J5,1,+*%
%TO.N,24V*%
X184800000Y-82500000D03*
D27*
%TO.P,J5,2,-*%
%TO.N,GND_IN*%
X184800000Y-77500000D03*
%TD*%
D28*
%TO.P,J4,1,1*%
%TO.N,GND_IN*%
X142700000Y-93350000D03*
D29*
%TO.P,J4,2,2*%
%TO.N,24V*%
X142700000Y-95850000D03*
%TD*%
D30*
%TO.P,J3,1,1*%
%TO.N,GND_IN*%
X186500000Y-95650000D03*
D29*
%TO.P,J3,2,2*%
%TO.N,24V*%
X186500000Y-93150000D03*
%TD*%
D30*
%TO.P,J2,1,1*%
%TO.N,GND_IN*%
X186800000Y-71000000D03*
D29*
%TO.P,J2,2,2*%
%TO.N,24V*%
X186800000Y-68500000D03*
%TD*%
D30*
%TO.P,J1,1,1*%
%TO.N,GND_IN*%
X142200000Y-69650000D03*
D29*
%TO.P,J1,2,2*%
%TO.N,24V*%
X142200000Y-67150000D03*
%TD*%
D31*
%TO.P,H4,1*%
%TO.N,N/C*%
X187200000Y-103000000D03*
%TD*%
%TO.P,H3,1*%
%TO.N,N/C*%
X187200000Y-57800000D03*
%TD*%
%TO.P,H2,1*%
%TO.N,N/C*%
X142000000Y-57800000D03*
%TD*%
%TO.P,H1,1*%
%TO.N,N/C*%
X142000000Y-103000000D03*
%TD*%
D32*
%TO.P,FB1,1*%
%TO.N,Net-(FB1-Pad1)*%
X170800000Y-70950000D03*
%TO.P,FB1,2*%
%TO.N,5V*%
X170800000Y-73000000D03*
%TD*%
%TO.P,D5,1,K*%
%TO.N,GND*%
X166200000Y-70975000D03*
%TO.P,D5,2,A*%
%TO.N,Net-(D5-A)*%
X166200000Y-73025000D03*
%TD*%
%TO.P,D4,1,K*%
%TO.N,GND*%
X165200000Y-62975000D03*
%TO.P,D4,2,A*%
%TO.N,Net-(D4-A)*%
X165200000Y-65025000D03*
%TD*%
D33*
%TO.P,D3,1,K*%
%TO.N,Net-(D3-K)*%
X151800000Y-99800000D03*
%TO.P,D3,2,A*%
%TO.N,GND*%
X155800000Y-99800000D03*
%TD*%
D34*
%TO.P,D2,1,K*%
%TO.N,Net-(D2-K)*%
X152975000Y-72800000D03*
%TO.P,D2,2,A*%
%TO.N,5V*%
X155025000Y-72800000D03*
%TD*%
%TO.P,D1,1,K*%
%TO.N,Net-(D1-K)*%
X152975000Y-70595000D03*
%TO.P,D1,2,A*%
%TO.N,5V*%
X155025000Y-70595000D03*
%TD*%
D18*
%TO.P,C15,1*%
%TO.N,3V3*%
X158237500Y-62962500D03*
%TO.P,C15,2*%
%TO.N,GND*%
X158237500Y-65037500D03*
%TD*%
%TO.P,C14,1*%
%TO.N,3V3*%
X160600000Y-62962500D03*
%TO.P,C14,2*%
%TO.N,GND*%
X160600000Y-65037500D03*
%TD*%
%TO.P,C13,1*%
%TO.N,5V*%
X145800000Y-61162500D03*
%TO.P,C13,2*%
%TO.N,GND*%
X145800000Y-63237500D03*
%TD*%
%TO.P,C12,1*%
%TO.N,5V*%
X148000000Y-61162500D03*
%TO.P,C12,2*%
%TO.N,GND*%
X148000000Y-63237500D03*
%TD*%
D35*
%TO.P,C11,1*%
%TO.N,5V*%
X178800000Y-93612500D03*
%TO.P,C11,2*%
%TO.N,GND*%
X178800000Y-99987500D03*
%TD*%
D36*
%TO.P,C10,1*%
%TO.N,Net-(U2-BOOT)*%
X147400000Y-98650000D03*
%TO.P,C10,2*%
%TO.N,Net-(D3-K)*%
X147400000Y-100550000D03*
%TD*%
D18*
%TO.P,C9,1*%
%TO.N,5V*%
X165600000Y-86525000D03*
%TO.P,C9,2*%
%TO.N,GND*%
X165600000Y-88600000D03*
%TD*%
%TO.P,C8,1*%
%TO.N,5V*%
X167800000Y-86525000D03*
%TO.P,C8,2*%
%TO.N,GND*%
X167800000Y-88600000D03*
%TD*%
%TO.P,C7,1*%
%TO.N,5V*%
X170000000Y-86525000D03*
%TO.P,C7,2*%
%TO.N,GND*%
X170000000Y-88600000D03*
%TD*%
%TO.P,C6,1*%
%TO.N,5V*%
X172200000Y-86525000D03*
%TO.P,C6,2*%
%TO.N,GND*%
X172200000Y-88600000D03*
%TD*%
D37*
%TO.P,C5,1*%
%TO.N,24V*%
X156200000Y-77600000D03*
%TO.P,C5,2*%
%TO.N,GND_IN*%
X151800000Y-77600000D03*
%TD*%
%TO.P,C4,1*%
%TO.N,24V*%
X156400000Y-84200000D03*
%TO.P,C4,2*%
%TO.N,GND_IN*%
X152000000Y-84200000D03*
%TD*%
D38*
%TO.P,C3,1*%
%TO.N,Net-(U1A--)*%
X176800000Y-78000000D03*
%TO.P,C3,2*%
%TO.N,GND*%
X178875000Y-78000000D03*
%TD*%
%TO.P,C2,1*%
%TO.N,Net-(U1A-+)*%
X176800000Y-75800000D03*
%TO.P,C2,2*%
%TO.N,GND*%
X178875000Y-75800000D03*
%TD*%
%TO.P,C1,1*%
%TO.N,GND*%
X159925000Y-84000000D03*
%TO.P,C1,2*%
%TO.N,Net-(U1A-+)*%
X162000000Y-84000000D03*
%TD*%
D39*
%TO.N,Net-(U1A-+)*%
X175200000Y-75600000D03*
X163600000Y-79200000D03*
%TO.N,GND*%
X157400000Y-87600000D03*
%TO.N,GND_IN*%
X181800000Y-86000000D03*
X154000000Y-87400000D03*
%TO.N,5V*%
X174800000Y-72600000D03*
X172800000Y-73200000D03*
%TO.N,GND*%
X181200000Y-75800000D03*
X181400000Y-78000000D03*
%TO.N,Net-(U1A--)*%
X170000000Y-80200000D03*
X172400000Y-76200000D03*
%TO.N,GND*%
X166200000Y-69000000D03*
X164000000Y-71000000D03*
X167200000Y-63000000D03*
%TO.N,3V3*%
X153766841Y-64433159D03*
X155600000Y-63600000D03*
%TO.N,GND*%
X160600000Y-66800000D03*
X158200000Y-66800000D03*
%TO.N,/PA0*%
X163400000Y-76200000D03*
%TO.N,GND*%
X149600000Y-59600000D03*
X145800000Y-65000000D03*
X148000000Y-65000000D03*
%TO.N,Net-(D1-K)*%
X151970000Y-71600000D03*
X150000000Y-71600000D03*
%TO.N,GND*%
X148800000Y-69000000D03*
X147800000Y-68400000D03*
X151000000Y-74000000D03*
%TO.N,5V*%
X170800000Y-75000000D03*
X169800000Y-77600000D03*
%TO.N,GND*%
X163600000Y-88600000D03*
D40*
%TO.N,24V*%
X157600000Y-86000000D03*
D39*
%TO.N,GND*%
X158000000Y-97800000D03*
X151800000Y-88800000D03*
X158200000Y-88200000D03*
X159962500Y-75800000D03*
X178800000Y-86800000D03*
X172200000Y-90400000D03*
X170000000Y-90400000D03*
X167800000Y-90400000D03*
X165600000Y-90400000D03*
%TO.N,GND_IN*%
X186500000Y-99300000D03*
%TO.N,GND*%
X182800000Y-100000000D03*
%TO.N,Net-(D3-K)*%
X160200000Y-102000000D03*
X152400000Y-98200000D03*
D41*
%TO.N,24V*%
X147300000Y-95100000D03*
D42*
X157400000Y-74400000D03*
%TD*%
D43*
%TO.N,GND*%
X179800000Y-86800000D02*
X181400000Y-85200000D01*
X181400000Y-85200000D02*
X181400000Y-78000000D01*
X178800000Y-86800000D02*
X179800000Y-86800000D01*
D44*
%TO.N,Net-(U1A-+)*%
X176600000Y-75600000D02*
X176800000Y-75800000D01*
X175200000Y-75600000D02*
X176600000Y-75600000D01*
X163200000Y-79600000D02*
X163600000Y-79200000D01*
X161962500Y-79600000D02*
X163200000Y-79600000D01*
D43*
%TO.N,GND*%
X158800000Y-87600000D02*
X157400000Y-87600000D01*
X159000000Y-87400000D02*
X158800000Y-87600000D01*
X159000000Y-87400000D02*
X158200000Y-88200000D01*
X159925000Y-86475000D02*
X159000000Y-87400000D01*
X163200000Y-85800000D02*
X160600000Y-85800000D01*
X163600000Y-85400000D02*
X163200000Y-85800000D01*
X164600000Y-82800000D02*
X163600000Y-83800000D01*
X160600000Y-85800000D02*
X159925000Y-86475000D01*
X167250000Y-82800000D02*
X164600000Y-82800000D01*
X163600000Y-83800000D02*
X163600000Y-85400000D01*
D45*
%TO.N,GND_IN*%
X186800000Y-75500000D02*
X186800000Y-71000000D01*
X184800000Y-77500000D02*
X186800000Y-75500000D01*
X142200000Y-75800000D02*
X142200000Y-69650000D01*
X144200000Y-77800000D02*
X142200000Y-75800000D01*
X146800000Y-77800000D02*
X144200000Y-77800000D01*
X146800000Y-77800000D02*
X145255000Y-77800000D01*
X148600000Y-77800000D02*
X146800000Y-77800000D01*
X142700000Y-89700000D02*
X142700000Y-93350000D01*
X145000000Y-87400000D02*
X142700000Y-89700000D01*
X154000000Y-87400000D02*
X145000000Y-87400000D01*
X181800000Y-90950000D02*
X181800000Y-86000000D01*
X186500000Y-95650000D02*
X181800000Y-90950000D01*
X184800000Y-78600000D02*
X184800000Y-77500000D01*
X183400000Y-79400000D02*
X184000000Y-79400000D01*
X182408000Y-80392000D02*
X183400000Y-79400000D01*
X182408000Y-85392000D02*
X182408000Y-80392000D01*
X181800000Y-86000000D02*
X182408000Y-85392000D01*
X184000000Y-79400000D02*
X184800000Y-78600000D01*
X152000000Y-84200000D02*
X152000000Y-85400000D01*
X152000000Y-85400000D02*
X154000000Y-87400000D01*
X150000000Y-77800000D02*
X152000000Y-79800000D01*
X148600000Y-77800000D02*
X150000000Y-77800000D01*
X151600000Y-77800000D02*
X148600000Y-77800000D01*
X152000000Y-79800000D02*
X152000000Y-84200000D01*
X145255000Y-77800000D02*
X145055000Y-77600000D01*
X151800000Y-77600000D02*
X151600000Y-77800000D01*
D43*
X145055000Y-77600000D02*
X144755000Y-77900000D01*
X152000000Y-77800000D02*
X151800000Y-77600000D01*
D46*
%TO.N,5V*%
X180512500Y-72087500D02*
X180512500Y-70002500D01*
X180000000Y-72600000D02*
X180512500Y-72087500D01*
X174800000Y-72600000D02*
X180000000Y-72600000D01*
X172600000Y-73000000D02*
X172800000Y-73200000D01*
X170800000Y-73000000D02*
X172600000Y-73000000D01*
D43*
%TO.N,GND*%
X178875000Y-75800000D02*
X181200000Y-75800000D01*
X178875000Y-78000000D02*
X181400000Y-78000000D01*
%TO.N,Net-(U1A--)*%
X169940000Y-80260000D02*
X167250000Y-80260000D01*
X170000000Y-80200000D02*
X169940000Y-80260000D01*
X175000000Y-76200000D02*
X172400000Y-76200000D01*
X176800000Y-78000000D02*
X175000000Y-76200000D01*
X176875000Y-78075000D02*
X176800000Y-78000000D01*
X176875000Y-80200000D02*
X176875000Y-78075000D01*
%TO.N,GND*%
X178875000Y-75800000D02*
X178875000Y-78000000D01*
X178875000Y-73675000D02*
X178875000Y-75800000D01*
X178400000Y-73200000D02*
X178875000Y-73675000D01*
X174000000Y-73200000D02*
X178400000Y-73200000D01*
X173512500Y-72712500D02*
X174000000Y-73200000D01*
X173512500Y-70002500D02*
X173512500Y-72712500D01*
X166200000Y-70975000D02*
X166200000Y-69000000D01*
X164025000Y-70975000D02*
X164000000Y-71000000D01*
X166200000Y-70975000D02*
X164025000Y-70975000D01*
%TO.N,Net-(FB1-Pad1)*%
X168612500Y-70950000D02*
X168600000Y-70937500D01*
X170800000Y-70950000D02*
X168612500Y-70950000D01*
%TO.N,Net-(D5-A)*%
X166212500Y-73012500D02*
X166200000Y-73025000D01*
X168600000Y-73012500D02*
X166212500Y-73012500D01*
%TO.N,Net-(D4-A)*%
X163012500Y-65025000D02*
X163000000Y-65037500D01*
X165200000Y-65025000D02*
X163012500Y-65025000D01*
D46*
%TO.N,GND*%
X167175000Y-62975000D02*
X167200000Y-63000000D01*
X165200000Y-62975000D02*
X167175000Y-62975000D01*
D43*
X160600000Y-65037500D02*
X158237500Y-65037500D01*
D44*
%TO.N,3V3*%
X153200000Y-65000000D02*
X153200000Y-67350000D01*
X153766841Y-64433159D02*
X153200000Y-65000000D01*
X156200000Y-63000000D02*
X155600000Y-63600000D01*
X156200000Y-62962500D02*
X156200000Y-63000000D01*
X156200000Y-62962500D02*
X158237500Y-62962500D01*
X155112500Y-62962500D02*
X156200000Y-62962500D01*
D46*
%TO.N,5V*%
X154520000Y-58680000D02*
X154520000Y-57600000D01*
X151000000Y-59200000D02*
X154000000Y-59200000D01*
X154000000Y-59200000D02*
X154520000Y-58680000D01*
X150354000Y-59846000D02*
X151000000Y-59200000D01*
X150354000Y-61646000D02*
X150354000Y-59846000D01*
X150200000Y-61800000D02*
X150354000Y-61646000D01*
X150200000Y-61800000D02*
X149562500Y-61162500D01*
X152000000Y-63600000D02*
X150200000Y-61800000D01*
D44*
%TO.N,3V3*%
X153200000Y-61050000D02*
X156350000Y-61050000D01*
X156350000Y-61050000D02*
X157060000Y-60340000D01*
X157060000Y-60340000D02*
X157060000Y-57600000D01*
D46*
%TO.N,GND*%
X164600000Y-62375000D02*
X164600000Y-57680000D01*
D43*
X164600000Y-57680000D02*
X164680000Y-57600000D01*
D46*
X165200000Y-62975000D02*
X164600000Y-62375000D01*
X164680000Y-57600000D02*
X167220000Y-57600000D01*
D43*
X160600000Y-65037500D02*
X160600000Y-66800000D01*
X158237500Y-66762500D02*
X158200000Y-66800000D01*
X158237500Y-65037500D02*
X158237500Y-66762500D01*
D44*
%TO.N,3V3*%
X158237500Y-62962500D02*
X163000000Y-62962500D01*
X153200000Y-61050000D02*
X155112500Y-62962500D01*
D43*
%TO.N,GND*%
X159962500Y-75800000D02*
X159962500Y-77400000D01*
%TO.N,/PA0*%
X163600000Y-76400000D02*
X163400000Y-76200000D01*
X166000000Y-76400000D02*
X163600000Y-76400000D01*
X166400000Y-76800000D02*
X166000000Y-76400000D01*
X166400000Y-76800000D02*
X166200000Y-76800000D01*
X174600000Y-76800000D02*
X166400000Y-76800000D01*
%TO.N,GND*%
X149665000Y-59535000D02*
X149600000Y-59600000D01*
X149665000Y-57600000D02*
X149665000Y-59535000D01*
X145800000Y-63237500D02*
X145800000Y-65000000D01*
X148000000Y-63237500D02*
X148000000Y-65000000D01*
X148000000Y-63237500D02*
X145800000Y-63237500D01*
D46*
%TO.N,5V*%
X149562500Y-61162500D02*
X145800000Y-61162500D01*
X155500000Y-65100000D02*
X154000000Y-63600000D01*
X154000000Y-63600000D02*
X152000000Y-63600000D01*
X155500000Y-67350000D02*
X155500000Y-65100000D01*
D43*
%TO.N,Net-(D1-K)*%
X150000000Y-71600000D02*
X149000000Y-70600000D01*
%TO.N,GND*%
X151000000Y-74000000D02*
X151000000Y-72800000D01*
%TO.N,Net-(D2-K)*%
X152200000Y-75200000D02*
X152975000Y-74425000D01*
X147800000Y-72800000D02*
X147400000Y-73200000D01*
X148600000Y-75200000D02*
X152200000Y-75200000D01*
X152975000Y-74425000D02*
X152975000Y-72800000D01*
X149000000Y-72800000D02*
X147800000Y-72800000D01*
X147400000Y-73200000D02*
X147400000Y-74000000D01*
X147400000Y-74000000D02*
X148600000Y-75200000D01*
%TO.N,Net-(D1-K)*%
X151970000Y-71600000D02*
X152975000Y-70595000D01*
%TO.N,GND*%
X150900000Y-69200000D02*
X149000000Y-69200000D01*
X150900000Y-69200000D02*
X150900000Y-72700000D01*
X149000000Y-69200000D02*
X148800000Y-69000000D01*
X150900000Y-67350000D02*
X150900000Y-69200000D01*
X148850000Y-67350000D02*
X147800000Y-68400000D01*
X150900000Y-67350000D02*
X148850000Y-67350000D01*
X150900000Y-72700000D02*
X151000000Y-72800000D01*
D46*
%TO.N,5V*%
X155500000Y-68700000D02*
X155500000Y-67350000D01*
X155025000Y-69175000D02*
X155500000Y-68700000D01*
X155025000Y-70595000D02*
X155025000Y-69175000D01*
X155025000Y-72800000D02*
X155025000Y-70595000D01*
X160600000Y-72800000D02*
X155025000Y-72800000D01*
X162800000Y-75000000D02*
X160600000Y-72800000D01*
X170800000Y-75000000D02*
X162800000Y-75000000D01*
X170800000Y-75000000D02*
X170800000Y-73000000D01*
X169800000Y-78400000D02*
X169800000Y-77600000D01*
X170390000Y-78990000D02*
X169800000Y-78400000D01*
X172200000Y-78990000D02*
X170390000Y-78990000D01*
D43*
%TO.N,GND*%
X165600000Y-88600000D02*
X163600000Y-88600000D01*
D47*
%TO.N,24V*%
X156400000Y-85600000D02*
X156400000Y-84200000D01*
X156800000Y-86000000D02*
X156400000Y-85600000D01*
X157600000Y-86000000D02*
X156800000Y-86000000D01*
D48*
%TO.N,Net-(D3-K)*%
X160200000Y-102000000D02*
X161200000Y-101000000D01*
X161200000Y-101000000D02*
X161200000Y-98950000D01*
X161200000Y-98950000D02*
X161550000Y-98600000D01*
%TO.N,GND*%
X156000000Y-99800000D02*
X158000000Y-97800000D01*
D43*
X155800000Y-99800000D02*
X156000000Y-99800000D01*
X154600000Y-98600000D02*
X155800000Y-99800000D01*
X154600000Y-96600000D02*
X154600000Y-98600000D01*
X151630000Y-94100000D02*
X153400000Y-94100000D01*
X151565000Y-94165000D02*
X151630000Y-94100000D01*
X151300000Y-94165000D02*
X151565000Y-94165000D01*
X152600000Y-92200000D02*
X153400000Y-93000000D01*
X152600000Y-92000000D02*
X152600000Y-92200000D01*
X152400000Y-91800000D02*
X152600000Y-92000000D01*
X151600000Y-91800000D02*
X152400000Y-91800000D01*
X151200000Y-91400000D02*
X151600000Y-91800000D01*
X151200000Y-90850000D02*
X151200000Y-91400000D01*
%TO.N,Net-(U2-VSENSE)*%
X156700000Y-92300000D02*
X156700000Y-92895000D01*
X156200000Y-91800000D02*
X156700000Y-92300000D01*
X155800000Y-91600000D02*
X156000000Y-91800000D01*
X156000000Y-91800000D02*
X156200000Y-91800000D01*
X155200000Y-90800000D02*
X155800000Y-91400000D01*
X155800000Y-91400000D02*
X155800000Y-91600000D01*
X155150000Y-90850000D02*
X155200000Y-90800000D01*
X153200000Y-90850000D02*
X155150000Y-90850000D01*
%TO.N,GND*%
X151200000Y-89400000D02*
X151800000Y-88800000D01*
X151200000Y-90850000D02*
X151200000Y-89400000D01*
X159925000Y-84000000D02*
X159925000Y-86475000D01*
X159000000Y-84000000D02*
X159925000Y-84000000D01*
X158800000Y-83800000D02*
X159000000Y-84000000D01*
X158600000Y-82800000D02*
X158800000Y-83000000D01*
X158800000Y-83000000D02*
X158800000Y-83800000D01*
X158600000Y-82600000D02*
X158600000Y-82800000D01*
X158200000Y-82200000D02*
X158600000Y-82600000D01*
X158200000Y-81000000D02*
X158200000Y-82200000D01*
X158200000Y-81000000D02*
X158200000Y-80800000D01*
X158200000Y-81200000D02*
X158200000Y-81000000D01*
X158800000Y-77400000D02*
X159962500Y-77400000D01*
X158400000Y-77800000D02*
X158800000Y-77400000D01*
X158400000Y-80600000D02*
X158400000Y-77800000D01*
X158837500Y-81837500D02*
X158200000Y-81200000D01*
X158200000Y-80800000D02*
X158400000Y-80600000D01*
X159925000Y-81837500D02*
X158837500Y-81837500D01*
X159925000Y-81837500D02*
X159962500Y-81800000D01*
X159925000Y-84000000D02*
X159925000Y-81837500D01*
D44*
%TO.N,Net-(U1A-+)*%
X161962500Y-83962500D02*
X162000000Y-84000000D01*
X161962500Y-81800000D02*
X161962500Y-83962500D01*
X161962500Y-81800000D02*
X161962500Y-79600000D01*
X163800000Y-81800000D02*
X161962500Y-81800000D01*
X164070000Y-81530000D02*
X163800000Y-81800000D01*
X167250000Y-81530000D02*
X164070000Y-81530000D01*
%TO.N,Net-(U1A--)*%
X164200000Y-77400000D02*
X161962500Y-77400000D01*
X164800000Y-78000000D02*
X164200000Y-77400000D01*
X164800000Y-79400000D02*
X164800000Y-78000000D01*
X165660000Y-80260000D02*
X164800000Y-79400000D01*
X167250000Y-80260000D02*
X165660000Y-80260000D01*
D46*
%TO.N,5V*%
X174390000Y-78990000D02*
X172200000Y-78990000D01*
X174846000Y-79446000D02*
X174390000Y-78990000D01*
X173600000Y-86400000D02*
X174846000Y-85154000D01*
X173600000Y-86525000D02*
X173600000Y-86400000D01*
X173600000Y-86525000D02*
X174925000Y-86525000D01*
X172200000Y-86525000D02*
X173600000Y-86525000D01*
X174846000Y-85154000D02*
X174846000Y-79446000D01*
D43*
%TO.N,/PA0*%
X165790000Y-78990000D02*
X167250000Y-78990000D01*
X165400000Y-78600000D02*
X165790000Y-78990000D01*
X166200000Y-76800000D02*
X165400000Y-77600000D01*
X175400000Y-82200000D02*
X175400000Y-77600000D01*
X176000000Y-82800000D02*
X175400000Y-82200000D01*
X175400000Y-77600000D02*
X174600000Y-76800000D01*
X177200000Y-82800000D02*
X176000000Y-82800000D01*
X165400000Y-77600000D02*
X165400000Y-78600000D01*
X177200000Y-82800000D02*
X178000000Y-82800000D01*
X177000000Y-82800000D02*
X177200000Y-82800000D01*
X178000000Y-82800000D02*
X178875000Y-81925000D01*
X178875000Y-81925000D02*
X178875000Y-80200000D01*
X176800000Y-83000000D02*
X177000000Y-82800000D01*
X176800000Y-85000000D02*
X176800000Y-83000000D01*
%TO.N,GND*%
X178800000Y-85000000D02*
X178800000Y-86800000D01*
D46*
%TO.N,5V*%
X176400000Y-90800000D02*
X177600000Y-90800000D01*
X178800000Y-92000000D02*
X178800000Y-93612500D01*
X175600000Y-90000000D02*
X176400000Y-90800000D01*
X175600000Y-87200000D02*
X175600000Y-90000000D01*
X174925000Y-86525000D02*
X175600000Y-87200000D01*
X177600000Y-90800000D02*
X178800000Y-92000000D01*
X158800000Y-90800000D02*
X157200000Y-90800000D01*
X159400000Y-88400000D02*
X159400000Y-90200000D01*
X159400000Y-90200000D02*
X158800000Y-90800000D01*
X161275000Y-86525000D02*
X159400000Y-88400000D01*
X165600000Y-86525000D02*
X161275000Y-86525000D01*
X165600000Y-86525000D02*
X172200000Y-86525000D01*
D43*
%TO.N,GND*%
X172200000Y-88600000D02*
X172200000Y-90400000D01*
X170000000Y-88600000D02*
X170000000Y-90400000D01*
X167800000Y-88600000D02*
X167800000Y-90400000D01*
X165600000Y-88600000D02*
X165600000Y-90400000D01*
X172200000Y-88600000D02*
X165600000Y-88600000D01*
D45*
%TO.N,GND_IN*%
X186500000Y-95650000D02*
X186500000Y-99300000D01*
D43*
%TO.N,GND*%
X182787500Y-99987500D02*
X182800000Y-100000000D01*
D45*
X178800000Y-99987500D02*
X182787500Y-99987500D01*
D48*
%TO.N,5V*%
X173187500Y-93612500D02*
X178800000Y-93612500D01*
X172050000Y-94750000D02*
X173187500Y-93612500D01*
X172050000Y-98600000D02*
X172050000Y-94750000D01*
%TO.N,Net-(D3-K)*%
X151800000Y-98800000D02*
X152400000Y-98200000D01*
X151800000Y-99800000D02*
X151800000Y-98800000D01*
D46*
%TO.N,Net-(U2-BOOT)*%
X158105000Y-96705000D02*
X156700000Y-96705000D01*
X158800000Y-97400000D02*
X158105000Y-96705000D01*
X158800000Y-100600000D02*
X158800000Y-97400000D01*
X157400000Y-102000000D02*
X158800000Y-100600000D01*
X146000000Y-102000000D02*
X157400000Y-102000000D01*
X145400000Y-101400000D02*
X146000000Y-102000000D01*
X145400000Y-99000000D02*
X145400000Y-101400000D01*
X145750000Y-98650000D02*
X145400000Y-99000000D01*
X147400000Y-98650000D02*
X145750000Y-98650000D01*
D48*
%TO.N,Net-(D3-K)*%
X151800000Y-99800000D02*
X149900000Y-99800000D01*
X149900000Y-99800000D02*
X149150000Y-100550000D01*
X149150000Y-100550000D02*
X147400000Y-100550000D01*
X150200000Y-99800000D02*
X151800000Y-99800000D01*
X149800000Y-97200000D02*
X149800000Y-99400000D01*
X150295000Y-96705000D02*
X149800000Y-97200000D01*
X149800000Y-99400000D02*
X150200000Y-99800000D01*
X151300000Y-96705000D02*
X150295000Y-96705000D01*
D45*
%TO.N,24V*%
X149435000Y-95435000D02*
X149100000Y-95100000D01*
X149100000Y-95100000D02*
X147300000Y-95100000D01*
X151300000Y-95435000D02*
X149435000Y-95435000D01*
D47*
X157400000Y-74400000D02*
X157400000Y-76400000D01*
X157400000Y-76400000D02*
X156200000Y-77600000D01*
%TD*%
%TA.AperFunction,Conductor*%
%TO.N,GND*%
G36*
X154193039Y-94569685D02*
G01*
X154238794Y-94622489D01*
X154250000Y-94674000D01*
X154250000Y-97550000D01*
X155522828Y-97550000D01*
X155522844Y-97549999D01*
X155582372Y-97543598D01*
X155582376Y-97543597D01*
X155716277Y-97493655D01*
X155785969Y-97488671D01*
X155802932Y-97493651D01*
X155817517Y-97499091D01*
X155877127Y-97505500D01*
X157522872Y-97505499D01*
X157582483Y-97499091D01*
X157597058Y-97493655D01*
X157667671Y-97467318D01*
X157711004Y-97459500D01*
X157741113Y-97459500D01*
X157808152Y-97479185D01*
X157828794Y-97495819D01*
X158009181Y-97676205D01*
X158042666Y-97737528D01*
X158045500Y-97763886D01*
X158045500Y-100236113D01*
X158025815Y-100303152D01*
X158009181Y-100323794D01*
X157761681Y-100571294D01*
X157700358Y-100604779D01*
X157630666Y-100599795D01*
X157574733Y-100557923D01*
X157550316Y-100492459D01*
X157550000Y-100483613D01*
X157550000Y-100050000D01*
X154050001Y-100050000D01*
X154050001Y-100499986D01*
X154060494Y-100602697D01*
X154115641Y-100769119D01*
X154115643Y-100769124D01*
X154207684Y-100918345D01*
X154323158Y-101033819D01*
X154356643Y-101095142D01*
X154351659Y-101164834D01*
X154309787Y-101220767D01*
X154244323Y-101245184D01*
X154235477Y-101245500D01*
X153365230Y-101245500D01*
X153298191Y-101225815D01*
X153252436Y-101173011D01*
X153242492Y-101103853D01*
X153271517Y-101040297D01*
X153277549Y-101033819D01*
X153333679Y-100977689D01*
X153392712Y-100918656D01*
X153484814Y-100769334D01*
X153539999Y-100602797D01*
X153550500Y-100500009D01*
X153550499Y-99100013D01*
X154050000Y-99100013D01*
X154050000Y-99550000D01*
X155550000Y-99550000D01*
X156050000Y-99550000D01*
X157549999Y-99550000D01*
X157549999Y-99100028D01*
X157549998Y-99100013D01*
X157539505Y-98997302D01*
X157484358Y-98830880D01*
X157484356Y-98830875D01*
X157392315Y-98681654D01*
X157268345Y-98557684D01*
X157119124Y-98465643D01*
X157119119Y-98465641D01*
X156952697Y-98410494D01*
X156952690Y-98410493D01*
X156849986Y-98400000D01*
X156050000Y-98400000D01*
X156050000Y-99550000D01*
X155550000Y-99550000D01*
X155550000Y-98400000D01*
X154750028Y-98400000D01*
X154750012Y-98400001D01*
X154647302Y-98410494D01*
X154480880Y-98465641D01*
X154480875Y-98465643D01*
X154331654Y-98557684D01*
X154207684Y-98681654D01*
X154115643Y-98830875D01*
X154115641Y-98830880D01*
X154060494Y-98997302D01*
X154060493Y-98997309D01*
X154050000Y-99100013D01*
X153550499Y-99100013D01*
X153550499Y-99099992D01*
X153539999Y-98997203D01*
X153484814Y-98830666D01*
X153392712Y-98681344D01*
X153268656Y-98557288D01*
X153247834Y-98544445D01*
X153201111Y-98492498D01*
X153189888Y-98423535D01*
X153191311Y-98414733D01*
X153218000Y-98280566D01*
X153218000Y-98119434D01*
X153218000Y-98119431D01*
X153186565Y-97961403D01*
X153186564Y-97961402D01*
X153186564Y-97961398D01*
X153174115Y-97931344D01*
X153124905Y-97812538D01*
X153124898Y-97812525D01*
X153078370Y-97742891D01*
X153057492Y-97676213D01*
X153075977Y-97608833D01*
X153127955Y-97562143D01*
X153181472Y-97550000D01*
X153750000Y-97550000D01*
X153750000Y-94674000D01*
X153769685Y-94606961D01*
X153822489Y-94561206D01*
X153874000Y-94550000D01*
X154126000Y-94550000D01*
X154193039Y-94569685D01*
G37*
%TD.AperFunction*%
%TA.AperFunction,Conductor*%
G36*
X154643332Y-92705626D02*
G01*
X154687680Y-92734127D01*
X155285186Y-93331633D01*
X155318671Y-93392956D01*
X155313687Y-93462648D01*
X155285187Y-93506995D01*
X155242182Y-93550000D01*
X155285186Y-93593004D01*
X155318671Y-93654327D01*
X155313687Y-93724019D01*
X155285186Y-93768366D01*
X154687681Y-94365872D01*
X154626358Y-94399357D01*
X154556667Y-94394373D01*
X154512319Y-94365872D01*
X154216610Y-94070163D01*
X154450000Y-94070163D01*
X154450000Y-94129837D01*
X154472836Y-94184968D01*
X154515032Y-94227164D01*
X154570163Y-94250000D01*
X154629837Y-94250000D01*
X154684968Y-94227164D01*
X154727164Y-94184968D01*
X154750000Y-94129837D01*
X154750000Y-94070163D01*
X154727164Y-94015032D01*
X154684968Y-93972836D01*
X154629837Y-93950000D01*
X154570163Y-93950000D01*
X154515032Y-93972836D01*
X154472836Y-94015032D01*
X154450000Y-94070163D01*
X154216610Y-94070163D01*
X154000000Y-93853553D01*
X153487680Y-94365872D01*
X153426357Y-94399357D01*
X153356665Y-94394373D01*
X153312318Y-94365872D01*
X153016609Y-94070163D01*
X153250000Y-94070163D01*
X153250000Y-94129837D01*
X153272836Y-94184968D01*
X153315032Y-94227164D01*
X153370163Y-94250000D01*
X153429837Y-94250000D01*
X153484968Y-94227164D01*
X153527164Y-94184968D01*
X153550000Y-94129837D01*
X153550000Y-94070163D01*
X153527164Y-94015032D01*
X153484968Y-93972836D01*
X153429837Y-93950000D01*
X153370163Y-93950000D01*
X153315032Y-93972836D01*
X153272836Y-94015032D01*
X153250000Y-94070163D01*
X153016609Y-94070163D01*
X152714813Y-93768366D01*
X152681328Y-93707043D01*
X152686312Y-93637351D01*
X152714813Y-93593003D01*
X152757817Y-93549999D01*
X153203553Y-93549999D01*
X153400000Y-93746446D01*
X153596446Y-93550001D01*
X153596446Y-93550000D01*
X153596445Y-93549999D01*
X154403553Y-93549999D01*
X154600000Y-93746446D01*
X154796446Y-93550001D01*
X154796446Y-93550000D01*
X154600000Y-93353553D01*
X154403553Y-93549999D01*
X153596445Y-93549999D01*
X153400000Y-93353553D01*
X153203553Y-93549999D01*
X152757817Y-93549999D01*
X152714813Y-93506995D01*
X152681328Y-93445672D01*
X152686312Y-93375980D01*
X152714813Y-93331633D01*
X153076283Y-92970163D01*
X153250000Y-92970163D01*
X153250000Y-93029837D01*
X153272836Y-93084968D01*
X153315032Y-93127164D01*
X153370163Y-93150000D01*
X153429837Y-93150000D01*
X153484968Y-93127164D01*
X153527164Y-93084968D01*
X153550000Y-93029837D01*
X153550000Y-92970163D01*
X153527164Y-92915032D01*
X153484968Y-92872836D01*
X153429837Y-92850000D01*
X153370163Y-92850000D01*
X153315032Y-92872836D01*
X153272836Y-92915032D01*
X153250000Y-92970163D01*
X153076283Y-92970163D01*
X153312319Y-92734127D01*
X153373642Y-92700642D01*
X153443334Y-92705626D01*
X153487681Y-92734127D01*
X153999999Y-93246445D01*
X154276282Y-92970163D01*
X154450000Y-92970163D01*
X154450000Y-93029837D01*
X154472836Y-93084968D01*
X154515032Y-93127164D01*
X154570163Y-93150000D01*
X154629837Y-93150000D01*
X154684968Y-93127164D01*
X154727164Y-93084968D01*
X154750000Y-93029837D01*
X154750000Y-92970163D01*
X154727164Y-92915032D01*
X154684968Y-92872836D01*
X154629837Y-92850000D01*
X154570163Y-92850000D01*
X154515032Y-92872836D01*
X154472836Y-92915032D01*
X154450000Y-92970163D01*
X154276282Y-92970163D01*
X154512318Y-92734127D01*
X154573641Y-92700642D01*
X154643332Y-92705626D01*
G37*
%TD.AperFunction*%
%TA.AperFunction,Conductor*%
G36*
X166754075Y-57407007D02*
G01*
X166720000Y-57534174D01*
X166720000Y-57665826D01*
X166754075Y-57792993D01*
X166786988Y-57850000D01*
X165113012Y-57850000D01*
X165145925Y-57792993D01*
X165180000Y-57665826D01*
X165180000Y-57534174D01*
X165145925Y-57407007D01*
X165113012Y-57350000D01*
X166786988Y-57350000D01*
X166754075Y-57407007D01*
G37*
%TD.AperFunction*%
%TA.AperFunction,Conductor*%
G36*
X185469472Y-55920568D02*
G01*
X185515237Y-55973363D01*
X185525194Y-56042520D01*
X185496182Y-56106081D01*
X185487337Y-56115289D01*
X185446653Y-56153494D01*
X185254111Y-56386236D01*
X185092268Y-56641261D01*
X185092265Y-56641267D01*
X184963661Y-56914563D01*
X184963659Y-56914568D01*
X184870320Y-57201835D01*
X184813719Y-57498546D01*
X184813718Y-57498553D01*
X184794754Y-57799994D01*
X184794754Y-57800005D01*
X184813718Y-58101446D01*
X184813719Y-58101453D01*
X184813720Y-58101457D01*
X184865521Y-58373010D01*
X184870320Y-58398164D01*
X184963659Y-58685431D01*
X184963661Y-58685436D01*
X185092265Y-58958732D01*
X185092268Y-58958738D01*
X185254111Y-59213763D01*
X185254114Y-59213767D01*
X185254115Y-59213768D01*
X185446651Y-59446504D01*
X185637716Y-59625927D01*
X185666836Y-59653272D01*
X185666846Y-59653280D01*
X185911193Y-59830808D01*
X185911198Y-59830810D01*
X185911205Y-59830816D01*
X186175896Y-59976332D01*
X186175901Y-59976334D01*
X186175903Y-59976335D01*
X186175904Y-59976336D01*
X186456734Y-60087524D01*
X186456737Y-60087525D01*
X186554259Y-60112564D01*
X186749302Y-60162642D01*
X186862583Y-60176953D01*
X187048963Y-60200499D01*
X187048969Y-60200499D01*
X187048973Y-60200500D01*
X187048975Y-60200500D01*
X187351025Y-60200500D01*
X187351027Y-60200500D01*
X187351032Y-60200499D01*
X187351036Y-60200499D01*
X187430591Y-60190448D01*
X187650698Y-60162642D01*
X187943262Y-60087525D01*
X187949637Y-60085001D01*
X188224095Y-59976336D01*
X188224096Y-59976335D01*
X188224094Y-59976335D01*
X188224104Y-59976332D01*
X188488795Y-59830816D01*
X188733162Y-59653274D01*
X188890616Y-59505413D01*
X188952960Y-59473872D01*
X189022461Y-59481043D01*
X189077052Y-59524650D01*
X189099401Y-59590849D01*
X189099500Y-59595806D01*
X189099500Y-101204193D01*
X189079815Y-101271232D01*
X189027011Y-101316987D01*
X188957853Y-101326931D01*
X188894297Y-101297906D01*
X188890616Y-101294585D01*
X188733163Y-101146727D01*
X188733153Y-101146719D01*
X188488806Y-100969191D01*
X188488799Y-100969186D01*
X188488795Y-100969184D01*
X188224104Y-100823668D01*
X188224101Y-100823666D01*
X188224096Y-100823664D01*
X188224095Y-100823663D01*
X187943265Y-100712475D01*
X187943262Y-100712474D01*
X187650695Y-100637357D01*
X187351036Y-100599500D01*
X187351027Y-100599500D01*
X187048973Y-100599500D01*
X187048963Y-100599500D01*
X186749304Y-100637357D01*
X186456737Y-100712474D01*
X186456734Y-100712475D01*
X186175904Y-100823663D01*
X186175903Y-100823664D01*
X185911205Y-100969184D01*
X185911193Y-100969191D01*
X185666846Y-101146719D01*
X185666836Y-101146727D01*
X185446652Y-101353494D01*
X185254111Y-101586236D01*
X185092268Y-101841261D01*
X185092265Y-101841267D01*
X184963661Y-102114563D01*
X184963659Y-102114568D01*
X184870320Y-102401835D01*
X184813720Y-102698543D01*
X184813718Y-102698553D01*
X184794754Y-102999994D01*
X184794754Y-103000005D01*
X184813718Y-103301446D01*
X184813719Y-103301453D01*
X184870320Y-103598164D01*
X184963659Y-103885431D01*
X184963661Y-103885436D01*
X185092265Y-104158732D01*
X185092268Y-104158738D01*
X185254111Y-104413763D01*
X185446652Y-104646505D01*
X185487760Y-104685108D01*
X185523155Y-104745349D01*
X185520361Y-104815163D01*
X185480268Y-104872384D01*
X185415602Y-104898845D01*
X185402876Y-104899500D01*
X143797124Y-104899500D01*
X143730085Y-104879815D01*
X143684330Y-104827011D01*
X143674386Y-104757853D01*
X143703411Y-104694297D01*
X143712240Y-104685108D01*
X143753349Y-104646504D01*
X143945885Y-104413768D01*
X144107733Y-104158736D01*
X144236341Y-103885430D01*
X144329681Y-103598160D01*
X144386280Y-103301457D01*
X144405246Y-103000000D01*
X144387976Y-102725506D01*
X144386281Y-102698553D01*
X144386280Y-102698543D01*
X144374231Y-102635379D01*
X144329681Y-102401840D01*
X144236341Y-102114570D01*
X144107733Y-101841264D01*
X144054502Y-101757385D01*
X143945888Y-101586236D01*
X143928709Y-101565470D01*
X143753349Y-101353496D01*
X143750156Y-101350498D01*
X143533163Y-101146727D01*
X143533153Y-101146719D01*
X143288806Y-100969191D01*
X143288799Y-100969186D01*
X143288795Y-100969184D01*
X143024104Y-100823668D01*
X143024101Y-100823666D01*
X143024096Y-100823664D01*
X143024095Y-100823663D01*
X142743265Y-100712475D01*
X142743262Y-100712474D01*
X142450695Y-100637357D01*
X142151036Y-100599500D01*
X142151027Y-100599500D01*
X141848973Y-100599500D01*
X141848963Y-100599500D01*
X141549304Y-100637357D01*
X141256737Y-100712474D01*
X141256734Y-100712475D01*
X140975904Y-100823663D01*
X140975903Y-100823664D01*
X140711205Y-100969184D01*
X140711193Y-100969191D01*
X140466846Y-101146719D01*
X140466836Y-101146727D01*
X140309384Y-101294585D01*
X140247039Y-101326127D01*
X140177538Y-101318956D01*
X140122948Y-101275349D01*
X140100599Y-101209150D01*
X140100500Y-101204193D01*
X140100500Y-81552135D01*
X142954500Y-81552135D01*
X142954500Y-84247870D01*
X142954501Y-84247876D01*
X142960908Y-84307483D01*
X143011202Y-84442328D01*
X143011206Y-84442335D01*
X143097452Y-84557544D01*
X143097455Y-84557547D01*
X143212664Y-84643793D01*
X143212671Y-84643797D01*
X143347517Y-84694091D01*
X143347516Y-84694091D01*
X143354444Y-84694835D01*
X143407127Y-84700500D01*
X146102872Y-84700499D01*
X146162483Y-84694091D01*
X146297331Y-84643796D01*
X146412546Y-84557546D01*
X146498796Y-84442331D01*
X146549091Y-84307483D01*
X146555500Y-84247873D01*
X146555499Y-81552128D01*
X146549091Y-81492517D01*
X146510854Y-81389999D01*
X146498797Y-81357671D01*
X146498793Y-81357664D01*
X146412547Y-81242455D01*
X146412544Y-81242452D01*
X146297335Y-81156206D01*
X146297328Y-81156202D01*
X146162482Y-81105908D01*
X146162483Y-81105908D01*
X146102883Y-81099501D01*
X146102881Y-81099500D01*
X146102873Y-81099500D01*
X146102864Y-81099500D01*
X143407129Y-81099500D01*
X143407123Y-81099501D01*
X143347516Y-81105908D01*
X143212671Y-81156202D01*
X143212664Y-81156206D01*
X143097455Y-81242452D01*
X143097452Y-81242455D01*
X143011206Y-81357664D01*
X143011202Y-81357671D01*
X142960908Y-81492517D01*
X142954501Y-81552116D01*
X142954501Y-81552123D01*
X142954500Y-81552135D01*
X140100500Y-81552135D01*
X140100500Y-67043713D01*
X140699500Y-67043713D01*
X140699500Y-67256286D01*
X140729284Y-67444339D01*
X140732754Y-67466243D01*
X140782780Y-67620208D01*
X140798444Y-67668414D01*
X140894951Y-67857820D01*
X141019890Y-68029786D01*
X141158705Y-68168601D01*
X141192190Y-68229924D01*
X141187206Y-68299616D01*
X141145334Y-68355549D01*
X141136121Y-68361821D01*
X140981342Y-68457289D01*
X140857289Y-68581342D01*
X140765187Y-68730663D01*
X140765185Y-68730668D01*
X140750723Y-68774312D01*
X140710001Y-68897203D01*
X140710001Y-68897204D01*
X140710000Y-68897204D01*
X140699500Y-68999983D01*
X140699500Y-70300001D01*
X140699501Y-70300018D01*
X140710000Y-70402796D01*
X140710001Y-70402799D01*
X140765185Y-70569331D01*
X140765187Y-70569336D01*
X140784109Y-70600013D01*
X140857288Y-70718656D01*
X140981344Y-70842712D01*
X141130666Y-70934814D01*
X141130667Y-70934814D01*
X141132596Y-70936004D01*
X141179321Y-70987952D01*
X141191500Y-71041543D01*
X141191500Y-75899333D01*
X141230254Y-76094161D01*
X141230256Y-76094169D01*
X141286443Y-76229816D01*
X141306277Y-76277701D01*
X141306282Y-76277710D01*
X141416646Y-76442880D01*
X141416649Y-76442884D01*
X142923048Y-77949282D01*
X142956533Y-78010605D01*
X142959020Y-78027697D01*
X142969616Y-78169101D01*
X143029664Y-78432188D01*
X143029666Y-78432195D01*
X143125157Y-78675501D01*
X143128257Y-78683398D01*
X143263185Y-78917102D01*
X143381279Y-79065186D01*
X143431442Y-79128089D01*
X143555163Y-79242884D01*
X143629259Y-79311635D01*
X143852226Y-79463651D01*
X144095359Y-79580738D01*
X144353228Y-79660280D01*
X144353229Y-79660280D01*
X144353232Y-79660281D01*
X144620063Y-79700499D01*
X144620068Y-79700499D01*
X144620071Y-79700500D01*
X144620072Y-79700500D01*
X144889928Y-79700500D01*
X144889929Y-79700500D01*
X144893260Y-79699998D01*
X145156767Y-79660281D01*
X145156768Y-79660280D01*
X145156772Y-79660280D01*
X145414641Y-79580738D01*
X145657775Y-79463651D01*
X145880741Y-79311635D01*
X146078561Y-79128085D01*
X146246815Y-78917102D01*
X146273721Y-78870499D01*
X146324286Y-78822285D01*
X146381107Y-78808500D01*
X146700671Y-78808500D01*
X148500671Y-78808500D01*
X149530904Y-78808500D01*
X149597943Y-78828185D01*
X149618585Y-78844819D01*
X150955181Y-80181415D01*
X150988666Y-80242738D01*
X150991500Y-80269096D01*
X150991500Y-82775500D01*
X150971815Y-82842539D01*
X150919011Y-82888294D01*
X150867501Y-82899500D01*
X150699999Y-82899500D01*
X150699980Y-82899501D01*
X150597203Y-82910000D01*
X150597200Y-82910001D01*
X150430668Y-82965185D01*
X150430663Y-82965187D01*
X150281342Y-83057289D01*
X150157289Y-83181342D01*
X150065187Y-83330663D01*
X150065186Y-83330666D01*
X150010001Y-83497203D01*
X150010001Y-83497204D01*
X150010000Y-83497204D01*
X149999500Y-83599983D01*
X149999500Y-84800001D01*
X149999501Y-84800018D01*
X150010000Y-84902796D01*
X150010001Y-84902799D01*
X150065185Y-85069331D01*
X150065187Y-85069336D01*
X150071572Y-85079688D01*
X150157288Y-85218656D01*
X150281344Y-85342712D01*
X150430666Y-85434814D01*
X150597203Y-85489999D01*
X150699991Y-85500500D01*
X150889968Y-85500499D01*
X150957007Y-85520183D01*
X151002762Y-85572987D01*
X151011585Y-85600307D01*
X151030254Y-85694163D01*
X151030256Y-85694169D01*
X151097442Y-85856370D01*
X151106277Y-85877702D01*
X151216646Y-86042881D01*
X151353584Y-86179819D01*
X151387069Y-86241142D01*
X151382085Y-86310834D01*
X151340213Y-86366767D01*
X151274749Y-86391184D01*
X151265903Y-86391500D01*
X144900666Y-86391500D01*
X144705838Y-86430254D01*
X144705830Y-86430256D01*
X144522298Y-86506277D01*
X144522289Y-86506282D01*
X144357119Y-86616646D01*
X144357117Y-86616648D01*
X143179612Y-87794154D01*
X142057119Y-88916647D01*
X141986882Y-88986884D01*
X141916645Y-89057120D01*
X141806282Y-89222289D01*
X141806277Y-89222298D01*
X141730256Y-89405830D01*
X141730254Y-89405838D01*
X141691500Y-89600666D01*
X141691500Y-91958456D01*
X141671815Y-92025495D01*
X141632597Y-92063995D01*
X141481342Y-92157289D01*
X141357289Y-92281342D01*
X141265187Y-92430663D01*
X141265186Y-92430666D01*
X141210001Y-92597203D01*
X141210001Y-92597204D01*
X141210000Y-92597204D01*
X141199500Y-92699983D01*
X141199500Y-94000001D01*
X141199501Y-94000018D01*
X141210000Y-94102796D01*
X141210001Y-94102799D01*
X141265185Y-94269331D01*
X141265187Y-94269336D01*
X141290269Y-94310001D01*
X141349984Y-94406815D01*
X141357289Y-94418657D01*
X141481344Y-94542712D01*
X141636120Y-94638178D01*
X141682845Y-94690126D01*
X141694068Y-94759088D01*
X141666224Y-94823171D01*
X141658706Y-94831398D01*
X141519889Y-94970215D01*
X141394951Y-95142179D01*
X141298444Y-95331585D01*
X141232753Y-95533760D01*
X141225793Y-95577704D01*
X141199500Y-95743713D01*
X141199500Y-95956287D01*
X141205428Y-95993717D01*
X141229360Y-96144819D01*
X141232754Y-96166243D01*
X141294776Y-96357127D01*
X141298444Y-96368414D01*
X141394951Y-96557820D01*
X141519890Y-96729786D01*
X141670213Y-96880109D01*
X141842179Y-97005048D01*
X141842181Y-97005049D01*
X141842184Y-97005051D01*
X142031588Y-97101557D01*
X142233757Y-97167246D01*
X142443713Y-97200500D01*
X142443714Y-97200500D01*
X142956286Y-97200500D01*
X142956287Y-97200500D01*
X143166243Y-97167246D01*
X143368412Y-97101557D01*
X143557816Y-97005051D01*
X143625536Y-96955850D01*
X143729786Y-96880109D01*
X143729793Y-96880103D01*
X143800296Y-96809600D01*
X143880104Y-96729792D01*
X143880106Y-96729788D01*
X143880109Y-96729786D01*
X144005048Y-96557820D01*
X144005047Y-96557820D01*
X144005051Y-96557816D01*
X144101557Y-96368412D01*
X144167246Y-96166243D01*
X144200500Y-95956287D01*
X144200500Y-95743713D01*
X144167246Y-95533757D01*
X144101557Y-95331588D01*
X144005051Y-95142184D01*
X144005049Y-95142181D01*
X144005048Y-95142179D01*
X143880109Y-94970213D01*
X143741294Y-94831398D01*
X143707809Y-94770075D01*
X143712793Y-94700383D01*
X143754665Y-94644450D01*
X143763879Y-94638178D01*
X143769331Y-94634814D01*
X143769334Y-94634814D01*
X143918656Y-94542712D01*
X144042712Y-94418656D01*
X144134814Y-94269334D01*
X144189999Y-94102797D01*
X144200500Y-94000009D01*
X144200499Y-92699992D01*
X144193511Y-92631588D01*
X144189999Y-92597203D01*
X144189998Y-92597200D01*
X144173404Y-92547123D01*
X144134814Y-92430666D01*
X144042712Y-92281344D01*
X143918656Y-92157288D01*
X143769334Y-92065186D01*
X143769333Y-92065185D01*
X143767403Y-92063995D01*
X143720679Y-92012047D01*
X143708500Y-91958456D01*
X143708500Y-90350013D01*
X150100000Y-90350013D01*
X150100000Y-90600000D01*
X150950000Y-90600000D01*
X150950000Y-89650000D01*
X150800027Y-89650000D01*
X150800012Y-89650001D01*
X150697302Y-89660494D01*
X150530880Y-89715641D01*
X150530875Y-89715643D01*
X150381654Y-89807684D01*
X150257684Y-89931654D01*
X150165643Y-90080875D01*
X150165641Y-90080880D01*
X150110494Y-90247302D01*
X150110493Y-90247309D01*
X150100000Y-90350013D01*
X143708500Y-90350013D01*
X143708500Y-90169096D01*
X143728185Y-90102057D01*
X143744819Y-90081415D01*
X145381415Y-88444819D01*
X145442738Y-88411334D01*
X145469096Y-88408500D01*
X154099330Y-88408500D01*
X154099331Y-88408499D01*
X154294169Y-88369744D01*
X154477704Y-88293721D01*
X154642881Y-88183353D01*
X154783353Y-88042881D01*
X154893721Y-87877704D01*
X154969744Y-87694169D01*
X155008500Y-87499329D01*
X155008500Y-87300671D01*
X154969744Y-87105831D01*
X154893721Y-86922296D01*
X154893720Y-86922295D01*
X154893717Y-86922289D01*
X154783354Y-86757120D01*
X154745262Y-86719028D01*
X154642881Y-86616647D01*
X153613250Y-85587016D01*
X153579765Y-85525693D01*
X153584749Y-85456001D01*
X153626621Y-85400068D01*
X153635835Y-85393796D01*
X153667800Y-85374080D01*
X153718656Y-85342712D01*
X153842712Y-85218656D01*
X153934814Y-85069334D01*
X153989999Y-84902797D01*
X154000500Y-84800009D01*
X154000499Y-83599992D01*
X154000498Y-83599983D01*
X154399500Y-83599983D01*
X154399500Y-84800001D01*
X154399501Y-84800018D01*
X154410000Y-84902796D01*
X154410001Y-84902799D01*
X154465185Y-85069331D01*
X154465187Y-85069336D01*
X154471572Y-85079688D01*
X154557288Y-85218656D01*
X154681344Y-85342712D01*
X154830666Y-85434814D01*
X154997203Y-85489999D01*
X155038103Y-85494177D01*
X155102793Y-85520573D01*
X155142945Y-85577753D01*
X155149500Y-85617535D01*
X155149500Y-85698422D01*
X155180290Y-85892826D01*
X155241117Y-86080030D01*
X155323209Y-86241142D01*
X155330476Y-86255405D01*
X155446172Y-86414646D01*
X155846171Y-86814645D01*
X155846172Y-86814646D01*
X155985354Y-86953828D01*
X156144595Y-87069524D01*
X156215866Y-87105838D01*
X156319979Y-87158886D01*
X156404223Y-87186258D01*
X156446346Y-87199944D01*
X156446347Y-87199945D01*
X156446348Y-87199945D01*
X156507173Y-87219709D01*
X156580076Y-87231255D01*
X156701578Y-87250500D01*
X156701583Y-87250500D01*
X157698422Y-87250500D01*
X157892826Y-87219709D01*
X158080025Y-87158884D01*
X158255405Y-87069524D01*
X158414646Y-86953828D01*
X158553828Y-86814646D01*
X158669524Y-86655405D01*
X158758884Y-86480025D01*
X158819709Y-86292826D01*
X158834332Y-86200499D01*
X158850500Y-86098422D01*
X158850500Y-85901577D01*
X158819709Y-85707173D01*
X158784986Y-85600307D01*
X158758884Y-85519975D01*
X158758882Y-85519972D01*
X158758882Y-85519970D01*
X158684547Y-85374080D01*
X158669524Y-85344595D01*
X158553828Y-85185354D01*
X158414646Y-85046172D01*
X158414531Y-85046057D01*
X158381046Y-84984734D01*
X158384505Y-84919374D01*
X158389999Y-84902797D01*
X158400500Y-84800009D01*
X158400500Y-84524986D01*
X158837501Y-84524986D01*
X158847994Y-84627697D01*
X158903141Y-84794119D01*
X158903143Y-84794124D01*
X158995184Y-84943345D01*
X159119154Y-85067315D01*
X159268375Y-85159356D01*
X159268380Y-85159358D01*
X159434802Y-85214505D01*
X159434809Y-85214506D01*
X159537519Y-85224999D01*
X159674999Y-85224999D01*
X159675000Y-85224998D01*
X159675000Y-84250000D01*
X158837501Y-84250000D01*
X158837501Y-84524986D01*
X158400500Y-84524986D01*
X158400499Y-83599992D01*
X158399018Y-83585498D01*
X158389999Y-83497203D01*
X158389998Y-83497200D01*
X158382646Y-83475013D01*
X158837500Y-83475013D01*
X158837500Y-83750000D01*
X159675000Y-83750000D01*
X159675000Y-82820862D01*
X159694685Y-82753823D01*
X159711319Y-82733181D01*
X159712500Y-82732000D01*
X159712500Y-82050000D01*
X158862501Y-82050000D01*
X158862501Y-82299986D01*
X158872994Y-82402697D01*
X158928141Y-82569119D01*
X158928143Y-82569124D01*
X159020184Y-82718345D01*
X159089157Y-82787318D01*
X159122642Y-82848641D01*
X159117658Y-82918333D01*
X159089158Y-82962679D01*
X158995184Y-83056654D01*
X158903143Y-83205875D01*
X158903141Y-83205880D01*
X158847994Y-83372302D01*
X158847993Y-83372309D01*
X158837500Y-83475013D01*
X158382646Y-83475013D01*
X158371768Y-83442187D01*
X158334814Y-83330666D01*
X158242712Y-83181344D01*
X158118656Y-83057288D01*
X157969334Y-82965186D01*
X157802797Y-82910001D01*
X157802795Y-82910000D01*
X157700010Y-82899500D01*
X155099998Y-82899500D01*
X155099981Y-82899501D01*
X154997203Y-82910000D01*
X154997200Y-82910001D01*
X154830668Y-82965185D01*
X154830663Y-82965187D01*
X154681342Y-83057289D01*
X154557289Y-83181342D01*
X154465187Y-83330663D01*
X154465186Y-83330666D01*
X154410001Y-83497203D01*
X154410001Y-83497204D01*
X154410000Y-83497204D01*
X154399500Y-83599983D01*
X154000498Y-83599983D01*
X153999018Y-83585498D01*
X153989999Y-83497203D01*
X153989998Y-83497200D01*
X153971768Y-83442187D01*
X153934814Y-83330666D01*
X153842712Y-83181344D01*
X153718656Y-83057288D01*
X153569334Y-82965186D01*
X153402797Y-82910001D01*
X153402795Y-82910000D01*
X153300016Y-82899500D01*
X153300009Y-82899500D01*
X153132500Y-82899500D01*
X153065461Y-82879815D01*
X153019706Y-82827011D01*
X153008500Y-82775500D01*
X153008500Y-79700670D01*
X153008499Y-79700666D01*
X153000466Y-79660280D01*
X152969744Y-79505831D01*
X152893721Y-79322296D01*
X152893720Y-79322295D01*
X152893717Y-79322289D01*
X152783353Y-79157119D01*
X152783350Y-79157115D01*
X152738415Y-79112180D01*
X152704930Y-79050857D01*
X152709914Y-78981165D01*
X152751786Y-78925232D01*
X152817250Y-78900815D01*
X152826096Y-78900499D01*
X153100002Y-78900499D01*
X153100008Y-78900499D01*
X153202797Y-78889999D01*
X153369334Y-78834814D01*
X153518656Y-78742712D01*
X153642712Y-78618656D01*
X153734814Y-78469334D01*
X153789999Y-78302797D01*
X153800500Y-78200009D01*
X153800499Y-76999992D01*
X153799241Y-76987681D01*
X153789999Y-76897203D01*
X153789998Y-76897200D01*
X153754972Y-76791500D01*
X153734814Y-76730666D01*
X153642712Y-76581344D01*
X153518656Y-76457288D01*
X153369334Y-76365186D01*
X153202797Y-76310001D01*
X153202795Y-76310000D01*
X153100010Y-76299500D01*
X150499998Y-76299500D01*
X150499981Y-76299501D01*
X150397203Y-76310000D01*
X150397200Y-76310001D01*
X150230668Y-76365185D01*
X150230663Y-76365187D01*
X150081342Y-76457289D01*
X149957289Y-76581342D01*
X149863995Y-76732597D01*
X149812047Y-76779321D01*
X149758456Y-76791500D01*
X146233642Y-76791500D01*
X146166603Y-76771815D01*
X146136695Y-76744813D01*
X146135772Y-76743656D01*
X146078561Y-76671915D01*
X146078560Y-76671914D01*
X146078557Y-76671910D01*
X145880741Y-76488365D01*
X145835161Y-76457289D01*
X145657775Y-76336349D01*
X145657771Y-76336347D01*
X145657768Y-76336345D01*
X145657767Y-76336344D01*
X145414643Y-76219263D01*
X145414645Y-76219263D01*
X145156773Y-76139720D01*
X145156767Y-76139718D01*
X144889936Y-76099500D01*
X144889929Y-76099500D01*
X144620071Y-76099500D01*
X144620063Y-76099500D01*
X144353232Y-76139718D01*
X144353222Y-76139721D01*
X144128647Y-76208993D01*
X144058784Y-76209943D01*
X144004417Y-76178183D01*
X143244819Y-75418585D01*
X143211334Y-75357262D01*
X143208500Y-75330904D01*
X143208500Y-71041543D01*
X143228185Y-70974504D01*
X143267404Y-70936004D01*
X143269332Y-70934814D01*
X143269334Y-70934814D01*
X143418656Y-70842712D01*
X143542712Y-70718656D01*
X143634814Y-70569334D01*
X143689999Y-70402797D01*
X143700500Y-70300009D01*
X143700499Y-68999992D01*
X143695895Y-68954926D01*
X143689999Y-68897203D01*
X143689998Y-68897200D01*
X143663627Y-68817618D01*
X143634814Y-68730666D01*
X143542712Y-68581344D01*
X143418656Y-68457288D01*
X143269334Y-68365186D01*
X143269333Y-68365185D01*
X143263878Y-68361821D01*
X143217154Y-68309873D01*
X143205931Y-68240910D01*
X143233775Y-68176828D01*
X143241272Y-68168623D01*
X143358800Y-68051096D01*
X149650000Y-68051096D01*
X149652897Y-68093824D01*
X149698831Y-68278523D01*
X149783390Y-68449022D01*
X149783392Y-68449025D01*
X149902632Y-68597366D01*
X149902633Y-68597367D01*
X150050974Y-68716607D01*
X150050977Y-68716609D01*
X150221476Y-68801168D01*
X150406175Y-68847102D01*
X150448903Y-68850000D01*
X150650000Y-68850000D01*
X150650000Y-67600000D01*
X149650000Y-67600000D01*
X149650000Y-68051096D01*
X143358800Y-68051096D01*
X143380104Y-68029792D01*
X143505051Y-67857816D01*
X143601557Y-67668412D01*
X143667246Y-67466243D01*
X143700500Y-67256287D01*
X143700500Y-67043713D01*
X143667246Y-66833757D01*
X143607183Y-66648903D01*
X149650000Y-66648903D01*
X149650000Y-67100000D01*
X150650000Y-67100000D01*
X150650000Y-65850000D01*
X150448903Y-65850000D01*
X150406175Y-65852897D01*
X150221476Y-65898831D01*
X150050977Y-65983390D01*
X150050974Y-65983392D01*
X149902633Y-66102632D01*
X149902632Y-66102633D01*
X149783392Y-66250974D01*
X149783390Y-66250977D01*
X149698831Y-66421476D01*
X149652897Y-66606175D01*
X149650000Y-66648903D01*
X143607183Y-66648903D01*
X143601557Y-66631588D01*
X143505051Y-66442184D01*
X143505049Y-66442181D01*
X143505048Y-66442179D01*
X143380109Y-66270213D01*
X143229786Y-66119890D01*
X143057820Y-65994951D01*
X142868414Y-65898444D01*
X142868413Y-65898443D01*
X142868412Y-65898443D01*
X142666243Y-65832754D01*
X142666241Y-65832753D01*
X142666240Y-65832753D01*
X142504957Y-65807208D01*
X142456287Y-65799500D01*
X141943713Y-65799500D01*
X141895042Y-65807208D01*
X141733760Y-65832753D01*
X141531585Y-65898444D01*
X141342179Y-65994951D01*
X141170213Y-66119890D01*
X141019890Y-66270213D01*
X140894951Y-66442179D01*
X140798444Y-66631585D01*
X140732753Y-66833760D01*
X140699500Y-67043713D01*
X140100500Y-67043713D01*
X140100500Y-63624986D01*
X144575001Y-63624986D01*
X144585494Y-63727697D01*
X144640641Y-63894119D01*
X144640643Y-63894124D01*
X144732684Y-64043345D01*
X144856654Y-64167315D01*
X145005875Y-64259356D01*
X145005880Y-64259358D01*
X145172302Y-64314505D01*
X145172309Y-64314506D01*
X145275019Y-64324999D01*
X145549999Y-64324999D01*
X146050000Y-64324999D01*
X146324972Y-64324999D01*
X146324986Y-64324998D01*
X146427697Y-64314505D01*
X146594119Y-64259358D01*
X146594124Y-64259356D01*
X146743345Y-64167315D01*
X146812319Y-64098342D01*
X146873642Y-64064857D01*
X146943334Y-64069841D01*
X146987681Y-64098342D01*
X147056654Y-64167315D01*
X147205875Y-64259356D01*
X147205880Y-64259358D01*
X147372302Y-64314505D01*
X147372309Y-64314506D01*
X147475019Y-64324999D01*
X147749999Y-64324999D01*
X148250000Y-64324999D01*
X148524972Y-64324999D01*
X148524986Y-64324998D01*
X148627697Y-64314505D01*
X148794119Y-64259358D01*
X148794124Y-64259356D01*
X148943345Y-64167315D01*
X149067315Y-64043345D01*
X149159356Y-63894124D01*
X149159358Y-63894119D01*
X149214505Y-63727697D01*
X149214506Y-63727690D01*
X149224999Y-63624986D01*
X149225000Y-63624973D01*
X149225000Y-63487500D01*
X148250000Y-63487500D01*
X148250000Y-64324999D01*
X147749999Y-64324999D01*
X147750000Y-64324998D01*
X147750000Y-63487500D01*
X146050000Y-63487500D01*
X146050000Y-64324999D01*
X145549999Y-64324999D01*
X145550000Y-64324998D01*
X145550000Y-63487500D01*
X144575001Y-63487500D01*
X144575001Y-63624986D01*
X140100500Y-63624986D01*
X140100500Y-60774983D01*
X144574500Y-60774983D01*
X144574500Y-61550001D01*
X144574501Y-61550019D01*
X144585000Y-61652796D01*
X144585001Y-61652799D01*
X144640185Y-61819331D01*
X144640187Y-61819336D01*
X144674212Y-61874500D01*
X144732288Y-61968656D01*
X144856344Y-62092712D01*
X144859628Y-62094737D01*
X144859653Y-62094753D01*
X144861445Y-62096746D01*
X144862011Y-62097193D01*
X144861934Y-62097289D01*
X144906379Y-62146699D01*
X144917603Y-62215661D01*
X144889761Y-62279744D01*
X144859665Y-62305826D01*
X144856660Y-62307679D01*
X144856655Y-62307683D01*
X144732684Y-62431654D01*
X144640643Y-62580875D01*
X144640641Y-62580880D01*
X144585494Y-62747302D01*
X144585493Y-62747309D01*
X144575000Y-62850013D01*
X144575000Y-62987500D01*
X149224999Y-62987500D01*
X149224999Y-62850028D01*
X149224998Y-62850013D01*
X149214505Y-62747302D01*
X149159358Y-62580880D01*
X149159356Y-62580875D01*
X149067315Y-62431654D01*
X148943344Y-62307683D01*
X148943341Y-62307681D01*
X148940339Y-62305829D01*
X148938713Y-62304021D01*
X148937677Y-62303202D01*
X148937817Y-62303024D01*
X148893617Y-62253880D01*
X148882397Y-62184917D01*
X148910243Y-62120836D01*
X148940344Y-62094754D01*
X148943656Y-62092712D01*
X149067712Y-61968656D01*
X149067716Y-61968649D01*
X149071322Y-61964090D01*
X149128344Y-61923713D01*
X149168589Y-61917000D01*
X149198613Y-61917000D01*
X149265652Y-61936685D01*
X149286294Y-61953319D01*
X149609600Y-62276624D01*
X149609621Y-62276647D01*
X151409600Y-64076624D01*
X151409621Y-64076647D01*
X151519028Y-64186054D01*
X151519035Y-64186060D01*
X151642608Y-64268628D01*
X151642609Y-64268628D01*
X151642610Y-64268629D01*
X151779920Y-64325505D01*
X151925683Y-64354499D01*
X151925687Y-64354500D01*
X151925688Y-64354500D01*
X152569338Y-64354500D01*
X152636377Y-64374185D01*
X152682132Y-64426989D01*
X152692076Y-64496147D01*
X152666449Y-64554312D01*
X152666650Y-64554447D01*
X152665887Y-64555588D01*
X152665195Y-64557160D01*
X152663269Y-64559506D01*
X152623499Y-64619028D01*
X152590253Y-64668784D01*
X152590252Y-64668786D01*
X152590251Y-64668785D01*
X152587645Y-64672686D01*
X152535555Y-64798442D01*
X152535553Y-64798448D01*
X152509000Y-64931939D01*
X152509000Y-65827547D01*
X152489315Y-65894586D01*
X152440096Y-65938635D01*
X152350703Y-65982970D01*
X152202280Y-66102276D01*
X152202278Y-66102278D01*
X152183612Y-66125500D01*
X152146326Y-66171885D01*
X152088982Y-66211803D01*
X152019160Y-66214383D01*
X151959027Y-66178804D01*
X151953031Y-66171884D01*
X151897364Y-66102630D01*
X151749025Y-65983392D01*
X151749022Y-65983390D01*
X151578523Y-65898831D01*
X151393824Y-65852897D01*
X151351097Y-65850000D01*
X151150000Y-65850000D01*
X151150000Y-68850000D01*
X151351097Y-68850000D01*
X151393824Y-68847102D01*
X151578523Y-68801168D01*
X151749022Y-68716609D01*
X151749025Y-68716607D01*
X151897366Y-68597367D01*
X151897367Y-68597366D01*
X151953033Y-68528115D01*
X152010376Y-68488196D01*
X152080198Y-68485616D01*
X152140331Y-68521194D01*
X152146305Y-68528089D01*
X152202278Y-68597722D01*
X152202280Y-68597724D01*
X152350704Y-68717030D01*
X152350707Y-68717032D01*
X152521302Y-68801639D01*
X152521303Y-68801639D01*
X152521307Y-68801641D01*
X152706111Y-68847600D01*
X152748877Y-68850500D01*
X153651122Y-68850499D01*
X153693889Y-68847600D01*
X153878693Y-68801641D01*
X154049296Y-68717030D01*
X154197722Y-68597722D01*
X154253353Y-68528514D01*
X154310696Y-68488595D01*
X154380518Y-68486015D01*
X154440651Y-68521594D01*
X154446675Y-68528549D01*
X154447222Y-68529229D01*
X154447311Y-68529340D01*
X154473940Y-68593936D01*
X154461418Y-68662675D01*
X154442407Y-68688998D01*
X154442806Y-68689325D01*
X154438940Y-68694034D01*
X154356373Y-68817605D01*
X154356366Y-68817618D01*
X154299496Y-68954916D01*
X154299493Y-68954926D01*
X154270499Y-69100685D01*
X154270499Y-69255425D01*
X154270500Y-69255446D01*
X154270500Y-69461770D01*
X154250815Y-69528809D01*
X154234181Y-69549451D01*
X154107288Y-69676343D01*
X154107285Y-69676346D01*
X154105537Y-69679182D01*
X154103829Y-69680717D01*
X154102807Y-69682011D01*
X154102585Y-69681836D01*
X154053589Y-69725905D01*
X153984626Y-69737126D01*
X153920544Y-69709282D01*
X153894463Y-69679182D01*
X153892714Y-69676346D01*
X153768657Y-69552289D01*
X153768656Y-69552288D01*
X153663656Y-69487524D01*
X153619336Y-69460187D01*
X153619331Y-69460185D01*
X153609698Y-69456993D01*
X153452797Y-69405001D01*
X153452795Y-69405000D01*
X153350010Y-69394500D01*
X152599998Y-69394500D01*
X152599980Y-69394501D01*
X152497203Y-69405000D01*
X152497200Y-69405001D01*
X152330668Y-69460185D01*
X152330663Y-69460187D01*
X152181345Y-69552287D01*
X152084827Y-69648805D01*
X152023503Y-69682289D01*
X151953812Y-69677305D01*
X151909465Y-69648804D01*
X151818345Y-69557684D01*
X151669124Y-69465643D01*
X151669119Y-69465641D01*
X151502697Y-69410494D01*
X151502690Y-69410493D01*
X151399986Y-69400000D01*
X151250000Y-69400000D01*
X151250000Y-71212865D01*
X151243041Y-71253820D01*
X151184633Y-71420737D01*
X151184630Y-71420750D01*
X151164435Y-71599996D01*
X151164435Y-71600003D01*
X151184630Y-71779249D01*
X151184631Y-71779254D01*
X151243042Y-71946181D01*
X151250000Y-71987136D01*
X151250000Y-73999999D01*
X151399972Y-73999999D01*
X151399986Y-73999998D01*
X151502697Y-73989505D01*
X151669119Y-73934358D01*
X151669124Y-73934356D01*
X151818342Y-73842317D01*
X151911964Y-73748695D01*
X151973287Y-73715210D01*
X152042979Y-73720194D01*
X152087327Y-73748695D01*
X152181344Y-73842712D01*
X152315597Y-73925519D01*
X152362321Y-73977465D01*
X152374500Y-74031057D01*
X152374500Y-74124902D01*
X152354815Y-74191941D01*
X152338181Y-74212583D01*
X151987584Y-74563181D01*
X151926261Y-74596666D01*
X151899903Y-74599500D01*
X148900097Y-74599500D01*
X148833058Y-74579815D01*
X148812416Y-74563181D01*
X148456344Y-74207109D01*
X148422859Y-74145786D01*
X148427843Y-74076094D01*
X148469715Y-74020161D01*
X148535179Y-73995744D01*
X148556628Y-73996070D01*
X148599991Y-74000500D01*
X149400008Y-74000499D01*
X149400016Y-74000498D01*
X149400019Y-74000498D01*
X149456302Y-73994748D01*
X149502797Y-73989999D01*
X149669334Y-73934814D01*
X149818656Y-73842712D01*
X149912675Y-73748692D01*
X149973994Y-73715210D01*
X150043686Y-73720194D01*
X150088034Y-73748695D01*
X150181654Y-73842315D01*
X150330875Y-73934356D01*
X150330880Y-73934358D01*
X150497302Y-73989505D01*
X150497309Y-73989506D01*
X150600019Y-73999999D01*
X150749999Y-73999999D01*
X150750000Y-73999998D01*
X150750000Y-71901397D01*
X150756959Y-71860442D01*
X150785368Y-71779255D01*
X150794298Y-71700000D01*
X150805565Y-71600003D01*
X150805565Y-71599996D01*
X150785369Y-71420750D01*
X150785367Y-71420742D01*
X150756958Y-71339552D01*
X150750000Y-71298598D01*
X150750000Y-69400000D01*
X150600027Y-69400000D01*
X150600012Y-69400001D01*
X150497302Y-69410494D01*
X150330880Y-69465641D01*
X150330875Y-69465643D01*
X150181657Y-69557682D01*
X150088034Y-69651305D01*
X150026710Y-69684789D01*
X149957019Y-69679805D01*
X149912672Y-69651304D01*
X149818657Y-69557289D01*
X149818656Y-69557288D01*
X149669334Y-69465186D01*
X149502797Y-69410001D01*
X149502795Y-69410000D01*
X149400010Y-69399500D01*
X148599998Y-69399500D01*
X148599980Y-69399501D01*
X148497203Y-69410000D01*
X148497200Y-69410001D01*
X148330668Y-69465185D01*
X148330663Y-69465187D01*
X148181342Y-69557289D01*
X148057289Y-69681342D01*
X147965187Y-69830663D01*
X147965185Y-69830668D01*
X147955465Y-69860001D01*
X147910001Y-69997203D01*
X147910001Y-69997204D01*
X147910000Y-69997204D01*
X147899500Y-70099983D01*
X147899500Y-71100001D01*
X147899501Y-71100019D01*
X147910000Y-71202796D01*
X147910001Y-71202799D01*
X147965185Y-71369331D01*
X147965187Y-71369336D01*
X147996896Y-71420745D01*
X148016604Y-71452697D01*
X148057289Y-71518657D01*
X148150951Y-71612319D01*
X148184436Y-71673642D01*
X148179452Y-71743334D01*
X148150951Y-71787681D01*
X148057289Y-71881342D01*
X147965187Y-72030663D01*
X147965186Y-72030666D01*
X147941462Y-72102262D01*
X147937405Y-72114504D01*
X147897632Y-72171949D01*
X147833116Y-72198772D01*
X147819699Y-72199500D01*
X147720940Y-72199500D01*
X147680019Y-72210464D01*
X147680019Y-72210465D01*
X147642751Y-72220451D01*
X147568214Y-72240423D01*
X147568209Y-72240426D01*
X147431290Y-72319475D01*
X147431282Y-72319481D01*
X146919481Y-72831282D01*
X146919477Y-72831287D01*
X146877196Y-72904522D01*
X146840424Y-72968211D01*
X146840423Y-72968212D01*
X146826347Y-73020745D01*
X146799499Y-73120943D01*
X146799499Y-73120945D01*
X146799499Y-73289046D01*
X146799500Y-73289059D01*
X146799500Y-73913330D01*
X146799499Y-73913348D01*
X146799499Y-74079054D01*
X146799498Y-74079054D01*
X146840423Y-74231785D01*
X146864917Y-74274210D01*
X146864919Y-74274212D01*
X146919479Y-74368714D01*
X146919481Y-74368717D01*
X147038349Y-74487585D01*
X147038355Y-74487590D01*
X148115139Y-75564374D01*
X148115149Y-75564385D01*
X148119479Y-75568715D01*
X148119480Y-75568716D01*
X148231284Y-75680520D01*
X148298767Y-75719481D01*
X148368215Y-75759577D01*
X148520942Y-75800500D01*
X148520943Y-75800500D01*
X152113331Y-75800500D01*
X152113347Y-75800501D01*
X152120943Y-75800501D01*
X152279054Y-75800501D01*
X152279057Y-75800501D01*
X152431785Y-75759577D01*
X152501233Y-75719481D01*
X152568716Y-75680520D01*
X152680520Y-75568716D01*
X152680520Y-75568714D01*
X152690724Y-75558511D01*
X152690727Y-75558506D01*
X153455520Y-74793716D01*
X153534577Y-74656784D01*
X153575501Y-74504057D01*
X153575501Y-74345942D01*
X153575501Y-74338347D01*
X153575500Y-74338329D01*
X153575500Y-74031057D01*
X153595185Y-73964018D01*
X153634401Y-73925520D01*
X153768656Y-73842712D01*
X153892712Y-73718656D01*
X153894461Y-73715819D01*
X153896169Y-73714283D01*
X153897193Y-73712989D01*
X153897414Y-73713163D01*
X153946406Y-73669096D01*
X154015368Y-73657872D01*
X154079451Y-73685713D01*
X154105537Y-73715817D01*
X154107288Y-73718656D01*
X154231344Y-73842712D01*
X154380666Y-73934814D01*
X154547203Y-73989999D01*
X154649991Y-74000500D01*
X155400008Y-74000499D01*
X155400016Y-74000498D01*
X155400019Y-74000498D01*
X155456302Y-73994748D01*
X155502797Y-73989999D01*
X155669334Y-73934814D01*
X155818656Y-73842712D01*
X155942712Y-73718656D01*
X156007632Y-73613402D01*
X156059580Y-73566679D01*
X156113171Y-73554500D01*
X156225548Y-73554500D01*
X156292587Y-73574185D01*
X156338342Y-73626989D01*
X156348286Y-73696147D01*
X156332421Y-73740117D01*
X156332688Y-73740254D01*
X156331605Y-73742379D01*
X156331278Y-73743286D01*
X156330477Y-73744592D01*
X156241117Y-73919970D01*
X156180290Y-74107173D01*
X156149500Y-74301577D01*
X156149500Y-75830663D01*
X156129815Y-75897702D01*
X156113181Y-75918344D01*
X155768344Y-76263181D01*
X155707021Y-76296666D01*
X155680663Y-76299500D01*
X154899998Y-76299500D01*
X154899980Y-76299501D01*
X154797203Y-76310000D01*
X154797200Y-76310001D01*
X154630668Y-76365185D01*
X154630663Y-76365187D01*
X154481342Y-76457289D01*
X154357289Y-76581342D01*
X154265187Y-76730663D01*
X154265185Y-76730668D01*
X154243138Y-76797203D01*
X154210001Y-76897203D01*
X154210001Y-76897204D01*
X154210000Y-76897204D01*
X154199500Y-76999983D01*
X154199500Y-78200001D01*
X154199501Y-78200018D01*
X154210000Y-78302796D01*
X154210001Y-78302799D01*
X154265185Y-78469331D01*
X154265187Y-78469336D01*
X154270525Y-78477990D01*
X154357288Y-78618656D01*
X154481344Y-78742712D01*
X154630666Y-78834814D01*
X154797203Y-78889999D01*
X154899991Y-78900500D01*
X157500008Y-78900499D01*
X157602797Y-78889999D01*
X157769334Y-78834814D01*
X157918656Y-78742712D01*
X158042712Y-78618656D01*
X158134814Y-78469334D01*
X158189999Y-78302797D01*
X158200500Y-78200009D01*
X158200499Y-77419336D01*
X158220183Y-77352298D01*
X158236818Y-77331655D01*
X158353828Y-77214646D01*
X158469524Y-77055405D01*
X158490651Y-77013941D01*
X158548700Y-76900013D01*
X158862500Y-76900013D01*
X158862500Y-77150000D01*
X159712500Y-77150000D01*
X159712500Y-76200000D01*
X159562527Y-76200000D01*
X159562512Y-76200001D01*
X159459802Y-76210494D01*
X159293380Y-76265641D01*
X159293375Y-76265643D01*
X159144154Y-76357684D01*
X159020184Y-76481654D01*
X158928143Y-76630875D01*
X158928141Y-76630880D01*
X158872994Y-76797302D01*
X158872993Y-76797309D01*
X158862500Y-76900013D01*
X158548700Y-76900013D01*
X158558884Y-76880025D01*
X158604614Y-76739283D01*
X158619709Y-76692827D01*
X158633393Y-76606422D01*
X158650500Y-76498422D01*
X158650500Y-74301577D01*
X158619709Y-74107173D01*
X158585048Y-74000498D01*
X158558884Y-73919975D01*
X158558882Y-73919972D01*
X158558882Y-73919970D01*
X158505684Y-73815564D01*
X158469524Y-73744595D01*
X158469522Y-73744592D01*
X158468722Y-73743286D01*
X158468569Y-73742721D01*
X158467312Y-73740254D01*
X158467830Y-73739989D01*
X158450481Y-73675840D01*
X158471599Y-73609238D01*
X158525372Y-73564626D01*
X158574452Y-73554500D01*
X160236113Y-73554500D01*
X160303152Y-73574185D01*
X160323794Y-73590819D01*
X162209600Y-75476624D01*
X162209621Y-75476647D01*
X162319031Y-75586057D01*
X162384523Y-75629817D01*
X162442606Y-75668627D01*
X162442607Y-75668627D01*
X162442611Y-75668630D01*
X162512885Y-75697738D01*
X162579920Y-75725505D01*
X162579925Y-75725506D01*
X162580922Y-75725809D01*
X162581382Y-75726110D01*
X162585550Y-75727837D01*
X162585222Y-75728626D01*
X162639364Y-75764100D01*
X162667828Y-75827909D01*
X162661981Y-75885427D01*
X162614632Y-76020742D01*
X162614631Y-76020748D01*
X162605590Y-76100984D01*
X162578523Y-76165397D01*
X162520928Y-76204952D01*
X162469768Y-76210457D01*
X162362511Y-76199500D01*
X161562498Y-76199500D01*
X161562480Y-76199501D01*
X161459703Y-76210000D01*
X161459700Y-76210001D01*
X161293168Y-76265185D01*
X161293163Y-76265187D01*
X161143845Y-76357287D01*
X161049827Y-76451305D01*
X160988503Y-76484789D01*
X160918812Y-76479805D01*
X160874465Y-76451304D01*
X160780845Y-76357684D01*
X160631624Y-76265643D01*
X160631619Y-76265641D01*
X160465197Y-76210494D01*
X160465190Y-76210493D01*
X160362486Y-76200000D01*
X160212500Y-76200000D01*
X160212500Y-77526000D01*
X160192815Y-77593039D01*
X160140011Y-77638794D01*
X160088500Y-77650000D01*
X158862501Y-77650000D01*
X158862501Y-77899986D01*
X158872994Y-78002697D01*
X158928141Y-78169119D01*
X158928143Y-78169124D01*
X159020184Y-78318345D01*
X159113804Y-78411965D01*
X159147289Y-78473288D01*
X159142305Y-78542980D01*
X159113805Y-78587327D01*
X159019787Y-78681345D01*
X158927687Y-78830663D01*
X158927685Y-78830668D01*
X158911017Y-78880969D01*
X158872501Y-78997203D01*
X158872501Y-78997204D01*
X158872500Y-78997204D01*
X158862000Y-79099983D01*
X158862000Y-80100001D01*
X158862001Y-80100019D01*
X158872500Y-80202796D01*
X158872501Y-80202799D01*
X158927685Y-80369331D01*
X158927687Y-80369336D01*
X158951843Y-80408499D01*
X159004763Y-80494297D01*
X159019789Y-80518657D01*
X159113804Y-80612672D01*
X159147289Y-80673995D01*
X159142305Y-80743687D01*
X159113805Y-80788034D01*
X159020182Y-80881657D01*
X158928143Y-81030875D01*
X158928141Y-81030880D01*
X158872994Y-81197302D01*
X158872993Y-81197309D01*
X158862500Y-81300013D01*
X158862500Y-81550000D01*
X160088500Y-81550000D01*
X160155539Y-81569685D01*
X160201294Y-81622489D01*
X160212500Y-81674000D01*
X160212500Y-82954138D01*
X160192815Y-83021177D01*
X160176181Y-83041819D01*
X160175000Y-83043000D01*
X160175000Y-85224999D01*
X160312472Y-85224999D01*
X160312486Y-85224998D01*
X160415197Y-85214505D01*
X160581619Y-85159358D01*
X160581624Y-85159356D01*
X160730845Y-85067315D01*
X160854818Y-84943342D01*
X160856665Y-84940348D01*
X160858469Y-84938724D01*
X160859298Y-84937677D01*
X160859476Y-84937818D01*
X160908610Y-84893621D01*
X160977573Y-84882396D01*
X161041656Y-84910236D01*
X161067743Y-84940341D01*
X161069788Y-84943656D01*
X161193844Y-85067712D01*
X161343166Y-85159814D01*
X161509703Y-85214999D01*
X161612491Y-85225500D01*
X162387508Y-85225499D01*
X162387516Y-85225498D01*
X162387519Y-85225498D01*
X162474154Y-85216648D01*
X162490297Y-85214999D01*
X162656834Y-85159814D01*
X162806156Y-85067712D01*
X162930212Y-84943656D01*
X163022314Y-84794334D01*
X163077499Y-84627797D01*
X163088000Y-84525009D01*
X163087999Y-83474992D01*
X163087794Y-83472989D01*
X163077499Y-83372203D01*
X163077498Y-83372200D01*
X163072618Y-83357473D01*
X163022314Y-83205666D01*
X162977397Y-83132844D01*
X165765000Y-83132844D01*
X165771401Y-83192372D01*
X165771403Y-83192379D01*
X165821645Y-83327086D01*
X165821649Y-83327093D01*
X165907809Y-83442187D01*
X165907812Y-83442190D01*
X166022906Y-83528350D01*
X166022913Y-83528354D01*
X166157620Y-83578596D01*
X166157627Y-83578598D01*
X166217155Y-83584999D01*
X166217172Y-83585000D01*
X167000000Y-83585000D01*
X167500000Y-83585000D01*
X168282828Y-83585000D01*
X168282844Y-83584999D01*
X168342372Y-83578598D01*
X168342379Y-83578596D01*
X168477086Y-83528354D01*
X168477093Y-83528350D01*
X168592187Y-83442190D01*
X168592190Y-83442187D01*
X168678350Y-83327093D01*
X168678354Y-83327086D01*
X168728596Y-83192379D01*
X168728598Y-83192372D01*
X168734999Y-83132844D01*
X168735000Y-83132827D01*
X168735000Y-83050000D01*
X167500000Y-83050000D01*
X167500000Y-83585000D01*
X167000000Y-83585000D01*
X167000000Y-83050000D01*
X165765000Y-83050000D01*
X165765000Y-83132844D01*
X162977397Y-83132844D01*
X162930212Y-83056344D01*
X162836549Y-82962681D01*
X162803064Y-82901358D01*
X162808048Y-82831666D01*
X162836549Y-82787319D01*
X162870045Y-82753823D01*
X162905212Y-82718656D01*
X162997314Y-82569334D01*
X162997316Y-82569326D01*
X163000364Y-82562791D01*
X163003296Y-82564158D01*
X163034899Y-82518534D01*
X163099421Y-82491725D01*
X163112812Y-82491000D01*
X163868060Y-82491000D01*
X163957870Y-82473134D01*
X164001557Y-82464445D01*
X164127311Y-82412356D01*
X164127316Y-82412352D01*
X164127319Y-82412351D01*
X164141615Y-82402799D01*
X164141616Y-82402798D01*
X164201706Y-82362647D01*
X164240487Y-82336735D01*
X164319904Y-82257317D01*
X164381225Y-82223834D01*
X164407584Y-82221000D01*
X165662415Y-82221000D01*
X165729454Y-82240685D01*
X165775209Y-82293489D01*
X165785153Y-82362647D01*
X165778597Y-82388334D01*
X165771402Y-82407623D01*
X165771401Y-82407627D01*
X165765000Y-82467155D01*
X165765000Y-82550000D01*
X168735000Y-82550000D01*
X168735000Y-82467172D01*
X168734999Y-82467155D01*
X168728598Y-82407627D01*
X168728596Y-82407620D01*
X168678354Y-82272913D01*
X168678352Y-82272910D01*
X168653512Y-82239728D01*
X168629094Y-82174264D01*
X168643945Y-82105990D01*
X168653505Y-82091114D01*
X168678796Y-82057331D01*
X168729091Y-81922483D01*
X168735500Y-81862873D01*
X168735499Y-81197128D01*
X168729091Y-81137517D01*
X168722057Y-81118657D01*
X168688182Y-81027833D01*
X168683198Y-80958141D01*
X168716683Y-80896818D01*
X168778007Y-80863334D01*
X168804364Y-80860500D01*
X169510847Y-80860500D01*
X169576819Y-80879506D01*
X169650477Y-80925789D01*
X169650481Y-80925790D01*
X169820737Y-80985366D01*
X169820743Y-80985367D01*
X169820745Y-80985368D01*
X169820746Y-80985368D01*
X169820750Y-80985369D01*
X169999996Y-81005565D01*
X170000000Y-81005565D01*
X170000004Y-81005565D01*
X170179249Y-80985369D01*
X170179252Y-80985368D01*
X170179255Y-80985368D01*
X170349522Y-80925789D01*
X170502262Y-80829816D01*
X170574096Y-80757981D01*
X170635415Y-80724499D01*
X170705107Y-80729483D01*
X170761041Y-80771354D01*
X170770602Y-80786231D01*
X170771198Y-80787323D01*
X170796176Y-80820690D01*
X170820592Y-80886155D01*
X170805740Y-80954428D01*
X170796176Y-80969310D01*
X170771203Y-81002669D01*
X170771202Y-81002671D01*
X170720910Y-81137513D01*
X170720909Y-81137517D01*
X170714500Y-81197127D01*
X170714500Y-81197134D01*
X170714500Y-81197135D01*
X170714500Y-81862870D01*
X170714501Y-81862876D01*
X170720908Y-81922483D01*
X170771202Y-82057328D01*
X170771203Y-82057330D01*
X170796176Y-82090690D01*
X170820592Y-82156155D01*
X170805740Y-82224428D01*
X170796176Y-82239310D01*
X170771203Y-82272669D01*
X170771202Y-82272671D01*
X170721653Y-82405521D01*
X170720909Y-82407517D01*
X170714500Y-82467127D01*
X170714500Y-82467134D01*
X170714500Y-82467135D01*
X170714500Y-83132870D01*
X170714501Y-83132876D01*
X170720908Y-83192483D01*
X170771202Y-83327328D01*
X170771206Y-83327335D01*
X170857452Y-83442544D01*
X170857455Y-83442547D01*
X170972664Y-83528793D01*
X170972671Y-83528797D01*
X171107517Y-83579091D01*
X171107516Y-83579091D01*
X171114444Y-83579835D01*
X171167127Y-83585500D01*
X173232872Y-83585499D01*
X173292483Y-83579091D01*
X173427331Y-83528796D01*
X173542546Y-83442546D01*
X173628796Y-83327331D01*
X173679091Y-83192483D01*
X173685500Y-83132873D01*
X173685499Y-82467128D01*
X173679103Y-82407627D01*
X173679091Y-82407516D01*
X173628797Y-82272670D01*
X173621786Y-82263305D01*
X173603823Y-82239310D01*
X173579406Y-82173849D01*
X173594257Y-82105575D01*
X173603823Y-82090690D01*
X173628796Y-82057331D01*
X173679091Y-81922483D01*
X173685500Y-81862873D01*
X173685499Y-81197128D01*
X173679091Y-81137517D01*
X173672057Y-81118657D01*
X173628797Y-81002670D01*
X173615843Y-80985366D01*
X173603823Y-80969310D01*
X173579406Y-80903849D01*
X173594257Y-80835575D01*
X173603823Y-80820690D01*
X173628796Y-80787331D01*
X173629207Y-80786231D01*
X173645074Y-80743687D01*
X173679091Y-80652483D01*
X173685500Y-80592873D01*
X173685499Y-79927128D01*
X173680621Y-79881752D01*
X173693027Y-79812995D01*
X173740638Y-79761858D01*
X173803911Y-79744500D01*
X173967500Y-79744500D01*
X174034539Y-79764185D01*
X174080294Y-79816989D01*
X174091500Y-79868500D01*
X174091500Y-84790112D01*
X174071815Y-84857151D01*
X174055181Y-84877793D01*
X173328602Y-85604372D01*
X173267279Y-85637857D01*
X173197587Y-85632873D01*
X173153240Y-85604372D01*
X173143657Y-85594789D01*
X173143656Y-85594788D01*
X173023334Y-85520573D01*
X172994336Y-85502687D01*
X172994331Y-85502685D01*
X172986147Y-85499973D01*
X172827797Y-85447501D01*
X172827795Y-85447500D01*
X172725010Y-85437000D01*
X171674998Y-85437000D01*
X171674980Y-85437001D01*
X171572203Y-85447500D01*
X171572200Y-85447501D01*
X171405668Y-85502685D01*
X171405663Y-85502687D01*
X171256342Y-85594789D01*
X171187681Y-85663451D01*
X171126358Y-85696936D01*
X171056666Y-85691952D01*
X171012319Y-85663451D01*
X170943657Y-85594789D01*
X170943656Y-85594788D01*
X170823334Y-85520573D01*
X170794336Y-85502687D01*
X170794331Y-85502685D01*
X170786147Y-85499973D01*
X170627797Y-85447501D01*
X170627795Y-85447500D01*
X170525010Y-85437000D01*
X169474998Y-85437000D01*
X169474980Y-85437001D01*
X169372203Y-85447500D01*
X169372200Y-85447501D01*
X169205668Y-85502685D01*
X169205663Y-85502687D01*
X169056342Y-85594789D01*
X168987681Y-85663451D01*
X168926358Y-85696936D01*
X168856666Y-85691952D01*
X168812319Y-85663451D01*
X168743657Y-85594789D01*
X168743656Y-85594788D01*
X168623334Y-85520573D01*
X168594336Y-85502687D01*
X168594331Y-85502685D01*
X168586147Y-85499973D01*
X168427797Y-85447501D01*
X168427795Y-85447500D01*
X168325010Y-85437000D01*
X167274998Y-85437000D01*
X167274980Y-85437001D01*
X167172203Y-85447500D01*
X167172200Y-85447501D01*
X167005668Y-85502685D01*
X167005663Y-85502687D01*
X166856342Y-85594789D01*
X166787681Y-85663451D01*
X166726358Y-85696936D01*
X166656666Y-85691952D01*
X166612319Y-85663451D01*
X166543657Y-85594789D01*
X166543656Y-85594788D01*
X166423334Y-85520573D01*
X166394336Y-85502687D01*
X166394331Y-85502685D01*
X166386147Y-85499973D01*
X166227797Y-85447501D01*
X166227795Y-85447500D01*
X166125010Y-85437000D01*
X165074998Y-85437000D01*
X165074980Y-85437001D01*
X164972203Y-85447500D01*
X164972200Y-85447501D01*
X164805668Y-85502685D01*
X164805663Y-85502687D01*
X164656342Y-85594789D01*
X164532289Y-85718842D01*
X164528678Y-85723410D01*
X164471656Y-85763787D01*
X164431411Y-85770500D01*
X161200683Y-85770500D01*
X161054927Y-85799493D01*
X161054919Y-85799495D01*
X160917608Y-85856371D01*
X160794035Y-85938939D01*
X160794034Y-85938940D01*
X160741488Y-85991487D01*
X160688941Y-86044034D01*
X160688939Y-86044036D01*
X158813943Y-87919030D01*
X158813942Y-87919031D01*
X158731372Y-88042607D01*
X158731366Y-88042618D01*
X158674496Y-88179916D01*
X158674493Y-88179926D01*
X158645499Y-88325685D01*
X158645499Y-88480425D01*
X158645500Y-88480446D01*
X158645500Y-89836113D01*
X158625815Y-89903152D01*
X158609181Y-89923794D01*
X158523794Y-90009181D01*
X158462471Y-90042666D01*
X158436113Y-90045500D01*
X158313171Y-90045500D01*
X158246132Y-90025815D01*
X158207632Y-89986597D01*
X158200000Y-89974223D01*
X158142712Y-89881344D01*
X158018656Y-89757288D01*
X157905508Y-89687498D01*
X157869336Y-89665187D01*
X157869331Y-89665185D01*
X157861141Y-89662471D01*
X157702797Y-89610001D01*
X157702795Y-89610000D01*
X157600010Y-89599500D01*
X156799998Y-89599500D01*
X156799980Y-89599501D01*
X156697203Y-89610000D01*
X156697200Y-89610001D01*
X156530668Y-89665185D01*
X156530663Y-89665187D01*
X156381342Y-89757289D01*
X156287681Y-89850951D01*
X156226358Y-89884436D01*
X156156666Y-89879452D01*
X156112319Y-89850951D01*
X156018657Y-89757289D01*
X156018656Y-89757288D01*
X155905508Y-89687498D01*
X155869336Y-89665187D01*
X155869331Y-89665185D01*
X155861141Y-89662471D01*
X155702797Y-89610001D01*
X155702795Y-89610000D01*
X155600010Y-89599500D01*
X154799998Y-89599500D01*
X154799980Y-89599501D01*
X154697203Y-89610000D01*
X154697200Y-89610001D01*
X154530668Y-89665185D01*
X154530663Y-89665187D01*
X154381342Y-89757289D01*
X154262681Y-89875951D01*
X154201358Y-89909436D01*
X154131666Y-89904452D01*
X154087319Y-89875951D01*
X154018657Y-89807289D01*
X154018656Y-89807288D01*
X153869334Y-89715186D01*
X153702797Y-89660001D01*
X153702795Y-89660000D01*
X153600010Y-89649500D01*
X152799998Y-89649500D01*
X152799980Y-89649501D01*
X152697203Y-89660000D01*
X152697200Y-89660001D01*
X152530668Y-89715185D01*
X152530663Y-89715187D01*
X152381345Y-89807287D01*
X152287327Y-89901305D01*
X152226003Y-89934789D01*
X152156312Y-89929805D01*
X152111965Y-89901304D01*
X152018345Y-89807684D01*
X151869124Y-89715643D01*
X151869119Y-89715641D01*
X151702697Y-89660494D01*
X151702690Y-89660493D01*
X151599986Y-89650000D01*
X151450000Y-89650000D01*
X151450000Y-90976000D01*
X151430315Y-91043039D01*
X151377511Y-91088794D01*
X151326000Y-91100000D01*
X150100001Y-91100000D01*
X150100001Y-91349986D01*
X150110494Y-91452697D01*
X150165641Y-91619119D01*
X150165643Y-91619124D01*
X150257684Y-91768345D01*
X150381655Y-91892316D01*
X150381657Y-91892317D01*
X150390103Y-91897527D01*
X150436829Y-91949473D01*
X150448053Y-92018436D01*
X150420211Y-92082519D01*
X150368343Y-92119249D01*
X150282669Y-92151203D01*
X150282664Y-92151206D01*
X150167455Y-92237452D01*
X150167452Y-92237455D01*
X150081206Y-92352664D01*
X150081202Y-92352671D01*
X150030910Y-92487513D01*
X150030909Y-92487517D01*
X150024500Y-92547127D01*
X150024500Y-92547134D01*
X150024500Y-92547135D01*
X150024500Y-93242870D01*
X150024501Y-93242876D01*
X150030908Y-93302483D01*
X150081202Y-93437328D01*
X150081204Y-93437332D01*
X150087448Y-93445672D01*
X150094945Y-93455687D01*
X150095257Y-93456103D01*
X150119676Y-93521567D01*
X150104826Y-93589840D01*
X150095260Y-93604726D01*
X150081646Y-93622911D01*
X150081645Y-93622913D01*
X150031403Y-93757620D01*
X150031401Y-93757627D01*
X150025000Y-93817155D01*
X150025000Y-93915000D01*
X151426000Y-93915000D01*
X151493039Y-93934685D01*
X151538794Y-93987489D01*
X151550000Y-94039000D01*
X151550000Y-94291000D01*
X151530315Y-94358039D01*
X151477511Y-94403794D01*
X151426000Y-94415000D01*
X150004367Y-94415000D01*
X149988496Y-94423666D01*
X149962138Y-94426500D01*
X149904096Y-94426500D01*
X149837057Y-94406815D01*
X149816419Y-94390185D01*
X149742881Y-94316647D01*
X149742880Y-94316646D01*
X149742879Y-94316645D01*
X149577710Y-94206282D01*
X149577697Y-94206275D01*
X149514513Y-94180104D01*
X149514512Y-94180104D01*
X149394169Y-94130256D01*
X149394161Y-94130254D01*
X149199333Y-94091500D01*
X149199329Y-94091500D01*
X147200671Y-94091500D01*
X147200666Y-94091500D01*
X147005838Y-94130254D01*
X147005830Y-94130256D01*
X146822298Y-94206277D01*
X146822289Y-94206282D01*
X146657119Y-94316646D01*
X146657115Y-94316649D01*
X146516649Y-94457115D01*
X146516646Y-94457119D01*
X146406282Y-94622289D01*
X146406277Y-94622298D01*
X146330256Y-94805830D01*
X146330254Y-94805838D01*
X146291500Y-95000666D01*
X146291500Y-95199333D01*
X146330254Y-95394161D01*
X146330256Y-95394169D01*
X146406277Y-95577701D01*
X146406282Y-95577710D01*
X146516646Y-95742880D01*
X146516649Y-95742884D01*
X146657115Y-95883350D01*
X146657119Y-95883353D01*
X146822289Y-95993717D01*
X146822296Y-95993721D01*
X147005831Y-96069744D01*
X147196468Y-96107664D01*
X147200666Y-96108499D01*
X147200670Y-96108500D01*
X147200671Y-96108500D01*
X148630903Y-96108500D01*
X148697942Y-96128185D01*
X148718579Y-96144814D01*
X148792119Y-96218354D01*
X148792121Y-96218356D01*
X148792123Y-96218357D01*
X148957286Y-96328715D01*
X148957290Y-96328717D01*
X148957297Y-96328722D01*
X149025876Y-96357128D01*
X149140831Y-96404744D01*
X149161522Y-96408859D01*
X149223433Y-96441243D01*
X149258008Y-96501959D01*
X149254269Y-96571728D01*
X149225014Y-96618158D01*
X149164617Y-96678555D01*
X149075100Y-96812525D01*
X149075093Y-96812538D01*
X149047108Y-96880103D01*
X149013436Y-96961393D01*
X149013433Y-96961405D01*
X148982000Y-97119429D01*
X148982000Y-99480567D01*
X148982444Y-99482800D01*
X148982337Y-99483991D01*
X148982597Y-99486629D01*
X148982096Y-99486678D01*
X148976212Y-99552391D01*
X148948507Y-99594664D01*
X148847493Y-99695680D01*
X148786170Y-99729166D01*
X148759811Y-99732000D01*
X148418010Y-99732000D01*
X148350971Y-99712315D01*
X148345677Y-99708535D01*
X148343657Y-99707289D01*
X148343656Y-99707288D01*
X148340819Y-99705538D01*
X148339285Y-99703832D01*
X148337992Y-99702810D01*
X148338166Y-99702589D01*
X148294096Y-99653594D01*
X148282872Y-99584632D01*
X148310713Y-99520549D01*
X148340817Y-99494462D01*
X148343656Y-99492712D01*
X148467712Y-99368656D01*
X148559814Y-99219334D01*
X148614999Y-99052797D01*
X148625500Y-98950009D01*
X148625499Y-98349992D01*
X148623755Y-98332923D01*
X148614999Y-98247203D01*
X148614998Y-98247200D01*
X148572659Y-98119431D01*
X148559814Y-98080666D01*
X148467712Y-97931344D01*
X148343656Y-97807288D01*
X148194334Y-97715186D01*
X148027797Y-97660001D01*
X148027795Y-97660000D01*
X147925010Y-97649500D01*
X146874998Y-97649500D01*
X146874980Y-97649501D01*
X146772203Y-97660000D01*
X146772200Y-97660001D01*
X146605668Y-97715185D01*
X146605663Y-97715187D01*
X146456342Y-97807289D01*
X146404451Y-97859181D01*
X146343128Y-97892666D01*
X146316770Y-97895500D01*
X145830446Y-97895500D01*
X145830426Y-97895499D01*
X145824312Y-97895499D01*
X145675688Y-97895499D01*
X145675686Y-97895499D01*
X145554105Y-97919684D01*
X145539540Y-97922581D01*
X145529918Y-97924495D01*
X145529917Y-97924495D01*
X145473045Y-97948053D01*
X145392615Y-97981367D01*
X145392610Y-97981370D01*
X145385593Y-97986058D01*
X145385594Y-97986059D01*
X145269033Y-98063941D01*
X145216487Y-98116487D01*
X145163941Y-98169034D01*
X145163939Y-98169036D01*
X144813943Y-98519030D01*
X144813942Y-98519031D01*
X144731372Y-98642607D01*
X144731371Y-98642609D01*
X144731370Y-98642611D01*
X144712858Y-98687304D01*
X144680835Y-98764615D01*
X144680834Y-98764619D01*
X144674494Y-98779923D01*
X144674493Y-98779925D01*
X144645499Y-98925685D01*
X144645499Y-99080425D01*
X144645500Y-99080446D01*
X144645500Y-101320552D01*
X144645499Y-101320578D01*
X144645499Y-101474314D01*
X144663632Y-101565470D01*
X144663632Y-101565471D01*
X144674492Y-101620072D01*
X144674495Y-101620081D01*
X144685063Y-101645594D01*
X144698053Y-101676955D01*
X144731370Y-101757389D01*
X144734049Y-101761398D01*
X144813942Y-101880968D01*
X144813943Y-101880969D01*
X145409600Y-102476624D01*
X145409621Y-102476647D01*
X145519028Y-102586054D01*
X145519035Y-102586060D01*
X145642608Y-102668628D01*
X145642609Y-102668628D01*
X145642610Y-102668629D01*
X145779920Y-102725505D01*
X145779922Y-102725505D01*
X145779924Y-102725506D01*
X145804104Y-102730315D01*
X145804110Y-102730316D01*
X145925686Y-102754501D01*
X145925688Y-102754501D01*
X146080426Y-102754501D01*
X146080446Y-102754500D01*
X157319554Y-102754500D01*
X157319574Y-102754501D01*
X157325688Y-102754501D01*
X157474314Y-102754501D01*
X157595894Y-102730315D01*
X157595894Y-102730316D01*
X157595900Y-102730313D01*
X157620080Y-102725505D01*
X157685172Y-102698543D01*
X157757389Y-102668630D01*
X157880966Y-102586059D01*
X159386059Y-101080966D01*
X159422096Y-101027031D01*
X159475706Y-100982227D01*
X159545031Y-100973518D01*
X159608059Y-101003672D01*
X159641379Y-101052587D01*
X159656201Y-101092326D01*
X159656203Y-101092330D01*
X159717951Y-101174814D01*
X159742368Y-101240278D01*
X159727517Y-101308551D01*
X159706366Y-101336806D01*
X159564616Y-101478555D01*
X159475098Y-101612528D01*
X159475097Y-101612531D01*
X159413436Y-101761396D01*
X159413434Y-101761404D01*
X159382000Y-101919431D01*
X159382000Y-101919434D01*
X159382000Y-102080566D01*
X159382000Y-102080568D01*
X159381999Y-102080568D01*
X159413434Y-102238595D01*
X159413436Y-102238603D01*
X159475097Y-102387468D01*
X159475098Y-102387471D01*
X159564617Y-102521444D01*
X159564620Y-102521448D01*
X159678551Y-102635379D01*
X159678555Y-102635382D01*
X159812528Y-102724901D01*
X159812530Y-102724901D01*
X159812532Y-102724903D01*
X159961398Y-102786564D01*
X160000098Y-102794262D01*
X160119431Y-102818000D01*
X160119434Y-102818000D01*
X160280568Y-102818000D01*
X160360123Y-102802174D01*
X160438602Y-102786564D01*
X160587468Y-102724903D01*
X160721445Y-102635382D01*
X161721442Y-101635383D01*
X161721445Y-101635382D01*
X161835382Y-101521445D01*
X161866875Y-101474312D01*
X161890530Y-101438911D01*
X161890530Y-101438910D01*
X161912782Y-101405608D01*
X161966395Y-101360803D01*
X162015884Y-101350499D01*
X163047871Y-101350499D01*
X163047872Y-101350499D01*
X163107483Y-101344091D01*
X163242331Y-101293796D01*
X163357546Y-101207546D01*
X163443796Y-101092331D01*
X163494091Y-100957483D01*
X163500500Y-100897873D01*
X163500499Y-96302128D01*
X163494091Y-96242517D01*
X163443796Y-96107669D01*
X163443795Y-96107668D01*
X163443793Y-96107664D01*
X163357547Y-95992455D01*
X163357544Y-95992452D01*
X163242335Y-95906206D01*
X163242328Y-95906202D01*
X163107482Y-95855908D01*
X163107483Y-95855908D01*
X163047883Y-95849501D01*
X163047881Y-95849500D01*
X163047873Y-95849500D01*
X163047864Y-95849500D01*
X160052129Y-95849500D01*
X160052123Y-95849501D01*
X159992516Y-95855908D01*
X159857671Y-95906202D01*
X159857664Y-95906206D01*
X159742455Y-95992452D01*
X159742452Y-95992455D01*
X159656206Y-96107664D01*
X159656202Y-96107671D01*
X159605908Y-96242517D01*
X159599501Y-96302116D01*
X159599501Y-96302123D01*
X159599500Y-96302135D01*
X159599500Y-96833112D01*
X159579815Y-96900151D01*
X159527011Y-96945906D01*
X159457853Y-96955850D01*
X159394297Y-96926825D01*
X159387819Y-96920793D01*
X159276647Y-96809621D01*
X159276624Y-96809600D01*
X158585969Y-96118943D01*
X158585968Y-96118942D01*
X158462392Y-96036372D01*
X158462391Y-96036371D01*
X158462389Y-96036370D01*
X158462386Y-96036368D01*
X158462381Y-96036366D01*
X158359424Y-95993721D01*
X158325080Y-95979495D01*
X158300894Y-95974684D01*
X158179314Y-95950499D01*
X158179312Y-95950499D01*
X158095524Y-95950499D01*
X158028485Y-95930814D01*
X157982730Y-95878010D01*
X157972234Y-95813246D01*
X157975500Y-95782873D01*
X157975499Y-95087128D01*
X157969091Y-95027517D01*
X157969091Y-95027516D01*
X157918797Y-94892670D01*
X157918796Y-94892669D01*
X157905053Y-94874311D01*
X157880635Y-94808850D01*
X157895485Y-94740576D01*
X157905050Y-94725691D01*
X157918796Y-94707331D01*
X157921388Y-94700383D01*
X157932931Y-94669434D01*
X157969091Y-94572483D01*
X157975500Y-94512873D01*
X157975499Y-93817128D01*
X157969091Y-93757517D01*
X157964962Y-93746446D01*
X157918797Y-93622670D01*
X157918796Y-93622669D01*
X157905053Y-93604311D01*
X157880635Y-93538850D01*
X157895485Y-93470576D01*
X157905050Y-93455691D01*
X157918796Y-93437331D01*
X157969091Y-93302483D01*
X157975500Y-93242873D01*
X157975499Y-92547128D01*
X157969091Y-92487517D01*
X157957211Y-92455666D01*
X157918797Y-92352671D01*
X157918793Y-92352664D01*
X157832547Y-92237455D01*
X157832544Y-92237452D01*
X157753676Y-92178411D01*
X157711805Y-92122477D01*
X157706821Y-92052786D01*
X157740307Y-91991463D01*
X157788980Y-91961440D01*
X157869334Y-91934814D01*
X158018656Y-91842712D01*
X158142712Y-91718656D01*
X158207632Y-91613402D01*
X158259580Y-91566679D01*
X158313171Y-91554500D01*
X158719554Y-91554500D01*
X158719574Y-91554501D01*
X158725688Y-91554501D01*
X158874314Y-91554501D01*
X158995894Y-91530315D01*
X158995894Y-91530316D01*
X158995900Y-91530313D01*
X159020080Y-91525505D01*
X159055942Y-91510649D01*
X159076944Y-91501951D01*
X159076947Y-91501949D01*
X159076955Y-91501946D01*
X159157389Y-91468630D01*
X159280966Y-91386059D01*
X159880963Y-90786060D01*
X159880966Y-90786059D01*
X159986059Y-90680966D01*
X160068629Y-90557390D01*
X160125505Y-90420080D01*
X160137975Y-90357389D01*
X160154501Y-90274312D01*
X160154501Y-90125688D01*
X160154501Y-90120578D01*
X160154500Y-90120552D01*
X160154500Y-88987486D01*
X164375001Y-88987486D01*
X164385494Y-89090197D01*
X164440641Y-89256619D01*
X164440643Y-89256624D01*
X164532684Y-89405845D01*
X164656654Y-89529815D01*
X164805875Y-89621856D01*
X164805880Y-89621858D01*
X164972302Y-89677005D01*
X164972309Y-89677006D01*
X165075019Y-89687499D01*
X165349999Y-89687499D01*
X165850000Y-89687499D01*
X166124972Y-89687499D01*
X166124986Y-89687498D01*
X166227697Y-89677005D01*
X166394119Y-89621858D01*
X166394124Y-89621856D01*
X166543345Y-89529815D01*
X166612319Y-89460842D01*
X166673642Y-89427357D01*
X166743334Y-89432341D01*
X166787681Y-89460842D01*
X166856654Y-89529815D01*
X167005875Y-89621856D01*
X167005880Y-89621858D01*
X167172302Y-89677005D01*
X167172309Y-89677006D01*
X167275019Y-89687499D01*
X167549999Y-89687499D01*
X168050000Y-89687499D01*
X168324972Y-89687499D01*
X168324986Y-89687498D01*
X168427697Y-89677005D01*
X168594119Y-89621858D01*
X168594124Y-89621856D01*
X168743345Y-89529815D01*
X168812319Y-89460842D01*
X168873642Y-89427357D01*
X168943334Y-89432341D01*
X168987681Y-89460842D01*
X169056654Y-89529815D01*
X169205875Y-89621856D01*
X169205880Y-89621858D01*
X169372302Y-89677005D01*
X169372309Y-89677006D01*
X169475019Y-89687499D01*
X169749999Y-89687499D01*
X170250000Y-89687499D01*
X170524972Y-89687499D01*
X170524986Y-89687498D01*
X170627697Y-89677005D01*
X170794119Y-89621858D01*
X170794124Y-89621856D01*
X170943345Y-89529815D01*
X171012319Y-89460842D01*
X171073642Y-89427357D01*
X171143334Y-89432341D01*
X171187681Y-89460842D01*
X171256654Y-89529815D01*
X171405875Y-89621856D01*
X171405880Y-89621858D01*
X171572302Y-89677005D01*
X171572309Y-89677006D01*
X171675019Y-89687499D01*
X171949999Y-89687499D01*
X172450000Y-89687499D01*
X172724972Y-89687499D01*
X172724986Y-89687498D01*
X172827697Y-89677005D01*
X172994119Y-89621858D01*
X172994124Y-89621856D01*
X173143345Y-89529815D01*
X173267315Y-89405845D01*
X173359356Y-89256624D01*
X173359358Y-89256619D01*
X173414505Y-89090197D01*
X173414506Y-89090190D01*
X173424999Y-88987486D01*
X173425000Y-88987473D01*
X173425000Y-88850000D01*
X172450000Y-88850000D01*
X172450000Y-89687499D01*
X171949999Y-89687499D01*
X171950000Y-89687498D01*
X171950000Y-88850000D01*
X170250000Y-88850000D01*
X170250000Y-89687499D01*
X169749999Y-89687499D01*
X169750000Y-89687498D01*
X169750000Y-88850000D01*
X168050000Y-88850000D01*
X168050000Y-89687499D01*
X167549999Y-89687499D01*
X167550000Y-89687498D01*
X167550000Y-88850000D01*
X165850000Y-88850000D01*
X165850000Y-89687499D01*
X165349999Y-89687499D01*
X165350000Y-89687498D01*
X165350000Y-88850000D01*
X164375001Y-88850000D01*
X164375001Y-88987486D01*
X160154500Y-88987486D01*
X160154500Y-88763886D01*
X160174185Y-88696847D01*
X160190819Y-88676205D01*
X161551205Y-87315819D01*
X161612528Y-87282334D01*
X161638886Y-87279500D01*
X164431411Y-87279500D01*
X164498450Y-87299185D01*
X164528678Y-87326590D01*
X164532287Y-87331154D01*
X164532288Y-87331156D01*
X164656344Y-87455212D01*
X164659628Y-87457237D01*
X164659653Y-87457253D01*
X164661445Y-87459246D01*
X164662011Y-87459693D01*
X164661934Y-87459789D01*
X164706379Y-87509199D01*
X164717603Y-87578161D01*
X164689761Y-87642244D01*
X164659665Y-87668326D01*
X164656660Y-87670179D01*
X164656655Y-87670183D01*
X164532684Y-87794154D01*
X164440643Y-87943375D01*
X164440641Y-87943380D01*
X164385494Y-88109802D01*
X164385493Y-88109809D01*
X164375000Y-88212513D01*
X164375000Y-88350000D01*
X173424999Y-88350000D01*
X173424999Y-88212528D01*
X173424998Y-88212513D01*
X173414505Y-88109802D01*
X173359358Y-87943380D01*
X173359356Y-87943375D01*
X173267315Y-87794154D01*
X173143344Y-87670183D01*
X173143341Y-87670181D01*
X173140339Y-87668329D01*
X173138713Y-87666521D01*
X173137677Y-87665702D01*
X173137817Y-87665524D01*
X173093617Y-87616380D01*
X173082397Y-87547417D01*
X173110243Y-87483336D01*
X173140344Y-87457254D01*
X173143656Y-87455212D01*
X173267712Y-87331156D01*
X173267716Y-87331149D01*
X173271322Y-87326590D01*
X173328344Y-87286213D01*
X173368589Y-87279500D01*
X173525688Y-87279500D01*
X174561113Y-87279500D01*
X174628152Y-87299185D01*
X174648789Y-87315814D01*
X174809182Y-87476206D01*
X174842666Y-87537528D01*
X174845500Y-87563886D01*
X174845500Y-89920552D01*
X174845499Y-89920578D01*
X174845499Y-90074313D01*
X174846912Y-90081415D01*
X174866066Y-90177704D01*
X174873274Y-90213941D01*
X174874495Y-90220080D01*
X174874496Y-90220084D01*
X174885729Y-90247202D01*
X174885730Y-90247204D01*
X174931366Y-90357381D01*
X174931368Y-90357384D01*
X174931370Y-90357389D01*
X174973253Y-90420072D01*
X175013942Y-90480968D01*
X175013943Y-90480969D01*
X175809600Y-91276624D01*
X175809610Y-91276635D01*
X175813940Y-91280965D01*
X175813941Y-91280966D01*
X175919034Y-91386059D01*
X175942553Y-91401773D01*
X175954233Y-91409578D01*
X175954232Y-91409578D01*
X176042600Y-91468623D01*
X176042604Y-91468625D01*
X176042611Y-91468630D01*
X176123043Y-91501945D01*
X176123044Y-91501946D01*
X176146603Y-91511704D01*
X176179920Y-91525505D01*
X176179929Y-91525506D01*
X176179930Y-91525507D01*
X176204103Y-91530315D01*
X176204110Y-91530316D01*
X176325686Y-91554501D01*
X176325688Y-91554501D01*
X176480426Y-91554501D01*
X176480446Y-91554500D01*
X177236113Y-91554500D01*
X177303152Y-91574185D01*
X177323794Y-91590819D01*
X177512902Y-91779927D01*
X177545795Y-91812819D01*
X177579280Y-91874142D01*
X177574296Y-91943833D01*
X177532425Y-91999767D01*
X177466960Y-92024184D01*
X177458114Y-92024500D01*
X177349984Y-92024500D01*
X177247204Y-92035000D01*
X177247203Y-92035001D01*
X177080664Y-92090186D01*
X177080662Y-92090187D01*
X176931348Y-92182286D01*
X176931344Y-92182289D01*
X176807289Y-92306344D01*
X176807286Y-92306348D01*
X176715187Y-92455662D01*
X176715186Y-92455664D01*
X176660001Y-92622203D01*
X176660000Y-92622205D01*
X176653779Y-92683103D01*
X176627382Y-92747795D01*
X176570201Y-92787946D01*
X176530421Y-92794500D01*
X173106929Y-92794500D01*
X172948905Y-92825933D01*
X172948893Y-92825936D01*
X172800038Y-92887593D01*
X172800025Y-92887600D01*
X172666055Y-92977117D01*
X172666051Y-92977120D01*
X171414620Y-94228551D01*
X171414617Y-94228555D01*
X171325099Y-94362527D01*
X171309964Y-94399067D01*
X171309963Y-94399066D01*
X171263436Y-94511393D01*
X171263433Y-94511405D01*
X171232000Y-94669429D01*
X171232000Y-95725500D01*
X171212315Y-95792539D01*
X171159511Y-95838294D01*
X171108000Y-95849500D01*
X170552129Y-95849500D01*
X170552123Y-95849501D01*
X170492516Y-95855908D01*
X170357671Y-95906202D01*
X170357664Y-95906206D01*
X170242455Y-95992452D01*
X170242452Y-95992455D01*
X170156206Y-96107664D01*
X170156202Y-96107671D01*
X170105908Y-96242517D01*
X170099501Y-96302116D01*
X170099501Y-96302123D01*
X170099500Y-96302135D01*
X170099500Y-100897870D01*
X170099501Y-100897876D01*
X170105908Y-100957483D01*
X170156202Y-101092328D01*
X170156206Y-101092335D01*
X170242452Y-101207544D01*
X170242455Y-101207547D01*
X170357664Y-101293793D01*
X170357671Y-101293797D01*
X170492517Y-101344091D01*
X170492516Y-101344091D01*
X170499444Y-101344835D01*
X170552127Y-101350500D01*
X173547872Y-101350499D01*
X173607483Y-101344091D01*
X173742331Y-101293796D01*
X173857546Y-101207546D01*
X173943796Y-101092331D01*
X173994091Y-100957483D01*
X174000500Y-100897873D01*
X174000500Y-100874985D01*
X176650000Y-100874985D01*
X176660493Y-100977689D01*
X176660494Y-100977696D01*
X176715641Y-101144118D01*
X176715643Y-101144123D01*
X176807684Y-101293344D01*
X176931655Y-101417315D01*
X177080876Y-101509356D01*
X177080881Y-101509358D01*
X177247303Y-101564505D01*
X177247310Y-101564506D01*
X177350014Y-101574999D01*
X177350027Y-101575000D01*
X178550000Y-101575000D01*
X179050000Y-101575000D01*
X180249973Y-101575000D01*
X180249985Y-101574999D01*
X180352689Y-101564506D01*
X180352696Y-101564505D01*
X180519118Y-101509358D01*
X180519123Y-101509356D01*
X180668344Y-101417315D01*
X180792315Y-101293344D01*
X180884356Y-101144123D01*
X180884358Y-101144118D01*
X180939505Y-100977696D01*
X180939506Y-100977689D01*
X180949999Y-100874985D01*
X180950000Y-100874972D01*
X180950000Y-100237500D01*
X179050000Y-100237500D01*
X179050000Y-101575000D01*
X178550000Y-101575000D01*
X178550000Y-100237500D01*
X176650000Y-100237500D01*
X176650000Y-100874985D01*
X174000500Y-100874985D01*
X174000500Y-99100014D01*
X176650000Y-99100014D01*
X176650000Y-99737500D01*
X178550000Y-99737500D01*
X179050000Y-99737500D01*
X180950000Y-99737500D01*
X180950000Y-99100027D01*
X180949999Y-99100014D01*
X180939506Y-98997310D01*
X180939505Y-98997303D01*
X180884358Y-98830881D01*
X180884356Y-98830876D01*
X180792315Y-98681655D01*
X180668344Y-98557684D01*
X180519123Y-98465643D01*
X180519118Y-98465641D01*
X180352696Y-98410494D01*
X180352689Y-98410493D01*
X180249985Y-98400000D01*
X179050000Y-98400000D01*
X179050000Y-99737500D01*
X178550000Y-99737500D01*
X178550000Y-98400000D01*
X177350014Y-98400000D01*
X177247310Y-98410493D01*
X177247303Y-98410494D01*
X177080881Y-98465641D01*
X177080876Y-98465643D01*
X176931655Y-98557684D01*
X176807684Y-98681655D01*
X176715643Y-98830876D01*
X176715641Y-98830881D01*
X176660494Y-98997303D01*
X176660493Y-98997310D01*
X176650000Y-99100014D01*
X174000500Y-99100014D01*
X174000499Y-96302128D01*
X173994091Y-96242517D01*
X173943796Y-96107669D01*
X173943795Y-96107668D01*
X173943793Y-96107664D01*
X173857547Y-95992455D01*
X173857544Y-95992452D01*
X173742335Y-95906206D01*
X173742328Y-95906202D01*
X173607482Y-95855908D01*
X173607483Y-95855908D01*
X173547883Y-95849501D01*
X173547881Y-95849500D01*
X173547873Y-95849500D01*
X173547865Y-95849500D01*
X172992000Y-95849500D01*
X172924961Y-95829815D01*
X172879206Y-95777011D01*
X172868000Y-95725500D01*
X172868000Y-95140189D01*
X172887685Y-95073150D01*
X172904319Y-95052508D01*
X173490008Y-94466819D01*
X173551331Y-94433334D01*
X173577689Y-94430500D01*
X176530421Y-94430500D01*
X176597460Y-94450185D01*
X176643215Y-94502989D01*
X176653779Y-94541897D01*
X176660000Y-94602794D01*
X176660000Y-94602795D01*
X176660001Y-94602797D01*
X176682081Y-94669429D01*
X176715186Y-94769335D01*
X176715187Y-94769337D01*
X176807286Y-94918651D01*
X176807289Y-94918655D01*
X176931344Y-95042710D01*
X176931348Y-95042713D01*
X177080662Y-95134812D01*
X177080664Y-95134813D01*
X177080666Y-95134814D01*
X177247203Y-95189999D01*
X177349992Y-95200500D01*
X177349997Y-95200500D01*
X180250003Y-95200500D01*
X180250008Y-95200500D01*
X180352797Y-95189999D01*
X180519334Y-95134814D01*
X180668655Y-95042711D01*
X180792711Y-94918655D01*
X180884814Y-94769334D01*
X180939999Y-94602797D01*
X180950500Y-94500008D01*
X180950500Y-92724992D01*
X180939999Y-92622203D01*
X180884814Y-92455666D01*
X180876498Y-92442184D01*
X180792713Y-92306348D01*
X180792710Y-92306344D01*
X180668655Y-92182289D01*
X180668651Y-92182286D01*
X180519337Y-92090187D01*
X180519335Y-92090186D01*
X180406468Y-92052786D01*
X180352797Y-92035001D01*
X180352795Y-92035000D01*
X180250015Y-92024500D01*
X180250008Y-92024500D01*
X179675919Y-92024500D01*
X179608880Y-92004815D01*
X179563125Y-91952011D01*
X179554302Y-91924691D01*
X179532049Y-91812819D01*
X179525505Y-91779920D01*
X179468629Y-91642610D01*
X179452936Y-91619124D01*
X179386060Y-91519035D01*
X179386054Y-91519028D01*
X179276647Y-91409621D01*
X179276624Y-91409600D01*
X178080969Y-90213943D01*
X178080968Y-90213942D01*
X178013850Y-90169096D01*
X177957389Y-90131370D01*
X177957386Y-90131368D01*
X177957385Y-90131368D01*
X177876955Y-90098053D01*
X177820080Y-90074495D01*
X177819160Y-90074312D01*
X177795894Y-90069684D01*
X177674314Y-90045499D01*
X177674312Y-90045499D01*
X177525688Y-90045499D01*
X177519574Y-90045499D01*
X177519554Y-90045500D01*
X176763886Y-90045500D01*
X176696847Y-90025815D01*
X176676205Y-90009181D01*
X176390819Y-89723794D01*
X176357334Y-89662471D01*
X176354500Y-89636113D01*
X176354500Y-87280446D01*
X176354501Y-87280425D01*
X176354501Y-87125685D01*
X176325506Y-86979925D01*
X176325504Y-86979919D01*
X176319519Y-86965469D01*
X176299838Y-86917957D01*
X176268629Y-86842610D01*
X176249944Y-86814646D01*
X176186060Y-86719035D01*
X176186054Y-86719028D01*
X176076647Y-86609621D01*
X176076624Y-86609600D01*
X175405969Y-85938943D01*
X175405968Y-85938942D01*
X175377909Y-85920194D01*
X175365017Y-85911580D01*
X175320213Y-85857969D01*
X175311505Y-85788644D01*
X175341659Y-85725616D01*
X175346217Y-85720806D01*
X175432059Y-85634966D01*
X175484819Y-85556004D01*
X175538429Y-85511199D01*
X175607754Y-85502490D01*
X175670782Y-85532644D01*
X175707502Y-85592087D01*
X175709173Y-85598931D01*
X175710000Y-85602797D01*
X175748455Y-85718844D01*
X175765186Y-85769334D01*
X175857288Y-85918656D01*
X175981344Y-86042712D01*
X176130666Y-86134814D01*
X176297203Y-86189999D01*
X176399991Y-86200500D01*
X177200008Y-86200499D01*
X177200016Y-86200498D01*
X177200019Y-86200498D01*
X177256302Y-86194748D01*
X177302797Y-86189999D01*
X177469334Y-86134814D01*
X177618656Y-86042712D01*
X177712675Y-85948692D01*
X177773994Y-85915210D01*
X177843686Y-85920194D01*
X177888034Y-85948695D01*
X177981654Y-86042315D01*
X178130875Y-86134356D01*
X178130880Y-86134358D01*
X178297302Y-86189505D01*
X178297309Y-86189506D01*
X178400019Y-86199999D01*
X178549999Y-86199999D01*
X179050000Y-86199999D01*
X179199972Y-86199999D01*
X179199986Y-86199998D01*
X179302697Y-86189505D01*
X179469119Y-86134358D01*
X179469124Y-86134356D01*
X179618345Y-86042315D01*
X179742315Y-85918345D01*
X179753220Y-85900666D01*
X180791500Y-85900666D01*
X180791500Y-91049333D01*
X180830254Y-91244161D01*
X180830256Y-91244169D01*
X180874096Y-91350008D01*
X180906277Y-91427700D01*
X180906282Y-91427710D01*
X181016646Y-91592880D01*
X181016649Y-91592884D01*
X184963181Y-95539416D01*
X184996666Y-95600739D01*
X184999500Y-95627097D01*
X184999500Y-96300001D01*
X184999501Y-96300019D01*
X185010000Y-96402796D01*
X185010001Y-96402799D01*
X185065185Y-96569331D01*
X185065187Y-96569336D01*
X185095301Y-96618158D01*
X185157288Y-96718656D01*
X185281344Y-96842712D01*
X185430666Y-96934814D01*
X185430667Y-96934814D01*
X185432596Y-96936004D01*
X185479321Y-96987952D01*
X185491500Y-97041543D01*
X185491500Y-99399333D01*
X185530254Y-99594161D01*
X185530256Y-99594169D01*
X185606277Y-99777701D01*
X185606282Y-99777710D01*
X185716646Y-99942880D01*
X185716649Y-99942884D01*
X185857115Y-100083350D01*
X185857119Y-100083353D01*
X186022289Y-100193717D01*
X186022295Y-100193720D01*
X186022296Y-100193721D01*
X186205831Y-100269744D01*
X186373785Y-100303152D01*
X186400666Y-100308499D01*
X186400670Y-100308500D01*
X186400671Y-100308500D01*
X186599330Y-100308500D01*
X186599331Y-100308499D01*
X186794169Y-100269744D01*
X186977704Y-100193721D01*
X187142881Y-100083353D01*
X187283353Y-99942881D01*
X187393721Y-99777704D01*
X187469744Y-99594169D01*
X187508500Y-99399329D01*
X187508500Y-97041543D01*
X187528185Y-96974504D01*
X187567404Y-96936004D01*
X187569332Y-96934814D01*
X187569334Y-96934814D01*
X187718656Y-96842712D01*
X187842712Y-96718656D01*
X187934814Y-96569334D01*
X187989999Y-96402797D01*
X188000500Y-96300009D01*
X188000499Y-94999992D01*
X187989999Y-94897203D01*
X187934814Y-94730666D01*
X187842712Y-94581344D01*
X187718656Y-94457288D01*
X187569334Y-94365186D01*
X187569333Y-94365185D01*
X187563878Y-94361821D01*
X187517154Y-94309873D01*
X187505931Y-94240910D01*
X187533775Y-94176828D01*
X187541272Y-94168623D01*
X187680104Y-94029792D01*
X187701738Y-94000016D01*
X187805048Y-93857820D01*
X187805047Y-93857820D01*
X187805051Y-93857816D01*
X187901557Y-93668412D01*
X187967246Y-93466243D01*
X188000500Y-93256287D01*
X188000500Y-93043713D01*
X187967246Y-92833757D01*
X187901557Y-92631588D01*
X187805051Y-92442184D01*
X187805049Y-92442181D01*
X187805048Y-92442179D01*
X187680109Y-92270213D01*
X187529786Y-92119890D01*
X187357820Y-91994951D01*
X187168414Y-91898444D01*
X187168413Y-91898443D01*
X187168412Y-91898443D01*
X186966243Y-91832754D01*
X186966241Y-91832753D01*
X186966240Y-91832753D01*
X186804957Y-91807208D01*
X186756287Y-91799500D01*
X186243713Y-91799500D01*
X186195042Y-91807208D01*
X186033760Y-91832753D01*
X185831585Y-91898444D01*
X185642179Y-91994951D01*
X185470213Y-92119890D01*
X185319890Y-92270213D01*
X185194948Y-92442184D01*
X185194947Y-92442185D01*
X185111582Y-92605797D01*
X185063608Y-92656593D01*
X184995787Y-92673388D01*
X184929652Y-92650850D01*
X184913417Y-92637183D01*
X183927010Y-91650776D01*
X182844819Y-90568584D01*
X182811334Y-90507261D01*
X182808500Y-90480903D01*
X182808500Y-86469096D01*
X182828185Y-86402057D01*
X182844819Y-86381415D01*
X183191351Y-86034884D01*
X183191351Y-86034883D01*
X183191354Y-86034881D01*
X183301722Y-85869704D01*
X183343296Y-85769336D01*
X183359021Y-85731371D01*
X183361405Y-85725616D01*
X183377744Y-85686169D01*
X183387929Y-85634969D01*
X183408282Y-85532644D01*
X183416500Y-85491329D01*
X183416500Y-84424499D01*
X183436185Y-84357460D01*
X183488989Y-84311705D01*
X183540495Y-84300499D01*
X186147872Y-84300499D01*
X186207483Y-84294091D01*
X186342331Y-84243796D01*
X186457546Y-84157546D01*
X186543796Y-84042331D01*
X186594091Y-83907483D01*
X186600500Y-83847873D01*
X186600499Y-81152128D01*
X186594091Y-81092517D01*
X186573462Y-81037209D01*
X186543797Y-80957671D01*
X186543793Y-80957664D01*
X186457547Y-80842455D01*
X186457544Y-80842452D01*
X186342335Y-80756206D01*
X186342328Y-80756202D01*
X186207482Y-80705908D01*
X186207483Y-80705908D01*
X186147883Y-80699501D01*
X186147881Y-80699500D01*
X186147873Y-80699500D01*
X186147865Y-80699500D01*
X183826097Y-80699500D01*
X183759058Y-80679815D01*
X183713303Y-80627011D01*
X183703359Y-80557853D01*
X183732384Y-80494297D01*
X183738417Y-80487818D01*
X183781418Y-80444818D01*
X183842741Y-80411333D01*
X183869098Y-80408500D01*
X184099330Y-80408500D01*
X184099331Y-80408499D01*
X184294169Y-80369744D01*
X184477704Y-80293721D01*
X184642881Y-80183353D01*
X184783353Y-80042881D01*
X184841912Y-79984322D01*
X184841923Y-79984309D01*
X185583354Y-79242881D01*
X185690029Y-79083230D01*
X185723271Y-79049677D01*
X185925741Y-78911635D01*
X186123561Y-78728085D01*
X186291815Y-78517102D01*
X186426743Y-78283398D01*
X186525334Y-78032195D01*
X186585383Y-77769103D01*
X186605549Y-77500000D01*
X186603268Y-77469561D01*
X186585384Y-77230904D01*
X186585383Y-77230898D01*
X186585383Y-77230897D01*
X186583899Y-77224395D01*
X186588172Y-77154658D01*
X186617107Y-77109125D01*
X187583353Y-76142881D01*
X187693721Y-75977704D01*
X187769744Y-75794169D01*
X187808500Y-75599329D01*
X187808500Y-75400671D01*
X187808500Y-72391543D01*
X187828185Y-72324504D01*
X187867404Y-72286004D01*
X187869332Y-72284814D01*
X187869334Y-72284814D01*
X188018656Y-72192712D01*
X188142712Y-72068656D01*
X188234814Y-71919334D01*
X188289999Y-71752797D01*
X188300500Y-71650009D01*
X188300499Y-70349992D01*
X188289999Y-70247203D01*
X188234814Y-70080666D01*
X188142712Y-69931344D01*
X188018656Y-69807288D01*
X187869334Y-69715186D01*
X187869333Y-69715185D01*
X187863878Y-69711821D01*
X187817154Y-69659873D01*
X187805931Y-69590910D01*
X187833775Y-69526828D01*
X187841272Y-69518623D01*
X187980104Y-69379792D01*
X188040790Y-69296265D01*
X188105048Y-69207820D01*
X188105047Y-69207820D01*
X188105051Y-69207816D01*
X188201557Y-69018412D01*
X188267246Y-68816243D01*
X188300500Y-68606287D01*
X188300500Y-68393713D01*
X188267246Y-68183757D01*
X188201557Y-67981588D01*
X188105051Y-67792184D01*
X188105049Y-67792181D01*
X188105048Y-67792179D01*
X187980109Y-67620213D01*
X187829786Y-67469890D01*
X187657820Y-67344951D01*
X187468414Y-67248444D01*
X187468413Y-67248443D01*
X187468412Y-67248443D01*
X187266243Y-67182754D01*
X187266241Y-67182753D01*
X187266240Y-67182753D01*
X187104957Y-67157208D01*
X187056287Y-67149500D01*
X186543713Y-67149500D01*
X186495042Y-67157208D01*
X186333760Y-67182753D01*
X186131585Y-67248444D01*
X185942179Y-67344951D01*
X185770213Y-67469890D01*
X185619890Y-67620213D01*
X185494951Y-67792179D01*
X185398444Y-67981585D01*
X185398443Y-67981587D01*
X185398443Y-67981588D01*
X185379747Y-68039128D01*
X185332753Y-68183760D01*
X185299500Y-68393713D01*
X185299500Y-68606286D01*
X185326112Y-68774312D01*
X185332754Y-68816243D01*
X185392454Y-68999981D01*
X185398444Y-69018414D01*
X185494951Y-69207820D01*
X185619890Y-69379786D01*
X185758705Y-69518601D01*
X185792190Y-69579924D01*
X185787206Y-69649616D01*
X185745334Y-69705549D01*
X185736121Y-69711821D01*
X185581342Y-69807289D01*
X185457289Y-69931342D01*
X185365187Y-70080663D01*
X185365186Y-70080666D01*
X185310001Y-70247203D01*
X185310001Y-70247204D01*
X185310000Y-70247204D01*
X185299500Y-70349983D01*
X185299500Y-71650001D01*
X185299501Y-71650018D01*
X185310000Y-71752796D01*
X185310001Y-71752799D01*
X185365185Y-71919331D01*
X185365187Y-71919336D01*
X185381705Y-71946116D01*
X185457288Y-72068656D01*
X185581344Y-72192712D01*
X185730666Y-72284814D01*
X185730667Y-72284814D01*
X185732596Y-72286004D01*
X185779321Y-72337952D01*
X185791500Y-72391543D01*
X185791500Y-75030903D01*
X185771815Y-75097942D01*
X185755181Y-75118584D01*
X185187179Y-75686585D01*
X185125856Y-75720070D01*
X185081017Y-75721519D01*
X184934936Y-75699500D01*
X184934929Y-75699500D01*
X184665071Y-75699500D01*
X184665063Y-75699500D01*
X184398232Y-75739718D01*
X184398226Y-75739720D01*
X184140358Y-75819262D01*
X183897230Y-75936346D01*
X183674258Y-76088365D01*
X183476442Y-76271910D01*
X183308185Y-76482898D01*
X183173258Y-76716599D01*
X183173256Y-76716603D01*
X183074666Y-76967804D01*
X183074664Y-76967811D01*
X183014616Y-77230898D01*
X182994451Y-77499995D01*
X182994451Y-77500004D01*
X183014616Y-77769101D01*
X183063167Y-77981816D01*
X183074666Y-78032195D01*
X183165838Y-78264496D01*
X183168943Y-78272406D01*
X183175112Y-78342003D01*
X183142674Y-78403887D01*
X183100970Y-78432269D01*
X183081136Y-78440485D01*
X183081133Y-78440486D01*
X182922295Y-78506278D01*
X182922292Y-78506279D01*
X182757119Y-78616645D01*
X182757115Y-78616648D01*
X181910115Y-79463651D01*
X181765119Y-79608647D01*
X181717100Y-79656666D01*
X181624645Y-79749120D01*
X181514282Y-79914289D01*
X181514277Y-79914298D01*
X181438256Y-80097830D01*
X181438254Y-80097838D01*
X181399500Y-80292666D01*
X181399500Y-84922903D01*
X181379815Y-84989942D01*
X181363180Y-85010584D01*
X181157119Y-85216647D01*
X181086882Y-85286884D01*
X181016645Y-85357120D01*
X180906282Y-85522289D01*
X180906277Y-85522298D01*
X180830256Y-85705830D01*
X180830254Y-85705838D01*
X180791500Y-85900666D01*
X179753220Y-85900666D01*
X179834356Y-85769124D01*
X179834358Y-85769119D01*
X179889505Y-85602697D01*
X179889506Y-85602690D01*
X179899999Y-85499986D01*
X179900000Y-85499973D01*
X179900000Y-85250000D01*
X179050000Y-85250000D01*
X179050000Y-86199999D01*
X178549999Y-86199999D01*
X178550000Y-86199998D01*
X178550000Y-84750000D01*
X179050000Y-84750000D01*
X179899999Y-84750000D01*
X179899999Y-84500028D01*
X179899998Y-84500013D01*
X179889505Y-84397302D01*
X179834358Y-84230880D01*
X179834356Y-84230875D01*
X179742315Y-84081654D01*
X179618345Y-83957684D01*
X179469124Y-83865643D01*
X179469119Y-83865641D01*
X179302697Y-83810494D01*
X179302690Y-83810493D01*
X179199986Y-83800000D01*
X179050000Y-83800000D01*
X179050000Y-84750000D01*
X178550000Y-84750000D01*
X178550000Y-83800000D01*
X178400027Y-83800000D01*
X178400012Y-83800001D01*
X178297302Y-83810494D01*
X178130880Y-83865641D01*
X178130875Y-83865643D01*
X177981657Y-83957682D01*
X177888034Y-84051305D01*
X177826710Y-84084789D01*
X177757019Y-84079805D01*
X177712672Y-84051304D01*
X177618657Y-83957289D01*
X177618656Y-83957288D01*
X177469334Y-83865186D01*
X177469332Y-83865185D01*
X177463187Y-83861395D01*
X177464290Y-83859605D01*
X177419649Y-83820290D01*
X177400500Y-83754091D01*
X177400500Y-83524500D01*
X177420185Y-83457461D01*
X177472989Y-83411706D01*
X177524500Y-83400500D01*
X177913331Y-83400500D01*
X177913347Y-83400501D01*
X177920943Y-83400501D01*
X178079054Y-83400501D01*
X178079057Y-83400501D01*
X178231785Y-83359577D01*
X178287636Y-83327331D01*
X178368716Y-83280520D01*
X178480520Y-83168716D01*
X178480520Y-83168714D01*
X178490724Y-83158511D01*
X178490728Y-83158506D01*
X179233506Y-82415728D01*
X179233511Y-82415724D01*
X179243714Y-82405520D01*
X179243716Y-82405520D01*
X179355520Y-82293716D01*
X179425476Y-82172548D01*
X179425477Y-82172547D01*
X179430884Y-82163181D01*
X179434577Y-82156785D01*
X179475501Y-82004057D01*
X179475501Y-81845943D01*
X179475501Y-81838348D01*
X179475500Y-81838330D01*
X179475500Y-81445908D01*
X179495185Y-81378869D01*
X179539271Y-81340363D01*
X179538187Y-81338605D01*
X179544332Y-81334814D01*
X179544334Y-81334814D01*
X179693656Y-81242712D01*
X179817712Y-81118656D01*
X179909814Y-80969334D01*
X179964999Y-80802797D01*
X179975500Y-80700009D01*
X179975499Y-79699992D01*
X179971442Y-79660281D01*
X179964999Y-79597203D01*
X179964998Y-79597200D01*
X179938532Y-79517331D01*
X179909814Y-79430666D01*
X179817712Y-79281344D01*
X179729945Y-79193577D01*
X179696460Y-79132254D01*
X179701444Y-79062562D01*
X179729945Y-79018214D01*
X179804817Y-78943342D01*
X179896856Y-78794124D01*
X179896858Y-78794119D01*
X179952005Y-78627697D01*
X179952006Y-78627690D01*
X179962499Y-78524986D01*
X179962500Y-78524973D01*
X179962500Y-78250000D01*
X178749000Y-78250000D01*
X178681961Y-78230315D01*
X178636206Y-78177511D01*
X178625000Y-78126000D01*
X178625000Y-77750000D01*
X179125000Y-77750000D01*
X179962499Y-77750000D01*
X179962499Y-77475028D01*
X179962498Y-77475013D01*
X179952005Y-77372302D01*
X179896858Y-77205880D01*
X179896856Y-77205875D01*
X179804815Y-77056654D01*
X179735842Y-76987681D01*
X179702357Y-76926358D01*
X179707341Y-76856666D01*
X179735842Y-76812319D01*
X179804815Y-76743345D01*
X179896856Y-76594124D01*
X179896858Y-76594119D01*
X179952005Y-76427697D01*
X179952006Y-76427690D01*
X179962499Y-76324986D01*
X179962500Y-76324973D01*
X179962500Y-76050000D01*
X179125000Y-76050000D01*
X179125000Y-77750000D01*
X178625000Y-77750000D01*
X178625000Y-75550000D01*
X179125000Y-75550000D01*
X179962499Y-75550000D01*
X179962499Y-75275028D01*
X179962498Y-75275013D01*
X179952005Y-75172302D01*
X179896858Y-75005880D01*
X179896856Y-75005875D01*
X179804815Y-74856654D01*
X179680845Y-74732684D01*
X179531624Y-74640643D01*
X179531619Y-74640641D01*
X179365197Y-74585494D01*
X179365190Y-74585493D01*
X179262486Y-74575000D01*
X179125000Y-74575000D01*
X179125000Y-75550000D01*
X178625000Y-75550000D01*
X178625000Y-74575000D01*
X178487527Y-74575000D01*
X178487512Y-74575001D01*
X178384802Y-74585494D01*
X178218380Y-74640641D01*
X178218375Y-74640643D01*
X178069154Y-74732684D01*
X177945183Y-74856655D01*
X177945179Y-74856660D01*
X177943326Y-74859665D01*
X177941518Y-74861290D01*
X177940702Y-74862323D01*
X177940525Y-74862183D01*
X177891374Y-74906385D01*
X177822411Y-74917601D01*
X177758331Y-74889752D01*
X177732253Y-74859653D01*
X177732237Y-74859628D01*
X177730212Y-74856344D01*
X177606156Y-74732288D01*
X177483754Y-74656790D01*
X177456836Y-74640187D01*
X177456831Y-74640185D01*
X177455362Y-74639698D01*
X177290297Y-74585001D01*
X177290295Y-74585000D01*
X177187510Y-74574500D01*
X176412498Y-74574500D01*
X176412480Y-74574501D01*
X176309703Y-74585000D01*
X176309700Y-74585001D01*
X176143168Y-74640185D01*
X176143163Y-74640187D01*
X175993842Y-74732289D01*
X175869791Y-74856340D01*
X175865386Y-74861912D01*
X175808363Y-74902288D01*
X175768120Y-74909000D01*
X175640613Y-74909000D01*
X175574641Y-74889994D01*
X175549523Y-74874211D01*
X175379254Y-74814631D01*
X175379249Y-74814630D01*
X175200004Y-74794435D01*
X175199996Y-74794435D01*
X175020750Y-74814630D01*
X175020745Y-74814631D01*
X174850476Y-74874211D01*
X174697737Y-74970184D01*
X174570184Y-75097737D01*
X174474210Y-75250478D01*
X174414630Y-75420750D01*
X174406898Y-75489383D01*
X174379832Y-75553797D01*
X174322237Y-75593352D01*
X174283678Y-75599500D01*
X172982412Y-75599500D01*
X172915373Y-75579815D01*
X172905097Y-75572445D01*
X172902263Y-75570185D01*
X172902262Y-75570184D01*
X172794165Y-75502262D01*
X172749523Y-75474211D01*
X172579254Y-75414631D01*
X172579249Y-75414630D01*
X172400004Y-75394435D01*
X172399996Y-75394435D01*
X172220750Y-75414630D01*
X172220745Y-75414631D01*
X172050476Y-75474211D01*
X171897737Y-75570184D01*
X171799295Y-75668627D01*
X171770184Y-75697738D01*
X171731329Y-75759575D01*
X171674210Y-75850478D01*
X171614630Y-76020750D01*
X171606898Y-76089383D01*
X171579832Y-76153797D01*
X171522237Y-76193352D01*
X171483678Y-76199500D01*
X166700097Y-76199500D01*
X166633058Y-76179815D01*
X166612416Y-76163181D01*
X166487590Y-76038355D01*
X166487588Y-76038352D01*
X166415417Y-75966181D01*
X166381932Y-75904858D01*
X166386916Y-75835166D01*
X166428788Y-75779233D01*
X166494252Y-75754816D01*
X166503098Y-75754500D01*
X170511460Y-75754500D01*
X170552415Y-75761459D01*
X170620737Y-75785366D01*
X170620743Y-75785367D01*
X170620745Y-75785368D01*
X170620746Y-75785368D01*
X170620750Y-75785369D01*
X170799996Y-75805565D01*
X170800000Y-75805565D01*
X170800004Y-75805565D01*
X170979249Y-75785369D01*
X170979252Y-75785368D01*
X170979255Y-75785368D01*
X171149522Y-75725789D01*
X171302262Y-75629816D01*
X171429816Y-75502262D01*
X171525789Y-75349522D01*
X171585368Y-75179255D01*
X171585369Y-75179249D01*
X171605565Y-75000003D01*
X171605565Y-74999996D01*
X171585369Y-74820750D01*
X171585368Y-74820745D01*
X171561458Y-74752414D01*
X171554500Y-74711459D01*
X171554500Y-74088170D01*
X171574185Y-74021131D01*
X171613402Y-73982632D01*
X171718656Y-73917712D01*
X171842712Y-73793656D01*
X171842712Y-73793655D01*
X171845549Y-73790819D01*
X171906872Y-73757334D01*
X171933230Y-73754500D01*
X172171060Y-73754500D01*
X172238099Y-73774185D01*
X172258741Y-73790819D01*
X172297738Y-73829816D01*
X172388080Y-73886582D01*
X172450046Y-73925518D01*
X172450478Y-73925789D01*
X172598160Y-73977465D01*
X172620745Y-73985368D01*
X172620750Y-73985369D01*
X172799996Y-74005565D01*
X172800000Y-74005565D01*
X172800004Y-74005565D01*
X172979249Y-73985369D01*
X172979252Y-73985368D01*
X172979255Y-73985368D01*
X173149522Y-73925789D01*
X173302262Y-73829816D01*
X173429816Y-73702262D01*
X173525789Y-73549522D01*
X173585368Y-73379255D01*
X173588157Y-73354501D01*
X173605565Y-73200003D01*
X173605565Y-73199996D01*
X173585369Y-73020750D01*
X173585368Y-73020745D01*
X173566986Y-72968212D01*
X173525789Y-72850478D01*
X173513730Y-72831287D01*
X173429815Y-72697737D01*
X173302262Y-72570184D01*
X173143627Y-72470507D01*
X173144130Y-72469705D01*
X173118641Y-72451615D01*
X173080968Y-72413942D01*
X172957392Y-72331372D01*
X172957391Y-72331371D01*
X172957389Y-72331370D01*
X172957386Y-72331368D01*
X172957381Y-72331366D01*
X172844992Y-72284814D01*
X172844990Y-72284813D01*
X172820084Y-72274496D01*
X172820080Y-72274495D01*
X172795894Y-72269684D01*
X172674314Y-72245499D01*
X172674312Y-72245499D01*
X172525688Y-72245499D01*
X172519574Y-72245499D01*
X172519554Y-72245500D01*
X171933230Y-72245500D01*
X171866191Y-72225815D01*
X171845549Y-72209181D01*
X171718658Y-72082290D01*
X171718656Y-72082288D01*
X171715819Y-72080538D01*
X171714283Y-72078830D01*
X171712989Y-72077807D01*
X171713163Y-72077585D01*
X171669096Y-72028594D01*
X171657872Y-71959632D01*
X171685713Y-71895549D01*
X171715817Y-71869462D01*
X171718656Y-71867712D01*
X171842712Y-71743656D01*
X171934814Y-71594334D01*
X171949391Y-71550344D01*
X172362500Y-71550344D01*
X172368901Y-71609872D01*
X172368903Y-71609879D01*
X172419145Y-71744586D01*
X172419149Y-71744593D01*
X172505309Y-71859687D01*
X172505312Y-71859690D01*
X172620406Y-71945850D01*
X172620413Y-71945854D01*
X172755120Y-71996096D01*
X172755127Y-71996098D01*
X172814655Y-72002499D01*
X172814672Y-72002500D01*
X173262500Y-72002500D01*
X173262500Y-70252500D01*
X172362500Y-70252500D01*
X172362500Y-71550344D01*
X171949391Y-71550344D01*
X171989999Y-71427797D01*
X172000500Y-71325009D01*
X172000499Y-70574992D01*
X171989999Y-70472203D01*
X171934814Y-70305666D01*
X171842712Y-70156344D01*
X171718656Y-70032288D01*
X171569334Y-69940186D01*
X171402797Y-69885001D01*
X171402795Y-69885000D01*
X171300010Y-69874500D01*
X170299998Y-69874500D01*
X170299980Y-69874501D01*
X170197203Y-69885000D01*
X170197200Y-69885001D01*
X170030668Y-69940185D01*
X170030663Y-69940187D01*
X169881342Y-70032289D01*
X169812681Y-70100951D01*
X169751358Y-70134436D01*
X169681666Y-70129452D01*
X169637319Y-70100951D01*
X169543657Y-70007289D01*
X169543656Y-70007288D01*
X169434864Y-69940185D01*
X169394336Y-69915187D01*
X169394331Y-69915185D01*
X169392862Y-69914698D01*
X169227797Y-69860001D01*
X169227795Y-69860000D01*
X169125010Y-69849500D01*
X168074998Y-69849500D01*
X168074980Y-69849501D01*
X167972203Y-69860000D01*
X167972200Y-69860001D01*
X167805668Y-69915185D01*
X167805663Y-69915187D01*
X167656342Y-70007289D01*
X167532288Y-70131343D01*
X167532285Y-70131347D01*
X167477324Y-70220453D01*
X167425376Y-70267178D01*
X167356414Y-70278399D01*
X167292332Y-70250556D01*
X167266248Y-70220453D01*
X167242319Y-70181659D01*
X167242316Y-70181655D01*
X167118345Y-70057684D01*
X166969124Y-69965643D01*
X166969119Y-69965641D01*
X166802697Y-69910494D01*
X166802690Y-69910493D01*
X166699986Y-69900000D01*
X166450000Y-69900000D01*
X166450000Y-71101000D01*
X166430315Y-71168039D01*
X166377511Y-71213794D01*
X166326000Y-71225000D01*
X165000001Y-71225000D01*
X165000001Y-71349986D01*
X165010494Y-71452697D01*
X165065641Y-71619119D01*
X165065643Y-71619124D01*
X165157684Y-71768345D01*
X165281655Y-71892316D01*
X165281659Y-71892319D01*
X165284656Y-71894168D01*
X165286279Y-71895972D01*
X165287323Y-71896798D01*
X165287181Y-71896976D01*
X165331381Y-71946116D01*
X165342602Y-72015079D01*
X165314759Y-72079161D01*
X165284661Y-72105241D01*
X165281349Y-72107283D01*
X165281343Y-72107288D01*
X165157289Y-72231342D01*
X165065187Y-72380663D01*
X165065185Y-72380668D01*
X165054803Y-72412000D01*
X165010001Y-72547203D01*
X165010001Y-72547204D01*
X165010000Y-72547204D01*
X164999500Y-72649983D01*
X164999500Y-73400001D01*
X164999501Y-73400019D01*
X165010000Y-73502796D01*
X165010001Y-73502799D01*
X165065185Y-73669331D01*
X165065187Y-73669336D01*
X165099471Y-73724919D01*
X165157288Y-73818656D01*
X165281344Y-73942712D01*
X165400101Y-74015962D01*
X165446825Y-74067909D01*
X165458048Y-74136871D01*
X165430204Y-74200954D01*
X165372136Y-74239810D01*
X165335004Y-74245500D01*
X163163886Y-74245500D01*
X163096847Y-74225815D01*
X163076205Y-74209181D01*
X161080969Y-72213943D01*
X161080968Y-72213942D01*
X160957392Y-72131372D01*
X160957391Y-72131371D01*
X160957389Y-72131370D01*
X160957386Y-72131368D01*
X160957381Y-72131366D01*
X160876193Y-72097738D01*
X160820080Y-72074495D01*
X160795894Y-72069684D01*
X160790726Y-72068656D01*
X160674314Y-72045499D01*
X160674312Y-72045499D01*
X160525688Y-72045499D01*
X160519574Y-72045499D01*
X160519554Y-72045500D01*
X156113171Y-72045500D01*
X156046132Y-72025815D01*
X156007632Y-71986597D01*
X155998014Y-71971004D01*
X155942712Y-71881344D01*
X155846549Y-71785181D01*
X155813064Y-71723858D01*
X155818048Y-71654166D01*
X155846549Y-71609819D01*
X155862037Y-71594331D01*
X155942712Y-71513656D01*
X156034814Y-71364334D01*
X156089999Y-71197797D01*
X156100500Y-71095009D01*
X156100500Y-70600013D01*
X165000000Y-70600013D01*
X165000000Y-70725000D01*
X165950000Y-70725000D01*
X165950000Y-69900000D01*
X165700029Y-69900000D01*
X165700012Y-69900001D01*
X165597302Y-69910494D01*
X165430880Y-69965641D01*
X165430875Y-69965643D01*
X165281654Y-70057684D01*
X165157684Y-70181654D01*
X165065643Y-70330875D01*
X165065641Y-70330880D01*
X165010494Y-70497302D01*
X165010493Y-70497309D01*
X165000000Y-70600013D01*
X156100500Y-70600013D01*
X156100499Y-70094992D01*
X156089999Y-69992203D01*
X156034814Y-69825666D01*
X155942712Y-69676344D01*
X155854376Y-69588008D01*
X155820891Y-69526685D01*
X155825875Y-69456993D01*
X155854373Y-69412650D01*
X155980963Y-69286060D01*
X155980966Y-69286059D01*
X156086059Y-69180966D01*
X156168629Y-69057390D01*
X156225505Y-68920080D01*
X156244870Y-68822721D01*
X156277254Y-68760813D01*
X156311390Y-68735829D01*
X156349296Y-68717030D01*
X156497722Y-68597722D01*
X156612722Y-68454655D01*
X172362500Y-68454655D01*
X172362500Y-69752500D01*
X173262500Y-69752500D01*
X173262500Y-68002500D01*
X173762500Y-68002500D01*
X173762500Y-72002500D01*
X174005665Y-72002500D01*
X174072704Y-72022185D01*
X174118459Y-72074989D01*
X174128403Y-72144147D01*
X174110658Y-72192473D01*
X174074211Y-72250475D01*
X174014631Y-72420745D01*
X174014630Y-72420750D01*
X173994435Y-72599996D01*
X173994435Y-72600003D01*
X174014630Y-72779249D01*
X174014631Y-72779254D01*
X174074211Y-72949523D01*
X174170184Y-73102262D01*
X174297738Y-73229816D01*
X174359505Y-73268627D01*
X174450022Y-73325503D01*
X174450478Y-73325789D01*
X174552417Y-73361459D01*
X174620745Y-73385368D01*
X174620750Y-73385369D01*
X174799996Y-73405565D01*
X174800000Y-73405565D01*
X174800004Y-73405565D01*
X174979249Y-73385369D01*
X174979251Y-73385368D01*
X174979255Y-73385368D01*
X174979258Y-73385366D01*
X174979262Y-73385366D01*
X175047585Y-73361459D01*
X175088540Y-73354500D01*
X179919554Y-73354500D01*
X179919574Y-73354501D01*
X179925688Y-73354501D01*
X180074314Y-73354501D01*
X180195894Y-73330315D01*
X180195894Y-73330316D01*
X180195900Y-73330313D01*
X180220080Y-73325505D01*
X180255942Y-73310649D01*
X180276944Y-73301951D01*
X180276947Y-73301949D01*
X180276955Y-73301946D01*
X180357389Y-73268630D01*
X180480966Y-73186059D01*
X180993463Y-72673560D01*
X180993466Y-72673559D01*
X181098559Y-72568466D01*
X181181129Y-72444890D01*
X181238005Y-72307580D01*
X181267000Y-72161812D01*
X181267000Y-72083798D01*
X181286685Y-72016759D01*
X181339489Y-71971004D01*
X181347644Y-71967625D01*
X181404831Y-71946296D01*
X181520046Y-71860046D01*
X181606296Y-71744831D01*
X181656591Y-71609983D01*
X181663000Y-71550373D01*
X181662999Y-68454628D01*
X181656591Y-68395017D01*
X181646317Y-68367472D01*
X181606297Y-68260171D01*
X181606293Y-68260164D01*
X181520047Y-68144955D01*
X181520044Y-68144952D01*
X181404835Y-68058706D01*
X181404828Y-68058702D01*
X181269982Y-68008408D01*
X181269983Y-68008408D01*
X181210383Y-68002001D01*
X181210381Y-68002000D01*
X181210373Y-68002000D01*
X181210364Y-68002000D01*
X179814629Y-68002000D01*
X179814623Y-68002001D01*
X179755016Y-68008408D01*
X179620171Y-68058702D01*
X179620164Y-68058706D01*
X179504955Y-68144952D01*
X179504952Y-68144955D01*
X179418706Y-68260164D01*
X179418702Y-68260171D01*
X179378682Y-68367472D01*
X179336811Y-68423406D01*
X179271346Y-68447823D01*
X179203073Y-68432971D01*
X179153668Y-68383566D01*
X179146318Y-68367472D01*
X179106297Y-68260171D01*
X179106293Y-68260164D01*
X179020047Y-68144955D01*
X179020044Y-68144952D01*
X178904835Y-68058706D01*
X178904828Y-68058702D01*
X178769982Y-68008408D01*
X178769983Y-68008408D01*
X178710383Y-68002001D01*
X178710381Y-68002000D01*
X178710373Y-68002000D01*
X178710364Y-68002000D01*
X177314629Y-68002000D01*
X177314623Y-68002001D01*
X177255016Y-68008408D01*
X177120171Y-68058702D01*
X177120169Y-68058703D01*
X177086810Y-68083676D01*
X177021345Y-68108092D01*
X176953072Y-68093240D01*
X176938190Y-68083676D01*
X176904830Y-68058703D01*
X176904828Y-68058702D01*
X176769982Y-68008408D01*
X176769983Y-68008408D01*
X176710383Y-68002001D01*
X176710381Y-68002000D01*
X176710373Y-68002000D01*
X176710364Y-68002000D01*
X175314629Y-68002000D01*
X175314623Y-68002001D01*
X175255016Y-68008408D01*
X175120171Y-68058702D01*
X175120164Y-68058706D01*
X175004955Y-68144952D01*
X175004952Y-68144955D01*
X174918706Y-68260164D01*
X174918702Y-68260171D01*
X174878415Y-68368187D01*
X174836544Y-68424121D01*
X174771079Y-68448538D01*
X174702806Y-68433686D01*
X174653401Y-68384281D01*
X174646051Y-68368187D01*
X174605854Y-68260413D01*
X174605850Y-68260406D01*
X174519690Y-68145312D01*
X174519687Y-68145309D01*
X174404593Y-68059149D01*
X174404586Y-68059145D01*
X174269879Y-68008903D01*
X174269872Y-68008901D01*
X174210344Y-68002500D01*
X173762500Y-68002500D01*
X173262500Y-68002500D01*
X172814655Y-68002500D01*
X172755127Y-68008901D01*
X172755120Y-68008903D01*
X172620413Y-68059145D01*
X172620406Y-68059149D01*
X172505312Y-68145309D01*
X172505309Y-68145312D01*
X172419149Y-68260406D01*
X172419145Y-68260413D01*
X172368903Y-68395120D01*
X172368901Y-68395127D01*
X172362500Y-68454655D01*
X156612722Y-68454655D01*
X156617030Y-68449296D01*
X156701641Y-68278693D01*
X156747600Y-68093889D01*
X156750500Y-68051123D01*
X156750499Y-67251043D01*
X169611999Y-67251043D01*
X169650447Y-67444329D01*
X169650450Y-67444339D01*
X169725864Y-67626407D01*
X169725871Y-67626420D01*
X169835360Y-67790281D01*
X169835363Y-67790285D01*
X169974712Y-67929634D01*
X169974718Y-67929639D01*
X170138579Y-68039128D01*
X170138592Y-68039135D01*
X170269215Y-68093240D01*
X170320665Y-68114551D01*
X170320669Y-68114551D01*
X170320670Y-68114552D01*
X170513956Y-68153000D01*
X170513959Y-68153000D01*
X170711043Y-68153000D01*
X170841082Y-68127132D01*
X170904335Y-68114551D01*
X171086414Y-68039132D01*
X171250282Y-67929639D01*
X171250284Y-67929636D01*
X171250288Y-67929634D01*
X171389636Y-67790285D01*
X171389639Y-67790282D01*
X171499132Y-67626414D01*
X171574551Y-67444335D01*
X171594320Y-67344949D01*
X171613000Y-67251043D01*
X182411999Y-67251043D01*
X182450447Y-67444329D01*
X182450450Y-67444339D01*
X182525864Y-67626407D01*
X182525871Y-67626420D01*
X182635360Y-67790281D01*
X182635363Y-67790285D01*
X182774712Y-67929634D01*
X182774718Y-67929639D01*
X182938579Y-68039128D01*
X182938592Y-68039135D01*
X183069215Y-68093240D01*
X183120665Y-68114551D01*
X183120669Y-68114551D01*
X183120670Y-68114552D01*
X183313956Y-68153000D01*
X183313959Y-68153000D01*
X183511043Y-68153000D01*
X183641082Y-68127132D01*
X183704335Y-68114551D01*
X183886414Y-68039132D01*
X184050282Y-67929639D01*
X184050284Y-67929636D01*
X184050288Y-67929634D01*
X184189636Y-67790285D01*
X184189639Y-67790282D01*
X184299132Y-67626414D01*
X184374551Y-67444335D01*
X184394320Y-67344949D01*
X184413000Y-67251043D01*
X184413000Y-65353956D01*
X184374552Y-65160670D01*
X184374551Y-65160669D01*
X184374551Y-65160665D01*
X184373839Y-65158947D01*
X184299135Y-64978592D01*
X184299128Y-64978579D01*
X184189639Y-64814718D01*
X184189636Y-64814714D01*
X184050285Y-64675363D01*
X184050281Y-64675360D01*
X183886420Y-64565871D01*
X183886407Y-64565864D01*
X183704339Y-64490450D01*
X183704329Y-64490447D01*
X183511043Y-64452000D01*
X183511041Y-64452000D01*
X183313959Y-64452000D01*
X183313957Y-64452000D01*
X183120670Y-64490447D01*
X183120660Y-64490450D01*
X182938592Y-64565864D01*
X182938579Y-64565871D01*
X182774718Y-64675360D01*
X182774714Y-64675363D01*
X182635363Y-64814714D01*
X182635360Y-64814718D01*
X182525871Y-64978579D01*
X182525864Y-64978592D01*
X182450450Y-65160660D01*
X182450447Y-65160670D01*
X182412000Y-65353956D01*
X182412000Y-65353959D01*
X182412000Y-67251041D01*
X182412000Y-67251043D01*
X182411999Y-67251043D01*
X171613000Y-67251043D01*
X171613000Y-65353956D01*
X171574552Y-65160670D01*
X171574551Y-65160669D01*
X171574551Y-65160665D01*
X171573839Y-65158947D01*
X171499135Y-64978592D01*
X171499128Y-64978579D01*
X171389639Y-64814718D01*
X171389636Y-64814714D01*
X171250285Y-64675363D01*
X171250281Y-64675360D01*
X171086420Y-64565871D01*
X171086407Y-64565864D01*
X170904339Y-64490450D01*
X170904329Y-64490447D01*
X170711043Y-64452000D01*
X170711041Y-64452000D01*
X170513959Y-64452000D01*
X170513957Y-64452000D01*
X170320670Y-64490447D01*
X170320660Y-64490450D01*
X170138592Y-64565864D01*
X170138579Y-64565871D01*
X169974718Y-64675360D01*
X169974714Y-64675363D01*
X169835363Y-64814714D01*
X169835360Y-64814718D01*
X169725871Y-64978579D01*
X169725864Y-64978592D01*
X169650450Y-65160660D01*
X169650447Y-65160670D01*
X169612000Y-65353956D01*
X169612000Y-65353959D01*
X169612000Y-67251041D01*
X169612000Y-67251043D01*
X169611999Y-67251043D01*
X156750499Y-67251043D01*
X156750499Y-66648878D01*
X156747600Y-66606111D01*
X156701641Y-66421307D01*
X156626706Y-66270213D01*
X156617032Y-66250707D01*
X156617030Y-66250704D01*
X156497722Y-66102278D01*
X156497721Y-66102277D01*
X156349296Y-65982970D01*
X156323402Y-65970127D01*
X156272091Y-65922704D01*
X156254500Y-65859040D01*
X156254500Y-65424986D01*
X157012501Y-65424986D01*
X157022994Y-65527697D01*
X157078141Y-65694119D01*
X157078143Y-65694124D01*
X157170184Y-65843345D01*
X157294154Y-65967315D01*
X157443375Y-66059356D01*
X157443380Y-66059358D01*
X157609802Y-66114505D01*
X157609809Y-66114506D01*
X157712519Y-66124999D01*
X157987499Y-66124999D01*
X158487500Y-66124999D01*
X158762472Y-66124999D01*
X158762486Y-66124998D01*
X158865197Y-66114505D01*
X159031619Y-66059358D01*
X159031624Y-66059356D01*
X159180845Y-65967315D01*
X159304817Y-65843343D01*
X159313211Y-65829735D01*
X159365158Y-65783010D01*
X159434121Y-65771787D01*
X159498203Y-65799630D01*
X159524289Y-65829735D01*
X159532682Y-65843343D01*
X159656654Y-65967315D01*
X159805875Y-66059356D01*
X159805880Y-66059358D01*
X159972302Y-66114505D01*
X159972309Y-66114506D01*
X160075019Y-66124999D01*
X160349999Y-66124999D01*
X160350000Y-66124998D01*
X160350000Y-65287500D01*
X158487500Y-65287500D01*
X158487500Y-66124999D01*
X157987499Y-66124999D01*
X157987500Y-66124998D01*
X157987500Y-65287500D01*
X157012501Y-65287500D01*
X157012501Y-65424986D01*
X156254500Y-65424986D01*
X156254500Y-65025687D01*
X156254499Y-65025683D01*
X156235852Y-64931939D01*
X156225505Y-64879920D01*
X156168629Y-64742610D01*
X156123696Y-64675363D01*
X156086060Y-64619035D01*
X156086054Y-64619028D01*
X155976641Y-64509615D01*
X155976630Y-64509605D01*
X155963232Y-64496207D01*
X155929747Y-64434884D01*
X155934731Y-64365192D01*
X155976603Y-64309259D01*
X155984922Y-64303545D01*
X156102262Y-64229816D01*
X156229816Y-64102262D01*
X156325789Y-63949522D01*
X156369238Y-63825349D01*
X156398599Y-63778622D01*
X156487404Y-63689818D01*
X156548728Y-63656334D01*
X156575085Y-63653500D01*
X157029553Y-63653500D01*
X157096592Y-63673185D01*
X157135090Y-63712400D01*
X157169788Y-63768656D01*
X157293844Y-63892712D01*
X157296200Y-63894165D01*
X157297153Y-63894753D01*
X157298945Y-63896746D01*
X157299511Y-63897193D01*
X157299434Y-63897289D01*
X157343879Y-63946699D01*
X157355103Y-64015661D01*
X157327261Y-64079744D01*
X157297165Y-64105826D01*
X157294160Y-64107679D01*
X157294155Y-64107683D01*
X157170184Y-64231654D01*
X157078143Y-64380875D01*
X157078141Y-64380880D01*
X157022994Y-64547302D01*
X157022993Y-64547309D01*
X157012500Y-64650013D01*
X157012500Y-64787500D01*
X160726000Y-64787500D01*
X160793039Y-64807185D01*
X160838794Y-64859989D01*
X160850000Y-64911500D01*
X160850000Y-66124999D01*
X161124972Y-66124999D01*
X161124986Y-66124998D01*
X161227697Y-66114505D01*
X161394119Y-66059358D01*
X161394124Y-66059356D01*
X161543345Y-65967315D01*
X161667316Y-65843344D01*
X161667320Y-65843339D01*
X161694167Y-65799813D01*
X161746114Y-65753087D01*
X161815076Y-65741864D01*
X161879159Y-65769707D01*
X161905245Y-65799812D01*
X161932095Y-65843344D01*
X161932288Y-65843656D01*
X162056344Y-65967712D01*
X162205666Y-66059814D01*
X162372203Y-66114999D01*
X162474991Y-66125500D01*
X163525008Y-66125499D01*
X163525016Y-66125498D01*
X163525019Y-66125498D01*
X163581302Y-66119748D01*
X163627797Y-66114999D01*
X163794334Y-66059814D01*
X163943656Y-65967712D01*
X164037319Y-65874049D01*
X164098642Y-65840564D01*
X164168334Y-65845548D01*
X164212681Y-65874049D01*
X164281344Y-65942712D01*
X164430666Y-66034814D01*
X164597203Y-66089999D01*
X164699991Y-66100500D01*
X165700008Y-66100499D01*
X165700016Y-66100498D01*
X165700019Y-66100498D01*
X165756302Y-66094748D01*
X165802797Y-66089999D01*
X165969334Y-66034814D01*
X166118656Y-65942712D01*
X166242712Y-65818656D01*
X166334814Y-65669334D01*
X166389999Y-65502797D01*
X166400500Y-65400009D01*
X166400499Y-64649992D01*
X166391256Y-64559513D01*
X166389999Y-64547203D01*
X166389998Y-64547200D01*
X166378976Y-64513939D01*
X166334814Y-64380666D01*
X166242712Y-64231344D01*
X166118656Y-64107288D01*
X166115342Y-64105243D01*
X166113546Y-64103248D01*
X166112989Y-64102807D01*
X166113064Y-64102711D01*
X166068618Y-64053297D01*
X166057397Y-63984334D01*
X166085240Y-63920252D01*
X166115348Y-63894165D01*
X166118342Y-63892318D01*
X166242315Y-63768345D01*
X166334356Y-63619124D01*
X166334358Y-63619119D01*
X166389505Y-63452697D01*
X166389506Y-63452690D01*
X166399999Y-63349986D01*
X166400000Y-63349973D01*
X166400000Y-63225000D01*
X165074000Y-63225000D01*
X165006961Y-63205315D01*
X164961206Y-63152511D01*
X164950000Y-63101000D01*
X164950000Y-62725000D01*
X165450000Y-62725000D01*
X166399999Y-62725000D01*
X166399999Y-62600028D01*
X166399998Y-62600013D01*
X166389505Y-62497302D01*
X166334358Y-62330880D01*
X166334356Y-62330875D01*
X166242315Y-62181654D01*
X166118345Y-62057684D01*
X165969124Y-61965643D01*
X165969119Y-61965641D01*
X165802697Y-61910494D01*
X165802690Y-61910493D01*
X165699986Y-61900000D01*
X165450000Y-61900000D01*
X165450000Y-62725000D01*
X164950000Y-62725000D01*
X164950000Y-61900000D01*
X164700029Y-61900000D01*
X164700012Y-61900001D01*
X164597302Y-61910494D01*
X164430880Y-61965641D01*
X164430875Y-61965643D01*
X164281657Y-62057682D01*
X164213034Y-62126305D01*
X164151710Y-62159789D01*
X164082019Y-62154804D01*
X164037672Y-62126304D01*
X163943657Y-62032289D01*
X163943656Y-62032288D01*
X163840493Y-61968657D01*
X163794336Y-61940187D01*
X163794331Y-61940185D01*
X163783769Y-61936685D01*
X163627797Y-61885001D01*
X163627795Y-61885000D01*
X163525010Y-61874500D01*
X162474998Y-61874500D01*
X162474980Y-61874501D01*
X162372203Y-61885000D01*
X162372200Y-61885001D01*
X162205668Y-61940185D01*
X162205663Y-61940187D01*
X162056342Y-62032289D01*
X161932290Y-62156341D01*
X161932288Y-62156343D01*
X161932288Y-62156344D01*
X161905536Y-62199714D01*
X161853591Y-62246437D01*
X161784628Y-62257660D01*
X161720546Y-62229816D01*
X161694464Y-62199716D01*
X161667712Y-62156344D01*
X161543656Y-62032288D01*
X161440493Y-61968657D01*
X161394336Y-61940187D01*
X161394331Y-61940185D01*
X161383769Y-61936685D01*
X161227797Y-61885001D01*
X161227795Y-61885000D01*
X161125010Y-61874500D01*
X160074998Y-61874500D01*
X160074980Y-61874501D01*
X159972203Y-61885000D01*
X159972200Y-61885001D01*
X159805668Y-61940185D01*
X159805663Y-61940187D01*
X159656342Y-62032289D01*
X159532289Y-62156342D01*
X159532287Y-62156345D01*
X159524288Y-62169314D01*
X159472340Y-62216039D01*
X159403378Y-62227260D01*
X159339296Y-62199417D01*
X159313212Y-62169314D01*
X159311829Y-62167072D01*
X159305212Y-62156344D01*
X159181156Y-62032288D01*
X159077993Y-61968657D01*
X159031836Y-61940187D01*
X159031831Y-61940185D01*
X159021269Y-61936685D01*
X158865297Y-61885001D01*
X158865295Y-61885000D01*
X158762510Y-61874500D01*
X157712498Y-61874500D01*
X157712480Y-61874501D01*
X157609703Y-61885000D01*
X157609700Y-61885001D01*
X157443168Y-61940185D01*
X157443163Y-61940187D01*
X157293842Y-62032289D01*
X157169790Y-62156341D01*
X157169788Y-62156343D01*
X157169788Y-62156344D01*
X157135090Y-62212598D01*
X157083144Y-62259321D01*
X157029553Y-62271500D01*
X155556564Y-62271500D01*
X155489525Y-62251815D01*
X155443770Y-62199011D01*
X155433826Y-62129853D01*
X155446655Y-62090089D01*
X155510086Y-61968656D01*
X155533909Y-61923049D01*
X155560280Y-61830888D01*
X155597648Y-61771850D01*
X155661002Y-61742387D01*
X155679496Y-61741000D01*
X156418060Y-61741000D01*
X156507870Y-61723134D01*
X156551557Y-61714445D01*
X156677311Y-61662356D01*
X156705582Y-61643466D01*
X156790487Y-61586735D01*
X157596735Y-60780486D01*
X157672356Y-60667311D01*
X157724445Y-60541557D01*
X157729801Y-60514630D01*
X157751000Y-60408058D01*
X157751000Y-58829363D01*
X157770685Y-58762324D01*
X157803877Y-58727788D01*
X157864369Y-58685431D01*
X157931401Y-58638495D01*
X158098495Y-58471401D01*
X158228425Y-58285842D01*
X158283002Y-58242217D01*
X158352500Y-58235023D01*
X158414855Y-58266546D01*
X158431575Y-58285842D01*
X158561281Y-58471082D01*
X158561505Y-58471401D01*
X158728599Y-58638495D01*
X158825384Y-58706265D01*
X158922165Y-58774032D01*
X158922167Y-58774033D01*
X158922170Y-58774035D01*
X159136337Y-58873903D01*
X159364592Y-58935063D01*
X159541034Y-58950500D01*
X159599999Y-58955659D01*
X159600000Y-58955659D01*
X159600001Y-58955659D01*
X159639234Y-58952226D01*
X159835408Y-58935063D01*
X160063663Y-58873903D01*
X160277830Y-58774035D01*
X160471401Y-58638495D01*
X160638495Y-58471401D01*
X160768425Y-58285842D01*
X160823002Y-58242217D01*
X160892500Y-58235023D01*
X160954855Y-58266546D01*
X160971575Y-58285842D01*
X161101281Y-58471082D01*
X161101505Y-58471401D01*
X161268599Y-58638495D01*
X161365384Y-58706265D01*
X161462165Y-58774032D01*
X161462167Y-58774033D01*
X161462170Y-58774035D01*
X161676337Y-58873903D01*
X161904592Y-58935063D01*
X162081034Y-58950500D01*
X162139999Y-58955659D01*
X162140000Y-58955659D01*
X162140001Y-58955659D01*
X162179234Y-58952226D01*
X162375408Y-58935063D01*
X162603663Y-58873903D01*
X162817830Y-58774035D01*
X163011401Y-58638495D01*
X163178495Y-58471401D01*
X163308730Y-58285405D01*
X163363307Y-58241781D01*
X163432805Y-58234587D01*
X163495160Y-58266110D01*
X163511879Y-58285405D01*
X163641890Y-58471078D01*
X163808917Y-58638105D01*
X164002421Y-58773600D01*
X164216507Y-58873429D01*
X164216516Y-58873433D01*
X164430000Y-58930634D01*
X164430000Y-58033012D01*
X164487007Y-58065925D01*
X164614174Y-58100000D01*
X164745826Y-58100000D01*
X164872993Y-58065925D01*
X164930000Y-58033012D01*
X164930000Y-58930633D01*
X165143483Y-58873433D01*
X165143492Y-58873429D01*
X165357578Y-58773600D01*
X165551082Y-58638105D01*
X165718105Y-58471082D01*
X165848425Y-58284968D01*
X165903002Y-58241344D01*
X165972501Y-58234151D01*
X166034855Y-58265673D01*
X166051575Y-58284968D01*
X166181894Y-58471082D01*
X166348917Y-58638105D01*
X166542421Y-58773600D01*
X166756507Y-58873429D01*
X166756516Y-58873433D01*
X166970000Y-58930634D01*
X166970000Y-58033012D01*
X167027007Y-58065925D01*
X167154174Y-58100000D01*
X167285826Y-58100000D01*
X167412993Y-58065925D01*
X167470000Y-58033012D01*
X167470000Y-58930633D01*
X167683483Y-58873433D01*
X167683492Y-58873429D01*
X167897578Y-58773600D01*
X168091082Y-58638105D01*
X168258105Y-58471082D01*
X168393600Y-58277578D01*
X168493429Y-58063492D01*
X168493432Y-58063486D01*
X168550636Y-57850000D01*
X167653012Y-57850000D01*
X167685925Y-57792993D01*
X167720000Y-57665826D01*
X167720000Y-57534174D01*
X167685925Y-57407007D01*
X167653012Y-57350000D01*
X168550636Y-57350000D01*
X168550635Y-57349999D01*
X168493432Y-57136513D01*
X168493429Y-57136507D01*
X168393600Y-56922422D01*
X168393599Y-56922420D01*
X168258113Y-56728926D01*
X168258108Y-56728920D01*
X168091082Y-56561894D01*
X167897578Y-56426399D01*
X167683492Y-56326570D01*
X167683486Y-56326567D01*
X167470000Y-56269364D01*
X167470000Y-57166988D01*
X167412993Y-57134075D01*
X167285826Y-57100000D01*
X167154174Y-57100000D01*
X167027007Y-57134075D01*
X166970000Y-57166988D01*
X166970000Y-56269364D01*
X166969999Y-56269364D01*
X166756513Y-56326567D01*
X166756507Y-56326570D01*
X166542422Y-56426399D01*
X166542420Y-56426400D01*
X166348926Y-56561886D01*
X166348920Y-56561891D01*
X166181891Y-56728920D01*
X166181890Y-56728922D01*
X166051575Y-56915031D01*
X165996998Y-56958655D01*
X165927499Y-56965848D01*
X165865145Y-56934326D01*
X165848425Y-56915031D01*
X165718109Y-56728922D01*
X165718108Y-56728920D01*
X165551082Y-56561894D01*
X165357578Y-56426399D01*
X165143492Y-56326570D01*
X165143486Y-56326567D01*
X164930000Y-56269364D01*
X164930000Y-57166988D01*
X164872993Y-57134075D01*
X164745826Y-57100000D01*
X164614174Y-57100000D01*
X164487007Y-57134075D01*
X164430000Y-57166988D01*
X164430000Y-56269364D01*
X164429999Y-56269364D01*
X164216513Y-56326567D01*
X164216507Y-56326570D01*
X164002422Y-56426399D01*
X164002420Y-56426400D01*
X163808926Y-56561886D01*
X163808920Y-56561891D01*
X163641891Y-56728920D01*
X163641890Y-56728922D01*
X163511880Y-56914595D01*
X163457303Y-56958219D01*
X163387804Y-56965412D01*
X163325450Y-56933890D01*
X163308730Y-56914594D01*
X163178494Y-56728597D01*
X163011402Y-56561506D01*
X163011395Y-56561501D01*
X162817834Y-56425967D01*
X162817830Y-56425965D01*
X162817828Y-56425964D01*
X162603663Y-56326097D01*
X162603659Y-56326096D01*
X162603655Y-56326094D01*
X162375413Y-56264938D01*
X162375403Y-56264936D01*
X162140001Y-56244341D01*
X162139999Y-56244341D01*
X161904596Y-56264936D01*
X161904586Y-56264938D01*
X161676344Y-56326094D01*
X161676335Y-56326098D01*
X161462171Y-56425964D01*
X161462169Y-56425965D01*
X161268597Y-56561505D01*
X161101505Y-56728597D01*
X160971575Y-56914158D01*
X160916998Y-56957783D01*
X160847500Y-56964977D01*
X160785145Y-56933454D01*
X160768425Y-56914158D01*
X160638494Y-56728597D01*
X160471402Y-56561506D01*
X160471395Y-56561501D01*
X160277834Y-56425967D01*
X160277830Y-56425965D01*
X160277828Y-56425964D01*
X160063663Y-56326097D01*
X160063659Y-56326096D01*
X160063655Y-56326094D01*
X159835413Y-56264938D01*
X159835403Y-56264936D01*
X159600001Y-56244341D01*
X159599999Y-56244341D01*
X159364596Y-56264936D01*
X159364586Y-56264938D01*
X159136344Y-56326094D01*
X159136335Y-56326098D01*
X158922171Y-56425964D01*
X158922169Y-56425965D01*
X158728597Y-56561505D01*
X158561505Y-56728597D01*
X158431575Y-56914158D01*
X158376998Y-56957783D01*
X158307500Y-56964977D01*
X158245145Y-56933454D01*
X158228425Y-56914158D01*
X158098494Y-56728597D01*
X157931402Y-56561506D01*
X157931395Y-56561501D01*
X157737834Y-56425967D01*
X157737830Y-56425965D01*
X157737828Y-56425964D01*
X157523663Y-56326097D01*
X157523659Y-56326096D01*
X157523655Y-56326094D01*
X157295413Y-56264938D01*
X157295403Y-56264936D01*
X157060001Y-56244341D01*
X157059999Y-56244341D01*
X156824596Y-56264936D01*
X156824586Y-56264938D01*
X156596344Y-56326094D01*
X156596335Y-56326098D01*
X156382171Y-56425964D01*
X156382169Y-56425965D01*
X156188600Y-56561503D01*
X156066673Y-56683430D01*
X156005350Y-56716914D01*
X155935658Y-56711930D01*
X155879725Y-56670058D01*
X155862810Y-56639081D01*
X155813797Y-56507671D01*
X155813793Y-56507664D01*
X155727547Y-56392455D01*
X155727544Y-56392452D01*
X155612335Y-56306206D01*
X155612328Y-56306202D01*
X155477482Y-56255908D01*
X155477483Y-56255908D01*
X155417883Y-56249501D01*
X155417881Y-56249500D01*
X155417873Y-56249500D01*
X155417864Y-56249500D01*
X153622129Y-56249500D01*
X153622123Y-56249501D01*
X153562516Y-56255908D01*
X153427671Y-56306202D01*
X153427664Y-56306206D01*
X153312455Y-56392452D01*
X153312452Y-56392455D01*
X153226206Y-56507664D01*
X153226202Y-56507671D01*
X153175908Y-56642517D01*
X153169501Y-56702116D01*
X153169500Y-56702127D01*
X153169500Y-57534174D01*
X153169501Y-58321500D01*
X153149816Y-58388539D01*
X153097013Y-58434294D01*
X153045501Y-58445500D01*
X151080446Y-58445500D01*
X151080426Y-58445499D01*
X151074312Y-58445499D01*
X150954938Y-58445499D01*
X150887899Y-58425814D01*
X150842144Y-58373010D01*
X150832200Y-58303852D01*
X150842556Y-58269094D01*
X150938429Y-58063492D01*
X150938432Y-58063486D01*
X150995636Y-57850000D01*
X150098012Y-57850000D01*
X150130925Y-57792993D01*
X150165000Y-57665826D01*
X150165000Y-57534174D01*
X150130925Y-57407007D01*
X150098012Y-57350000D01*
X150995636Y-57350000D01*
X150995635Y-57349999D01*
X150938432Y-57136513D01*
X150938429Y-57136507D01*
X150838600Y-56922422D01*
X150838599Y-56922420D01*
X150703113Y-56728926D01*
X150703108Y-56728920D01*
X150536082Y-56561894D01*
X150342578Y-56426399D01*
X150128492Y-56326570D01*
X150128486Y-56326567D01*
X149915000Y-56269364D01*
X149915000Y-57166988D01*
X149857993Y-57134075D01*
X149730826Y-57100000D01*
X149599174Y-57100000D01*
X149472007Y-57134075D01*
X149415000Y-57166988D01*
X149415000Y-56269364D01*
X149414999Y-56269364D01*
X149201513Y-56326567D01*
X149201507Y-56326570D01*
X148987422Y-56426399D01*
X148987420Y-56426400D01*
X148793926Y-56561886D01*
X148671865Y-56683947D01*
X148610542Y-56717431D01*
X148540850Y-56712447D01*
X148484917Y-56670575D01*
X148468002Y-56639598D01*
X148418797Y-56507671D01*
X148418793Y-56507664D01*
X148332547Y-56392455D01*
X148332544Y-56392452D01*
X148217335Y-56306206D01*
X148217328Y-56306202D01*
X148082482Y-56255908D01*
X148082483Y-56255908D01*
X148022883Y-56249501D01*
X148022881Y-56249500D01*
X148022873Y-56249500D01*
X148022864Y-56249500D01*
X146227129Y-56249500D01*
X146227123Y-56249501D01*
X146167516Y-56255908D01*
X146032671Y-56306202D01*
X146032664Y-56306206D01*
X145917455Y-56392452D01*
X145917452Y-56392455D01*
X145831206Y-56507664D01*
X145831202Y-56507671D01*
X145780908Y-56642517D01*
X145774501Y-56702116D01*
X145774500Y-56702135D01*
X145774500Y-58497870D01*
X145774501Y-58497876D01*
X145780908Y-58557483D01*
X145831202Y-58692328D01*
X145831206Y-58692335D01*
X145917452Y-58807544D01*
X145917455Y-58807547D01*
X146032664Y-58893793D01*
X146032671Y-58893797D01*
X146167517Y-58944091D01*
X146167516Y-58944091D01*
X146174444Y-58944835D01*
X146227127Y-58950500D01*
X148022872Y-58950499D01*
X148082483Y-58944091D01*
X148217331Y-58893796D01*
X148332546Y-58807546D01*
X148418796Y-58692331D01*
X148468002Y-58560401D01*
X148509872Y-58504468D01*
X148575337Y-58480050D01*
X148643610Y-58494901D01*
X148671865Y-58516053D01*
X148793917Y-58638105D01*
X148987421Y-58773600D01*
X149201507Y-58873429D01*
X149201516Y-58873433D01*
X149415000Y-58930634D01*
X149415000Y-58033012D01*
X149472007Y-58065925D01*
X149599174Y-58100000D01*
X149730826Y-58100000D01*
X149857993Y-58065925D01*
X149915000Y-58033012D01*
X149915000Y-58930634D01*
X149963513Y-58967860D01*
X149962766Y-58968832D01*
X149988213Y-58986053D01*
X150015723Y-59050279D01*
X150004142Y-59119182D01*
X149980282Y-59152691D01*
X149767942Y-59365031D01*
X149685368Y-59488614D01*
X149660149Y-59549500D01*
X149632568Y-59616085D01*
X149632569Y-59616086D01*
X149628494Y-59625923D01*
X149628493Y-59625927D01*
X149599499Y-59771685D01*
X149599499Y-59926425D01*
X149599500Y-59926446D01*
X149599500Y-60284000D01*
X149579815Y-60351039D01*
X149527011Y-60396794D01*
X149475500Y-60408000D01*
X149168589Y-60408000D01*
X149101550Y-60388315D01*
X149071322Y-60360910D01*
X149067710Y-60356342D01*
X148943657Y-60232289D01*
X148943656Y-60232288D01*
X148794334Y-60140186D01*
X148627797Y-60085001D01*
X148627795Y-60085000D01*
X148525010Y-60074500D01*
X147474998Y-60074500D01*
X147474980Y-60074501D01*
X147372203Y-60085000D01*
X147372200Y-60085001D01*
X147205668Y-60140185D01*
X147205663Y-60140187D01*
X147056342Y-60232289D01*
X146987681Y-60300951D01*
X146926358Y-60334436D01*
X146856666Y-60329452D01*
X146812319Y-60300951D01*
X146743657Y-60232289D01*
X146743656Y-60232288D01*
X146594334Y-60140186D01*
X146427797Y-60085001D01*
X146427795Y-60085000D01*
X146325010Y-60074500D01*
X145274998Y-60074500D01*
X145274980Y-60074501D01*
X145172203Y-60085000D01*
X145172200Y-60085001D01*
X145005668Y-60140185D01*
X145005663Y-60140187D01*
X144856342Y-60232289D01*
X144732289Y-60356342D01*
X144640187Y-60505663D01*
X144640185Y-60505668D01*
X144612349Y-60589670D01*
X144585001Y-60672203D01*
X144585001Y-60672204D01*
X144585000Y-60672204D01*
X144574500Y-60774983D01*
X140100500Y-60774983D01*
X140100500Y-59595806D01*
X140120185Y-59528767D01*
X140172989Y-59483012D01*
X140242147Y-59473068D01*
X140305703Y-59502093D01*
X140309373Y-59505404D01*
X140466836Y-59653272D01*
X140466846Y-59653280D01*
X140711193Y-59830808D01*
X140711198Y-59830810D01*
X140711205Y-59830816D01*
X140975896Y-59976332D01*
X140975901Y-59976334D01*
X140975903Y-59976335D01*
X140975904Y-59976336D01*
X141256734Y-60087524D01*
X141256737Y-60087525D01*
X141354259Y-60112564D01*
X141549302Y-60162642D01*
X141662583Y-60176953D01*
X141848963Y-60200499D01*
X141848969Y-60200499D01*
X141848973Y-60200500D01*
X141848975Y-60200500D01*
X142151025Y-60200500D01*
X142151027Y-60200500D01*
X142151032Y-60200499D01*
X142151036Y-60200499D01*
X142230591Y-60190448D01*
X142450698Y-60162642D01*
X142743262Y-60087525D01*
X142749637Y-60085001D01*
X143024095Y-59976336D01*
X143024096Y-59976335D01*
X143024094Y-59976335D01*
X143024104Y-59976332D01*
X143288795Y-59830816D01*
X143533162Y-59653274D01*
X143753349Y-59446504D01*
X143945885Y-59213768D01*
X144107733Y-58958736D01*
X144236341Y-58685430D01*
X144329681Y-58398160D01*
X144386280Y-58101457D01*
X144386372Y-58100000D01*
X144405246Y-57800005D01*
X144405246Y-57799994D01*
X144386281Y-57498553D01*
X144386280Y-57498546D01*
X144386280Y-57498543D01*
X144329681Y-57201840D01*
X144236341Y-56914570D01*
X144107733Y-56641264D01*
X144057363Y-56561894D01*
X143945888Y-56386236D01*
X143896528Y-56326570D01*
X143753349Y-56153496D01*
X143721477Y-56123566D01*
X143686082Y-56063324D01*
X143688876Y-55993511D01*
X143728970Y-55936290D01*
X143793635Y-55909829D01*
X143806328Y-55909174D01*
X185402428Y-55900897D01*
X185469472Y-55920568D01*
G37*
%TD.AperFunction*%
%TD*%
M02*
