%TF.GenerationSoftware,KiCad,Pcbnew,9.0.4*%
%TF.CreationDate,2025-09-08T01:00:11+07:00*%
%TF.ProjectId,Buck_Drone_Boit,4275636b-5f44-4726-9f6e-655f426f6974,rev?*%
%TF.SameCoordinates,Original*%
%TF.FileFunction,Legend,Bot*%
%TF.FilePolarity,Positive*%
%FSLAX46Y46*%
G04 Gerber Fmt 4.6, Leading zero omitted, Abs format (unit mm)*
G04 Created by KiCad (PCBNEW 9.0.4) date 2025-09-08 01:00:11*
%MOMM*%
%LPD*%
G01*
G04 APERTURE LIST*
%ADD10C,0.100000*%
%ADD11C,0.140000*%
%ADD12C,0.087500*%
G04 APERTURE END LIST*
D10*
X171686376Y-56400000D02*
X171686376Y-57200000D01*
X179086376Y-57200000D02*
X174886376Y-57200000D01*
X179086376Y-56400000D02*
X174486376Y-56400000D01*
X179086376Y-57200000D02*
X179086376Y-56400000D01*
X174886376Y-57200000D02*
X183686376Y-57200000D01*
X174486376Y-56400000D02*
X171686376Y-56400000D01*
D11*
G36*
X177541207Y-59639883D02*
G01*
X176545651Y-59639883D01*
X176545651Y-59058772D01*
X176623429Y-59058772D01*
X176623429Y-59492105D01*
X176627311Y-59511626D01*
X176627118Y-59514532D01*
X176628116Y-59515673D01*
X176628757Y-59518893D01*
X176646172Y-59536308D01*
X176662398Y-59554852D01*
X176664881Y-59555017D01*
X176666641Y-59556777D01*
X176691272Y-59556777D01*
X176715856Y-59558416D01*
X176718702Y-59556777D01*
X176720217Y-59556777D01*
X176722274Y-59554719D01*
X176739524Y-59544785D01*
X176903222Y-59401549D01*
X176930819Y-59456743D01*
X176937698Y-59465606D01*
X176943931Y-59474935D01*
X176977264Y-59508269D01*
X176986592Y-59514502D01*
X176995457Y-59521382D01*
X177062125Y-59554715D01*
X177065504Y-59555640D01*
X177066641Y-59556777D01*
X177077649Y-59558966D01*
X177088467Y-59561929D01*
X177089990Y-59561421D01*
X177093429Y-59562105D01*
X177260096Y-59562105D01*
X177263534Y-59561421D01*
X177265058Y-59561929D01*
X177275876Y-59558966D01*
X177286884Y-59556777D01*
X177288020Y-59555640D01*
X177291401Y-59554715D01*
X177358067Y-59521382D01*
X177366933Y-59514500D01*
X177376259Y-59508269D01*
X177409593Y-59474936D01*
X177415827Y-59465606D01*
X177422706Y-59456743D01*
X177456039Y-59390077D01*
X177456964Y-59386696D01*
X177458101Y-59385560D01*
X177460290Y-59374552D01*
X177463253Y-59363734D01*
X177462745Y-59362210D01*
X177463429Y-59358772D01*
X177463429Y-59158772D01*
X177462745Y-59155333D01*
X177463253Y-59153810D01*
X177460290Y-59142992D01*
X177458101Y-59131984D01*
X177456964Y-59130847D01*
X177456039Y-59127468D01*
X177422706Y-59060800D01*
X177415826Y-59051935D01*
X177409593Y-59042607D01*
X177376259Y-59009274D01*
X177353549Y-58994100D01*
X177299973Y-58994100D01*
X177262090Y-59031985D01*
X177262090Y-59085561D01*
X177277265Y-59108270D01*
X177302566Y-59133570D01*
X177323429Y-59175296D01*
X177323429Y-59342247D01*
X177302565Y-59383973D01*
X177285298Y-59401241D01*
X177243571Y-59422105D01*
X177109954Y-59422105D01*
X177068227Y-59401242D01*
X177050959Y-59383973D01*
X177030096Y-59342247D01*
X177030096Y-59258772D01*
X177026213Y-59239250D01*
X177026407Y-59236345D01*
X177025408Y-59235203D01*
X177024768Y-59231984D01*
X177007353Y-59214569D01*
X176991127Y-59196025D01*
X176988643Y-59195859D01*
X176986884Y-59194100D01*
X176962253Y-59194100D01*
X176937669Y-59192461D01*
X176934823Y-59194100D01*
X176933308Y-59194100D01*
X176931250Y-59196157D01*
X176914001Y-59206092D01*
X176763429Y-59337842D01*
X176763429Y-59058772D01*
X176758101Y-59031984D01*
X176720217Y-58994100D01*
X176666641Y-58994100D01*
X176628757Y-59031984D01*
X176623429Y-59058772D01*
X176545651Y-59058772D01*
X176545651Y-58430400D01*
X176623605Y-58430400D01*
X176647565Y-58478320D01*
X176671293Y-58491846D01*
X177172069Y-58658771D01*
X176671293Y-58825697D01*
X176647565Y-58839223D01*
X176623605Y-58887143D01*
X176640547Y-58937969D01*
X176688467Y-58961929D01*
X176715565Y-58958513D01*
X177415565Y-58725180D01*
X177439294Y-58711654D01*
X177441633Y-58706974D01*
X177446311Y-58704636D01*
X177453327Y-58683588D01*
X177463254Y-58663734D01*
X177461599Y-58658770D01*
X177463253Y-58653810D01*
X177453330Y-58633964D01*
X177446311Y-58612908D01*
X177441632Y-58610568D01*
X177439293Y-58605890D01*
X177415565Y-58592364D01*
X176715565Y-58359030D01*
X176688467Y-58355614D01*
X176640547Y-58379574D01*
X176623605Y-58430400D01*
X176545651Y-58430400D01*
X176545651Y-57792105D01*
X176623429Y-57792105D01*
X176623429Y-58225438D01*
X176627311Y-58244959D01*
X176627118Y-58247865D01*
X176628116Y-58249006D01*
X176628757Y-58252226D01*
X176646172Y-58269641D01*
X176662398Y-58288185D01*
X176664881Y-58288350D01*
X176666641Y-58290110D01*
X176691272Y-58290110D01*
X176715856Y-58291749D01*
X176718702Y-58290110D01*
X176720217Y-58290110D01*
X176722274Y-58288052D01*
X176739524Y-58278118D01*
X176903222Y-58134882D01*
X176930819Y-58190076D01*
X176937698Y-58198939D01*
X176943931Y-58208268D01*
X176977264Y-58241602D01*
X176986592Y-58247835D01*
X176995457Y-58254715D01*
X177062125Y-58288048D01*
X177065504Y-58288973D01*
X177066641Y-58290110D01*
X177077649Y-58292299D01*
X177088467Y-58295262D01*
X177089990Y-58294754D01*
X177093429Y-58295438D01*
X177260096Y-58295438D01*
X177263534Y-58294754D01*
X177265058Y-58295262D01*
X177275876Y-58292299D01*
X177286884Y-58290110D01*
X177288020Y-58288973D01*
X177291401Y-58288048D01*
X177358067Y-58254715D01*
X177366933Y-58247833D01*
X177376259Y-58241602D01*
X177409593Y-58208269D01*
X177415827Y-58198939D01*
X177422706Y-58190076D01*
X177456039Y-58123410D01*
X177456964Y-58120029D01*
X177458101Y-58118893D01*
X177460290Y-58107885D01*
X177463253Y-58097067D01*
X177462745Y-58095543D01*
X177463429Y-58092105D01*
X177463429Y-57892105D01*
X177462745Y-57888666D01*
X177463253Y-57887143D01*
X177460290Y-57876325D01*
X177458101Y-57865317D01*
X177456964Y-57864180D01*
X177456039Y-57860801D01*
X177422706Y-57794133D01*
X177415826Y-57785268D01*
X177409593Y-57775940D01*
X177376259Y-57742607D01*
X177353549Y-57727433D01*
X177299973Y-57727433D01*
X177262090Y-57765318D01*
X177262090Y-57818894D01*
X177277265Y-57841603D01*
X177302566Y-57866903D01*
X177323429Y-57908629D01*
X177323429Y-58075580D01*
X177302565Y-58117306D01*
X177285298Y-58134574D01*
X177243571Y-58155438D01*
X177109954Y-58155438D01*
X177068227Y-58134575D01*
X177050959Y-58117306D01*
X177030096Y-58075580D01*
X177030096Y-57992105D01*
X177026213Y-57972583D01*
X177026407Y-57969678D01*
X177025408Y-57968536D01*
X177024768Y-57965317D01*
X177007353Y-57947902D01*
X176991127Y-57929358D01*
X176988643Y-57929192D01*
X176986884Y-57927433D01*
X176962253Y-57927433D01*
X176937669Y-57925794D01*
X176934823Y-57927433D01*
X176933308Y-57927433D01*
X176931250Y-57929490D01*
X176914001Y-57939425D01*
X176763429Y-58071175D01*
X176763429Y-57792105D01*
X176758101Y-57765317D01*
X176720217Y-57727433D01*
X176666641Y-57727433D01*
X176628757Y-57765317D01*
X176623429Y-57792105D01*
X176545651Y-57792105D01*
X176545651Y-57649655D01*
X177541207Y-57649655D01*
X177541207Y-59639883D01*
G37*
D12*
X181329492Y-58190898D02*
X181296159Y-58124231D01*
X181296159Y-58124231D02*
X181296159Y-58024231D01*
X181296159Y-58024231D02*
X181329492Y-57924231D01*
X181329492Y-57924231D02*
X181396159Y-57857565D01*
X181396159Y-57857565D02*
X181462826Y-57824231D01*
X181462826Y-57824231D02*
X181596159Y-57790898D01*
X181596159Y-57790898D02*
X181696159Y-57790898D01*
X181696159Y-57790898D02*
X181829492Y-57824231D01*
X181829492Y-57824231D02*
X181896159Y-57857565D01*
X181896159Y-57857565D02*
X181962826Y-57924231D01*
X181962826Y-57924231D02*
X181996159Y-58024231D01*
X181996159Y-58024231D02*
X181996159Y-58090898D01*
X181996159Y-58090898D02*
X181962826Y-58190898D01*
X181962826Y-58190898D02*
X181929492Y-58224231D01*
X181929492Y-58224231D02*
X181696159Y-58224231D01*
X181696159Y-58224231D02*
X181696159Y-58090898D01*
X181996159Y-58524231D02*
X181296159Y-58524231D01*
X181296159Y-58524231D02*
X181996159Y-58924231D01*
X181996159Y-58924231D02*
X181296159Y-58924231D01*
X181996159Y-59257564D02*
X181296159Y-59257564D01*
X181296159Y-59257564D02*
X181296159Y-59424231D01*
X181296159Y-59424231D02*
X181329492Y-59524231D01*
X181329492Y-59524231D02*
X181396159Y-59590898D01*
X181396159Y-59590898D02*
X181462826Y-59624231D01*
X181462826Y-59624231D02*
X181596159Y-59657564D01*
X181596159Y-59657564D02*
X181696159Y-59657564D01*
X181696159Y-59657564D02*
X181829492Y-59624231D01*
X181829492Y-59624231D02*
X181896159Y-59590898D01*
X181896159Y-59590898D02*
X181962826Y-59524231D01*
X181962826Y-59524231D02*
X181996159Y-59424231D01*
X181996159Y-59424231D02*
X181996159Y-59257564D01*
G36*
X175717687Y-59275762D02*
G01*
X174774631Y-59275762D01*
X174774631Y-58957564D01*
X174852409Y-58957564D01*
X174852409Y-59024231D01*
X174853776Y-59031108D01*
X174854654Y-59038066D01*
X174887987Y-59138066D01*
X174889072Y-59139971D01*
X174889073Y-59140974D01*
X174892961Y-59146792D01*
X174896440Y-59152896D01*
X174897340Y-59153346D01*
X174898557Y-59155167D01*
X174931891Y-59188501D01*
X174946084Y-59197984D01*
X174979570Y-59197984D01*
X175003246Y-59174306D01*
X175003246Y-59140821D01*
X174993762Y-59126628D01*
X174967731Y-59100598D01*
X174939909Y-59017131D01*
X174939909Y-58964663D01*
X174967730Y-58881197D01*
X175022074Y-58826853D01*
X175078095Y-58798843D01*
X175201545Y-58767981D01*
X175290772Y-58767981D01*
X175414222Y-58798843D01*
X175470243Y-58826854D01*
X175524586Y-58881195D01*
X175552409Y-58964663D01*
X175552409Y-59017131D01*
X175524586Y-59100598D01*
X175498557Y-59126628D01*
X175489073Y-59140821D01*
X175489072Y-59174306D01*
X175512749Y-59197983D01*
X175546234Y-59197984D01*
X175560427Y-59188500D01*
X175593762Y-59155167D01*
X175594979Y-59153345D01*
X175595878Y-59152896D01*
X175599350Y-59146802D01*
X175603246Y-59140974D01*
X175603246Y-59139969D01*
X175604331Y-59138066D01*
X175637664Y-59038066D01*
X175638541Y-59031108D01*
X175639909Y-59024231D01*
X175639909Y-58957564D01*
X175638541Y-58950686D01*
X175637664Y-58943729D01*
X175604331Y-58843729D01*
X175603246Y-58841825D01*
X175603246Y-58840821D01*
X175599350Y-58834992D01*
X175595878Y-58828899D01*
X175594979Y-58828449D01*
X175593762Y-58826628D01*
X175527095Y-58759962D01*
X175521261Y-58756063D01*
X175515725Y-58751767D01*
X175449058Y-58718433D01*
X175444435Y-58717167D01*
X175440102Y-58715120D01*
X175306770Y-58681787D01*
X175301414Y-58681526D01*
X175296159Y-58680481D01*
X175196159Y-58680481D01*
X175190903Y-58681526D01*
X175185548Y-58681787D01*
X175052215Y-58715120D01*
X175047880Y-58717167D01*
X175043260Y-58718433D01*
X174976593Y-58751767D01*
X174971050Y-58756068D01*
X174965224Y-58759962D01*
X174898556Y-58826628D01*
X174897338Y-58828449D01*
X174896440Y-58828899D01*
X174892967Y-58834992D01*
X174889072Y-58840821D01*
X174889072Y-58841825D01*
X174887987Y-58843729D01*
X174854654Y-58943729D01*
X174853776Y-58950686D01*
X174852409Y-58957564D01*
X174774631Y-58957564D01*
X174774631Y-58018713D01*
X174852758Y-58018713D01*
X174855739Y-58029642D01*
X174855739Y-58040973D01*
X174859987Y-58045221D01*
X174861569Y-58051019D01*
X174874453Y-58062217D01*
X175431415Y-58380481D01*
X174896159Y-58380481D01*
X174879417Y-58383811D01*
X174855739Y-58407489D01*
X174855739Y-58440973D01*
X174879417Y-58464651D01*
X174896159Y-58467981D01*
X175596159Y-58467981D01*
X175612901Y-58464651D01*
X175617149Y-58460402D01*
X175622947Y-58458821D01*
X175628568Y-58448983D01*
X175636579Y-58440973D01*
X175636579Y-58434965D01*
X175639560Y-58429749D01*
X175636579Y-58418819D01*
X175636579Y-58407489D01*
X175632330Y-58403240D01*
X175630749Y-58397443D01*
X175617865Y-58386245D01*
X175060903Y-58067981D01*
X175596159Y-58067981D01*
X175612901Y-58064651D01*
X175636579Y-58040973D01*
X175636579Y-58007489D01*
X175612901Y-57983811D01*
X175596159Y-57980481D01*
X174896159Y-57980481D01*
X174879417Y-57983811D01*
X174875168Y-57988059D01*
X174869371Y-57989641D01*
X174863749Y-57999478D01*
X174855739Y-58007489D01*
X174855739Y-58013496D01*
X174852758Y-58018713D01*
X174774631Y-58018713D01*
X174774631Y-57902703D01*
X175717687Y-57902703D01*
X175717687Y-59275762D01*
G37*
G36*
X180552409Y-59417131D02*
G01*
X180524586Y-59500598D01*
X180470242Y-59554942D01*
X180414225Y-59582950D01*
X180290772Y-59613814D01*
X180201545Y-59613814D01*
X180078094Y-59582951D01*
X180022075Y-59554942D01*
X179967731Y-59500598D01*
X179939909Y-59417131D01*
X179939909Y-59301314D01*
X180552409Y-59301314D01*
X180552409Y-59417131D01*
G37*
G36*
X180717687Y-59779092D02*
G01*
X179774631Y-59779092D01*
X179774631Y-59257564D01*
X179852409Y-59257564D01*
X179852409Y-59424231D01*
X179853776Y-59431108D01*
X179854654Y-59438066D01*
X179887987Y-59538066D01*
X179889072Y-59539969D01*
X179889072Y-59540974D01*
X179892967Y-59546802D01*
X179896440Y-59552896D01*
X179897338Y-59553345D01*
X179898556Y-59555167D01*
X179965223Y-59621834D01*
X179971053Y-59625729D01*
X179976594Y-59630029D01*
X180043261Y-59663362D01*
X180047879Y-59664626D01*
X180052215Y-59666675D01*
X180185548Y-59700008D01*
X180190903Y-59700268D01*
X180196159Y-59701314D01*
X180296159Y-59701314D01*
X180301414Y-59700268D01*
X180306770Y-59700008D01*
X180440102Y-59666675D01*
X180444436Y-59664627D01*
X180449057Y-59663362D01*
X180515725Y-59630029D01*
X180521264Y-59625729D01*
X180527095Y-59621834D01*
X180593762Y-59555167D01*
X180594979Y-59553345D01*
X180595878Y-59552896D01*
X180599354Y-59546796D01*
X180603245Y-59540974D01*
X180603245Y-59539971D01*
X180604331Y-59538066D01*
X180637664Y-59438066D01*
X180638541Y-59431108D01*
X180639909Y-59424231D01*
X180639909Y-59257564D01*
X180636579Y-59240822D01*
X180612901Y-59217144D01*
X180596159Y-59213814D01*
X179896159Y-59213814D01*
X179879417Y-59217144D01*
X179855739Y-59240822D01*
X179852409Y-59257564D01*
X179774631Y-59257564D01*
X179774631Y-58518713D01*
X179852758Y-58518713D01*
X179855739Y-58529642D01*
X179855739Y-58540973D01*
X179859987Y-58545221D01*
X179861569Y-58551019D01*
X179874453Y-58562217D01*
X180431415Y-58880481D01*
X179896159Y-58880481D01*
X179879417Y-58883811D01*
X179855739Y-58907489D01*
X179855739Y-58940973D01*
X179879417Y-58964651D01*
X179896159Y-58967981D01*
X180596159Y-58967981D01*
X180612901Y-58964651D01*
X180617149Y-58960402D01*
X180622947Y-58958821D01*
X180628568Y-58948983D01*
X180636579Y-58940973D01*
X180636579Y-58934965D01*
X180639560Y-58929749D01*
X180636579Y-58918819D01*
X180636579Y-58907489D01*
X180632330Y-58903240D01*
X180630749Y-58897443D01*
X180617865Y-58886245D01*
X180060903Y-58567981D01*
X180596159Y-58567981D01*
X180612901Y-58564651D01*
X180636579Y-58540973D01*
X180636579Y-58507489D01*
X180612901Y-58483811D01*
X180596159Y-58480481D01*
X179896159Y-58480481D01*
X179879417Y-58483811D01*
X179875168Y-58488059D01*
X179869371Y-58489641D01*
X179863749Y-58499478D01*
X179855739Y-58507489D01*
X179855739Y-58513496D01*
X179852758Y-58518713D01*
X179774631Y-58518713D01*
X179774631Y-58024231D01*
X179852409Y-58024231D01*
X179852409Y-58124231D01*
X179852836Y-58126380D01*
X179852519Y-58127333D01*
X179854370Y-58134094D01*
X179855739Y-58140973D01*
X179856449Y-58141683D01*
X179857028Y-58143796D01*
X179890361Y-58210464D01*
X179900826Y-58223949D01*
X179932594Y-58234538D01*
X179962543Y-58219564D01*
X179973132Y-58187797D01*
X179968623Y-58171333D01*
X179939909Y-58113904D01*
X179939909Y-58031330D01*
X179967730Y-57947864D01*
X180022074Y-57893520D01*
X180078095Y-57865510D01*
X180201545Y-57834648D01*
X180290772Y-57834648D01*
X180414222Y-57865510D01*
X180470243Y-57893521D01*
X180524586Y-57947862D01*
X180552409Y-58031330D01*
X180552409Y-58083798D01*
X180524586Y-58167265D01*
X180511371Y-58180481D01*
X180339909Y-58180481D01*
X180339909Y-58090898D01*
X180336579Y-58074156D01*
X180312901Y-58050478D01*
X180279417Y-58050478D01*
X180255739Y-58074156D01*
X180252409Y-58090898D01*
X180252409Y-58224231D01*
X180255739Y-58240973D01*
X180279417Y-58264651D01*
X180296159Y-58267981D01*
X180529492Y-58267981D01*
X180546234Y-58264651D01*
X180560427Y-58255167D01*
X180593762Y-58221834D01*
X180594979Y-58220012D01*
X180595878Y-58219563D01*
X180599350Y-58213469D01*
X180603246Y-58207641D01*
X180603246Y-58206636D01*
X180604331Y-58204733D01*
X180637664Y-58104733D01*
X180638541Y-58097775D01*
X180639909Y-58090898D01*
X180639909Y-58024231D01*
X180638541Y-58017353D01*
X180637664Y-58010396D01*
X180604331Y-57910396D01*
X180603246Y-57908492D01*
X180603246Y-57907488D01*
X180599350Y-57901659D01*
X180595878Y-57895566D01*
X180594979Y-57895116D01*
X180593762Y-57893295D01*
X180527095Y-57826629D01*
X180521261Y-57822730D01*
X180515725Y-57818434D01*
X180449058Y-57785100D01*
X180444435Y-57783834D01*
X180440102Y-57781787D01*
X180306770Y-57748454D01*
X180301414Y-57748193D01*
X180296159Y-57747148D01*
X180196159Y-57747148D01*
X180190903Y-57748193D01*
X180185548Y-57748454D01*
X180052215Y-57781787D01*
X180047880Y-57783834D01*
X180043260Y-57785100D01*
X179976593Y-57818434D01*
X179971050Y-57822735D01*
X179965224Y-57826629D01*
X179898556Y-57893295D01*
X179897338Y-57895116D01*
X179896440Y-57895566D01*
X179892967Y-57901659D01*
X179889072Y-57907488D01*
X179889072Y-57908492D01*
X179887987Y-57910396D01*
X179854654Y-58010396D01*
X179853776Y-58017353D01*
X179852409Y-58024231D01*
X179774631Y-58024231D01*
X179774631Y-57669370D01*
X180717687Y-57669370D01*
X180717687Y-59779092D01*
G37*
X182929492Y-58190898D02*
X182896159Y-58124231D01*
X182896159Y-58124231D02*
X182896159Y-58024231D01*
X182896159Y-58024231D02*
X182929492Y-57924231D01*
X182929492Y-57924231D02*
X182996159Y-57857565D01*
X182996159Y-57857565D02*
X183062826Y-57824231D01*
X183062826Y-57824231D02*
X183196159Y-57790898D01*
X183196159Y-57790898D02*
X183296159Y-57790898D01*
X183296159Y-57790898D02*
X183429492Y-57824231D01*
X183429492Y-57824231D02*
X183496159Y-57857565D01*
X183496159Y-57857565D02*
X183562826Y-57924231D01*
X183562826Y-57924231D02*
X183596159Y-58024231D01*
X183596159Y-58024231D02*
X183596159Y-58090898D01*
X183596159Y-58090898D02*
X183562826Y-58190898D01*
X183562826Y-58190898D02*
X183529492Y-58224231D01*
X183529492Y-58224231D02*
X183296159Y-58224231D01*
X183296159Y-58224231D02*
X183296159Y-58090898D01*
X183596159Y-58524231D02*
X182896159Y-58524231D01*
X182896159Y-58524231D02*
X183596159Y-58924231D01*
X183596159Y-58924231D02*
X182896159Y-58924231D01*
X183596159Y-59257564D02*
X182896159Y-59257564D01*
X182896159Y-59257564D02*
X182896159Y-59424231D01*
X182896159Y-59424231D02*
X182929492Y-59524231D01*
X182929492Y-59524231D02*
X182996159Y-59590898D01*
X182996159Y-59590898D02*
X183062826Y-59624231D01*
X183062826Y-59624231D02*
X183196159Y-59657564D01*
X183196159Y-59657564D02*
X183296159Y-59657564D01*
X183296159Y-59657564D02*
X183429492Y-59624231D01*
X183429492Y-59624231D02*
X183496159Y-59590898D01*
X183496159Y-59590898D02*
X183562826Y-59524231D01*
X183562826Y-59524231D02*
X183596159Y-59424231D01*
X183596159Y-59424231D02*
X183596159Y-59257564D01*
G36*
X179317687Y-58978983D02*
G01*
X178374631Y-58978983D01*
X178374631Y-58393999D01*
X178452519Y-58393999D01*
X178467494Y-58423949D01*
X178482324Y-58432403D01*
X179057809Y-58624231D01*
X178482324Y-58816060D01*
X178467494Y-58824513D01*
X178452519Y-58854464D01*
X178463107Y-58886230D01*
X178493058Y-58901205D01*
X178509994Y-58899070D01*
X179209994Y-58665737D01*
X179224824Y-58657283D01*
X179226286Y-58654359D01*
X179229210Y-58652897D01*
X179233596Y-58639738D01*
X179239799Y-58627333D01*
X179238765Y-58624231D01*
X179239799Y-58621131D01*
X179233598Y-58608729D01*
X179229211Y-58595567D01*
X179226285Y-58594104D01*
X179224824Y-58591181D01*
X179209994Y-58582727D01*
X178509994Y-58349393D01*
X178493058Y-58347258D01*
X178463108Y-58362233D01*
X178452519Y-58393999D01*
X178374631Y-58393999D01*
X178374631Y-57824231D01*
X178452409Y-57824231D01*
X178452409Y-58157565D01*
X178455739Y-58174307D01*
X178479417Y-58197985D01*
X178512901Y-58197985D01*
X178536579Y-58174307D01*
X178539909Y-58157565D01*
X178539909Y-57863824D01*
X178737319Y-57844083D01*
X178723695Y-57871333D01*
X178723116Y-57873445D01*
X178722406Y-57874156D01*
X178721037Y-57881034D01*
X178719186Y-57887796D01*
X178719503Y-57888748D01*
X178719076Y-57890898D01*
X178719076Y-58057565D01*
X178719503Y-58059714D01*
X178719186Y-58060667D01*
X178721038Y-58067429D01*
X178722406Y-58074307D01*
X178723116Y-58075017D01*
X178723695Y-58077131D01*
X178757028Y-58143797D01*
X178761329Y-58149339D01*
X178765223Y-58155166D01*
X178798556Y-58188501D01*
X178804390Y-58192399D01*
X178809927Y-58196696D01*
X178876594Y-58230029D01*
X178878706Y-58230607D01*
X178879417Y-58231318D01*
X178886298Y-58232686D01*
X178893058Y-58234538D01*
X178894010Y-58234220D01*
X178896159Y-58234648D01*
X179062826Y-58234648D01*
X179064975Y-58234220D01*
X179065928Y-58234538D01*
X179072690Y-58232685D01*
X179079568Y-58231318D01*
X179080278Y-58230607D01*
X179082392Y-58230029D01*
X179149058Y-58196696D01*
X179154594Y-58192399D01*
X179160428Y-58188501D01*
X179193762Y-58155167D01*
X179197657Y-58149336D01*
X179201957Y-58143797D01*
X179235290Y-58077130D01*
X179235868Y-58075017D01*
X179236579Y-58074307D01*
X179237947Y-58067428D01*
X179239799Y-58060667D01*
X179239481Y-58059714D01*
X179239909Y-58057565D01*
X179239909Y-57890898D01*
X179239481Y-57888749D01*
X179239799Y-57887797D01*
X179237947Y-57881037D01*
X179236579Y-57874156D01*
X179235868Y-57873445D01*
X179235290Y-57871333D01*
X179201957Y-57804666D01*
X179197660Y-57799129D01*
X179193762Y-57793295D01*
X179160427Y-57759962D01*
X179146234Y-57750478D01*
X179112749Y-57750479D01*
X179089072Y-57774156D01*
X179089073Y-57807641D01*
X179098557Y-57821834D01*
X179126870Y-57850147D01*
X179152409Y-57901225D01*
X179152409Y-58047237D01*
X179126870Y-58098315D01*
X179103575Y-58121609D01*
X179052498Y-58147148D01*
X178906487Y-58147148D01*
X178855408Y-58121609D01*
X178832115Y-58098316D01*
X178806576Y-58047237D01*
X178806576Y-57901224D01*
X178832114Y-57850147D01*
X178860428Y-57821834D01*
X178869912Y-57807641D01*
X178869912Y-57805325D01*
X178871377Y-57803535D01*
X178869912Y-57788885D01*
X178869912Y-57774155D01*
X178868275Y-57772518D01*
X178868045Y-57770217D01*
X178856654Y-57760897D01*
X178846235Y-57750478D01*
X178843920Y-57750478D01*
X178842129Y-57749013D01*
X178825138Y-57747365D01*
X178491806Y-57780698D01*
X178481597Y-57783811D01*
X178479417Y-57783811D01*
X178478460Y-57784767D01*
X178475478Y-57785677D01*
X178466151Y-57797076D01*
X178455739Y-57807489D01*
X178455130Y-57810546D01*
X178454274Y-57811594D01*
X178454490Y-57813763D01*
X178452409Y-57824231D01*
X178374631Y-57824231D01*
X178374631Y-57669587D01*
X179317687Y-57669587D01*
X179317687Y-58978983D01*
G37*
M02*
